<svg width="1002" height="1002" viewBox="0 0 1002 1002" fill="none" xmlns="http://www.w3.org/2000/svg">
<g clip-path="url(#clip0_202_283)">
<path d="M967.863 778.735C976.828 788.296 983.056 800.371 985.823 813.552C988.591 826.734 987.784 840.481 983.496 853.194C982.634 855.747 981.635 858.246 980.502 860.677C976.274 869.739 970.285 877.743 962.93 884.156C955.576 890.569 947.024 895.246 937.842 897.876C935.17 898.648 932.453 899.235 929.709 899.633C926.657 900.079 923.58 900.301 920.499 900.297L82.3555 899.704C66.7595 899.71 51.6558 893.897 39.6731 883.276C38.0681 881.833 36.5308 880.343 35.0613 878.806C34.2385 877.929 33.426 877.031 32.6439 876.1C31.6282 874.92 30.6837 873.708 29.7697 872.453C26.905 868.589 24.4309 864.414 22.3884 859.998C22.1144 859.414 21.8505 858.83 21.5968 858.234C20.7849 856.359 20.0543 854.451 19.4051 852.511C15.5632 841.162 14.4979 828.96 16.3095 817.052C18.1212 805.144 22.7501 793.921 29.7609 784.441C30.6766 783.187 31.6432 781.976 32.6402 780.798C38.9164 773.358 46.5979 767.411 55.1824 763.346C63.7668 759.281 73.0607 757.191 82.4564 757.211L169.735 757.272C170.833 757.273 171.921 757.231 172.998 757.145C175.764 756.936 178.505 756.446 181.182 755.68C183.519 755.017 185.798 754.143 187.995 753.067C192.767 750.742 197.113 747.533 200.83 743.59C204.924 739.256 208.171 734.103 210.386 728.428C212.6 722.753 213.738 716.668 213.733 710.523C213.737 708.752 213.643 706.982 213.452 705.223C212.453 695.909 208.849 687.128 203.108 680.018C197.366 672.907 189.75 667.795 181.246 665.342C178.569 664.574 175.83 664.08 173.064 663.866C171.987 663.778 170.899 663.734 169.801 663.733L156.099 663.724C148.468 663.726 140.861 662.813 133.422 661.004L133.351 661.004C133.178 661.003 133.005 660.928 132.832 660.873C132.263 660.743 131.704 660.591 131.145 660.44L130.312 660.212C129.58 660.006 128.848 659.8 128.127 659.572C127.405 659.345 126.907 659.193 126.308 658.987C121.747 657.524 117.291 655.714 112.975 653.569C112.019 653.093 111.064 652.605 110.129 652.085C108.585 651.251 107.081 650.385 105.577 649.465C102.766 647.754 100.057 645.899 97.449 643.899C95.2545 642.243 93.1312 640.489 91.069 638.66C88.7121 636.567 86.4502 634.366 84.2833 632.057C66.5282 613.226 55.9696 588.055 54.6508 561.417C54.6107 560.616 54.5808 559.816 54.561 559.016C54.5619 557.837 54.5017 556.647 54.5026 555.468C54.5029 554.949 54.5033 554.386 54.5037 553.921C54.5618 549.579 54.8636 545.245 55.4074 540.942C57.281 526.229 61.9863 512.085 69.2294 499.394C76.4724 486.703 86.0974 475.738 97.503 467.183C99.9982 465.296 102.571 463.535 105.222 461.9C105.375 461.803 105.527 461.705 105.69 461.619C110.25 458.826 115.01 456.421 119.926 454.425C122.062 453.551 124.227 452.763 126.424 452.04C128.62 451.316 131.09 450.626 133.47 450.054C140.933 448.242 148.566 447.333 156.221 447.345L231.098 447.398C240.392 447.399 249.458 444.333 257.046 438.623C259.097 437.07 261.023 435.338 262.803 433.446C270.582 425.213 275.246 414.226 275.908 402.575C275.959 401.655 275.991 400.725 275.991 399.784C275.994 392.636 274.488 385.578 271.584 379.132C268.681 372.687 264.453 367.017 259.214 362.543C258.534 361.958 257.843 361.46 257.132 360.875C254.58 358.93 251.838 357.285 248.952 355.97C248.251 355.634 247.54 355.331 246.818 355.049C241.822 353.061 236.53 352.046 231.196 352.053L94.3927 351.956C81.7527 351.959 69.2138 349.562 57.3658 344.877C53.1877 343.228 49.1144 341.292 45.1716 339.082C43.4239 338.107 41.7067 337.086 40.02 336.017C37.6153 334.494 35.2717 332.87 32.9891 331.145C31.9731 330.409 31.0588 329.662 30.114 328.893C27.2863 326.596 24.5736 324.142 21.987 321.543C21.0727 320.645 20.1789 319.725 19.2952 318.783C4.85904 303.443 -5.11207 283.997 -9.42263 262.778C-9.54421 262.208 -9.65562 261.635 -9.75687 261.058C-10.1215 259.154 -10.4352 257.239 -10.6982 255.292C-11.4467 249.812 -11.8199 244.281 -11.8148 238.743C-11.8145 238.31 -11.8142 237.877 -11.8139 237.445C-11.5575 211.674 -3.0001 186.775 12.4293 166.907C13.3858 165.675 14.3726 164.454 15.3798 163.264C16.6618 161.729 17.9945 160.238 19.3576 158.789C20.2427 157.849 21.1379 156.93 22.0534 156.033L22.3178 155.774C23.0808 155.017 23.8437 154.282 24.6269 153.558C26.4443 151.865 28.3159 150.244 30.2416 148.695C31.1875 147.927 32.1435 147.182 33.1199 146.447C34.0963 145.712 34.8896 145.139 35.7846 144.502C37.2186 143.486 38.6729 142.503 40.1577 141.574L40.8798 141.12C42.334 140.212 43.8188 139.337 45.3136 138.516C49.2578 136.311 53.334 134.385 57.516 132.749C69.3672 128.066 81.9114 125.683 94.5529 125.712C95.626 125.712 96.6982 125.651 97.7653 125.531C100.564 125.21 103.304 124.458 105.899 123.298C112.974 120.19 118.646 114.291 121.728 106.836C122.934 103.912 123.711 100.808 124.032 97.6327C124.138 96.638 124.193 95.6378 124.196 94.6367C124.197 94.4961 124.197 94.3555 124.197 94.2148L124.213 71.7063C124.217 66.5053 124.93 61.3325 126.328 56.3487C126.46 55.8837 126.593 55.4187 126.735 54.9645C129.819 44.9171 135.608 36.0543 143.383 29.4759C151.158 22.8976 160.578 18.8935 170.472 17.9606C171.489 17.864 172.505 17.7998 173.522 17.7681L175.036 17.7692L472.878 17.9801C474.006 17.9809 475.114 17.9817 476.222 18.1014C478.978 18.2842 481.715 18.7131 484.404 19.3835C493.265 21.5879 501.404 26.29 507.967 32.9962C508.242 33.2668 508.506 33.5483 508.77 33.8297C517.881 43.5171 523.176 56.5378 523.575 70.2368L523.574 72.0431C523.574 72.0431 523.573 73.1248 523.573 73.579C523.639 76.1177 523.875 78.648 524.279 81.1509C524.36 81.681 524.461 82.2327 524.552 82.7411C524.745 83.7471 524.968 84.7532 525.201 85.7377C525.98 88.9019 527.029 91.9837 528.335 94.9445C528.782 95.9615 529.259 96.9678 529.756 97.9416C529.99 98.4069 530.233 98.8613 530.487 99.3158C532.008 102.09 533.762 104.712 535.727 107.15C537.175 108.956 538.736 110.656 540.399 112.237C541.141 112.952 541.903 113.634 542.675 114.305C545.508 116.697 548.574 118.758 551.819 120.455C552.459 120.802 553.11 121.127 553.77 121.441C560.246 124.503 567.255 126.081 574.342 126.074L722.896 126.179C725.814 126.181 728.69 126.345 731.536 126.65C741.81 127.77 751.802 130.898 761.009 135.876C767.442 139.344 773.434 143.67 778.84 148.749C779.327 149.214 779.805 149.669 780.282 150.145C780.76 150.621 781.085 150.935 781.471 151.347C782.354 152.245 783.208 153.154 784.02 154.096C784.345 154.431 784.64 154.778 784.934 155.124C784.976 155.151 785.01 155.188 785.036 155.232C785.351 155.589 785.656 155.946 785.94 156.314C786.224 156.682 786.671 157.18 787.016 157.624C787.524 158.241 788.032 158.869 788.499 159.507C788.865 159.972 789.22 160.449 789.515 160.936C789.809 161.422 790.195 161.866 790.53 162.342C790.865 162.818 791.221 163.316 791.546 163.814C791.695 164.023 791.837 164.229 791.972 164.431C792.632 165.426 793.272 166.433 793.891 167.461C794.298 168.143 794.704 168.824 795.1 169.517C795.79 170.729 796.45 171.962 797.13 173.207C798.044 175.017 798.903 176.856 799.708 178.725C800.432 180.391 801.109 182.086 801.738 183.81C802.828 186.817 803.76 189.887 804.526 193.005C804.952 194.682 805.327 196.381 805.651 198.09C806.235 201.132 806.664 204.205 806.936 207.295C807.208 210.225 807.341 213.167 807.336 216.111L807.284 289.997C807.27 297.738 808.691 305.406 811.464 312.562C814.238 319.718 818.31 326.222 823.447 331.702C828.585 337.183 834.687 341.532 841.406 344.501C848.124 347.47 855.327 349.001 862.602 349.006L947.105 349.066C955.443 349.076 963.645 351.314 970.958 355.573C974.514 357.64 977.823 360.156 980.813 363.064C981.372 363.606 981.921 364.147 982.449 364.731C983.69 366.055 984.866 367.446 985.973 368.898C993.162 378.374 997.078 390.187 997.07 402.366C997.061 414.544 993.128 426.352 985.926 435.818C984.817 437.269 983.638 438.658 982.396 439.98C974.615 448.276 964.469 453.594 953.546 455.102C951.386 455.405 949.209 455.555 947.03 455.552C944.041 455.551 941.066 456 938.195 456.887C935.316 457.787 932.575 459.13 930.06 460.872C929.277 461.402 928.525 461.953 927.792 462.569C924.017 465.689 920.961 469.686 918.86 474.255C916.758 478.824 915.666 483.844 915.667 488.93L915.591 595.719C915.606 611.597 910.419 626.984 900.922 639.233C899.586 640.974 898.167 642.641 896.67 644.227C893.725 647.358 890.499 650.175 887.037 652.636C886.336 653.154 885.624 653.64 884.902 654.116C883.885 654.786 882.868 655.423 881.78 656.028L880.295 656.86C880.17 656.937 880.041 657.005 879.908 657.065C879.41 657.335 878.892 657.594 878.403 657.843C878.349 657.885 878.286 657.914 878.22 657.929C877.661 658.21 877.102 658.48 876.543 658.728C875.983 658.977 875.343 659.268 874.743 659.517C872.87 660.316 870.959 661.011 869.018 661.6C866.851 662.27 864.652 662.817 862.43 663.24C859.724 663.744 856.991 664.067 854.246 664.207C853.23 664.207 852.122 664.292 851.054 664.292C840.252 664.279 829.823 668.497 821.756 676.141C813.689 683.786 808.549 694.322 807.315 705.741C807.121 707.5 807.025 709.27 807.026 711.041C807.039 723.42 811.664 735.289 819.888 744.046C828.111 752.802 839.262 757.732 850.897 757.755L920.549 757.804C923.63 757.803 926.707 758.033 929.758 758.492C932.501 758.89 935.217 759.478 937.889 760.25C938.794 760.51 939.688 760.792 940.582 761.085C950.882 764.537 960.243 770.593 967.863 778.735Z" fill="#F1DBF2"/>
<path d="M42.3339 148.711L42.2064 328.802C39.4125 326.505 36.7322 324.053 34.1765 321.454L34.2936 156.025L34.555 155.766C35.3088 155.009 36.0626 154.274 36.8365 153.551C38.6322 151.872 40.4646 150.259 42.3339 148.711Z" fill="#EFF1FD"/>
<path d="M33.839 798.432C35.993 793.374 38.6933 788.608 41.8841 784.231L41.8218 872.211C38.9913 868.348 36.5468 864.175 34.5288 859.761C34.258 859.177 33.9973 858.593 33.7466 857.998L33.839 798.432Z" fill="#EFF1FD"/>
<path d="M117.169 123.322L117.007 351.864L108.972 351.858L109.132 125.576C111.898 125.248 114.606 124.489 117.169 123.322Z" fill="#EFF1FD"/>
<path d="M116.437 461.847C116.587 461.75 116.738 461.652 116.899 461.566L116.766 649.237C113.988 647.526 111.311 645.672 108.735 643.673L108.86 467.107C111.312 465.22 113.837 463.467 116.437 461.847Z" fill="#EFF1FD"/>
<path d="M108.635 757.052L116.72 757.058L116.619 899.468L108.534 899.462L108.635 757.052Z" fill="#EFF1FD"/>
<path d="M192.02 17.7811L191.783 351.884L183.698 351.878L183.935 17.7754L185.431 17.7765L192.02 17.7811Z" fill="#EFF1FD"/>
<path d="M183.63 447.287L191.716 447.292L191.561 665.173C188.916 664.405 186.209 663.911 183.477 663.697L183.63 447.287Z" fill="#EFF1FD"/>
<path d="M183.411 756.975C186.144 756.767 188.852 756.276 191.497 755.511L191.395 899.521L183.31 899.515L183.411 756.975Z" fill="#EFF1FD"/>
<path d="M266.786 17.8341L266.543 360.771C264.022 358.826 261.312 357.182 258.461 355.867L258.701 17.8284L266.786 17.8341Z" fill="#EFF1FD"/>
<path d="M258.399 443.437C261.247 442.121 263.959 440.485 266.488 438.555L266.161 899.574L258.076 899.568L258.399 443.437Z" fill="#EFF1FD"/>
<path d="M333.477 17.8812L341.562 17.887L340.938 899.627L332.853 899.621L333.477 17.8812Z" fill="#EFF1FD"/>
<path d="M408.253 17.9342L416.338 17.9399L415.714 899.68L407.629 899.674L408.253 17.9342Z" fill="#EFF1FD"/>
<path d="M491.104 19.3877L490.48 899.733L482.395 899.727L483.02 18.1061C485.743 18.2888 488.447 18.7175 491.104 19.3877Z" fill="#EFF1FD"/>
<path d="M565.806 123.878L565.256 899.786L557.221 899.78L557.773 120.488C558.405 120.834 559.048 121.159 559.701 121.473C561.685 122.418 563.724 123.221 565.806 123.878Z" fill="#EFF1FD"/>
<path d="M632.495 126.109L640.58 126.115L640.032 899.839L631.947 899.833L632.495 126.109Z" fill="#EFF1FD"/>
<path d="M707.261 126.162L715.346 126.168L714.799 899.891L706.713 899.886L707.261 126.162Z" fill="#EFF1FD"/>
<path d="M790.101 157.631L789.575 899.944L781.54 899.939L782.072 148.759C782.554 149.224 783.025 149.678 783.497 150.154C783.969 150.631 784.29 150.944 784.671 151.355C785.544 152.254 786.387 153.162 787.19 154.104C787.511 154.439 787.803 154.785 788.094 155.131C788.134 155.159 788.169 155.196 788.194 155.24C788.505 155.597 788.806 155.954 789.087 156.322C789.368 156.689 789.759 157.187 790.101 157.631Z" fill="#EFF1FD"/>
<path d="M864.782 348.944L864.559 663.001C861.885 663.505 859.185 663.828 856.473 663.968L856.697 348.246C859.372 348.693 862.074 348.926 864.782 348.944Z" fill="#EFF1FD"/>
<path d="M856.367 757.582L864.452 757.587L864.351 899.997L856.266 899.992L856.367 757.582Z" fill="#EFF1FD"/>
<path d="M939.508 348.997L939.431 456.721C936.586 457.621 933.879 458.963 931.394 460.705L931.473 348.991L939.508 348.997Z" fill="#EFF1FD"/>
<path d="M939.216 760.073L939.119 897.618C936.478 898.39 933.794 898.976 931.083 899.374L931.183 758.316C933.893 758.714 936.577 759.301 939.216 760.073Z" fill="#EFF1FD"/>
<path d="M134.307 278.05L433.837 278.262L414.134 255.188L154.054 255.004L134.307 278.05Z" fill="#D2D6FA"/>
<path d="M377.737 278.223L377.715 309.183L356.685 323.958L356.717 278.208L377.737 278.223Z" fill="#D2D6FA"/>
<path d="M216.538 278.109L216.505 323.859L195.496 309.054L195.518 278.094L216.538 278.109Z" fill="#D2D6FA"/>
<path d="M195.518 278.094L216.538 278.109L216.531 287.679L195.511 287.664L195.518 278.094Z" fill="#969ECC"/>
<path d="M356.717 278.208L377.737 278.223L377.73 287.793L356.711 287.778L356.717 278.208Z" fill="#969ECC"/>
<path d="M651.121 273.756L765.231 273.837L765.14 401.977L651.03 401.896L651.121 273.756Z" fill="#D2D6FA"/>
<g filter="url(#filter0_d_202_283)">
<path d="M251.294 84.8231L365.404 84.9039L365.314 213.044L251.204 212.963L251.294 84.8231Z" fill="#D2D6FA"/>
</g>
<path d="M661.103 284.973L755.243 285.04L755.168 390.75L661.028 390.683L661.103 284.973Z" fill="#F3F4FE"/>
<path d="M261.786 96.3306L354.926 96.3965L354.852 201.107L261.712 201.041L261.786 96.3306Z" fill="#F3F4FE" stroke="black"/>
<path d="M688.988 319.523L714.205 366.131L669.223 369.089L688.988 319.523Z" fill="#D2D6FA"/>
<path d="M744.154 297.272L726.531 329.13L708.149 304.197L744.154 297.272Z" fill="#D2D6FA"/>
<path d="M741.361 344.35L737.655 366.348L721.963 355.676L741.361 344.35Z" fill="#D2D6FA"/>
<path d="M285.987 129.146L311.225 175.742L266.245 178.721L285.987 129.146Z" fill="#D2D6FA"/>
<path d="M341.142 106.869L323.534 138.735L305.14 113.811L341.142 106.869Z" fill="#D2D6FA"/>
<path d="M338.37 153.949L334.675 175.948L318.978 165.284L338.37 153.949Z" fill="#D2D6FA"/>
<path d="M527.429 290.169C542.164 290.179 554.118 278.243 554.128 263.508C554.139 248.773 542.202 236.819 527.467 236.809C512.732 236.798 500.779 248.735 500.768 263.47C500.758 278.205 512.694 290.158 527.429 290.169Z" fill="#332D52"/>
<path d="M530.595 415.14C544.594 404.407 547.241 384.358 536.507 370.359C525.773 356.36 505.724 353.714 491.726 364.447L410.567 426.676C396.568 437.409 393.922 457.459 404.655 471.457C415.389 485.456 435.438 488.103 449.436 477.369L530.595 415.14Z" fill="#FAEEDE"/>
<path d="M430.082 483.96C449.014 483.973 464.373 468.636 464.386 449.704C464.4 430.772 449.063 415.413 430.131 415.4C411.198 415.386 395.84 430.723 395.826 449.656C395.813 468.588 411.15 483.946 430.082 483.96Z" fill="#F2E6D7"/>
<path d="M361.699 324.396L361.69 324.4C348.801 331.181 343.85 347.127 350.631 360.016L403.435 460.383C410.216 473.271 426.162 478.223 439.051 471.442L439.059 471.437C451.948 464.656 456.9 448.711 450.119 435.822L397.314 335.455C390.533 322.566 374.588 317.615 361.699 324.396Z" fill="#EF948C"/>
<path d="M361.622 368.523C374.856 374.277 390.248 368.216 396.002 354.984C401.755 341.752 395.691 326.361 382.457 320.606L361.502 311.495C348.268 305.74 332.875 311.802 327.122 325.033C321.368 338.265 327.433 353.656 340.667 359.411L361.622 368.523Z" fill="#EF948C"/>
<path d="M370.287 335.917C375.073 337.998 380.64 335.805 382.721 331.019C384.803 326.233 382.61 320.665 377.824 318.584L329.302 297.486C324.516 295.405 318.949 297.598 316.868 302.384C314.787 307.17 316.979 312.737 321.766 314.818L370.287 335.917Z" fill="#EF948C"/>
<path d="M373.704 334.222C376.588 338.572 382.452 339.76 386.802 336.875C391.152 333.991 392.34 328.127 389.455 323.777L373.19 299.25C370.306 294.9 364.442 293.712 360.092 296.597C355.743 299.481 354.555 305.345 357.439 309.695L373.704 334.222Z" fill="#EA8681"/>
<path d="M375.894 353.821C386.177 353.829 394.52 345.498 394.527 335.215C394.534 324.931 386.204 316.589 375.92 316.581C365.637 316.574 357.294 324.905 357.287 335.188C357.28 345.472 365.61 353.814 375.894 353.821Z" fill="#EA8681"/>
<path d="M530.595 415.14C544.594 404.407 547.241 384.358 536.507 370.359C525.773 356.36 505.724 353.714 491.726 364.447L410.567 426.676C396.568 437.409 393.922 457.459 404.655 471.457C415.389 485.456 435.438 488.103 449.436 477.369L530.595 415.14Z" fill="#7B1481"/>
<path d="M430.082 483.96C449.014 483.973 464.373 468.636 464.386 449.704C464.4 430.772 449.063 415.413 430.131 415.4C411.198 415.386 395.84 430.723 395.826 449.656C395.813 468.588 411.15 483.946 430.082 483.96Z" fill="#894B8D"/>
<path d="M361.7 324.396L361.691 324.4C348.802 331.181 343.851 347.127 350.632 360.016L403.436 460.383C410.217 473.271 426.162 478.223 439.051 471.442L439.06 471.437C451.949 464.656 456.9 448.711 450.119 435.822L397.315 335.455C390.534 322.566 374.588 317.615 361.7 324.396Z" fill="#EF948C"/>
<path d="M361.622 368.523C374.856 374.277 390.248 368.216 396.002 354.984C401.755 341.752 395.691 326.361 382.457 320.606L361.502 311.495C348.268 305.74 332.875 311.802 327.122 325.033C321.368 338.265 327.433 353.656 340.667 359.411L361.622 368.523Z" fill="#EF948C"/>
<path d="M327.124 325.007C328.062 322.856 329.281 320.84 330.749 319.009C328.877 325.141 329.33 331.746 332.021 337.565C334.712 343.383 339.452 348.006 345.336 350.55L347.885 351.652L357.812 355.969L365.043 369.704L408.105 451.564C410.142 455.439 413.111 458.746 416.745 461.187C420.379 463.629 424.563 465.128 428.92 465.55C433.278 465.971 437.672 465.302 441.706 463.603C445.741 461.904 449.289 459.228 452.032 455.815C450.506 460.816 447.53 465.25 443.48 468.556C439.43 471.861 434.489 473.889 429.284 474.381C424.08 474.874 418.846 473.809 414.248 471.321C409.65 468.834 405.894 465.037 403.458 460.411L353.176 364.815L340.69 359.387C337.538 358.025 334.686 356.054 332.297 353.587C329.908 351.121 328.03 348.207 326.77 345.013C325.51 341.819 324.892 338.408 324.953 334.975C325.014 331.542 325.752 328.154 327.124 325.007Z" fill="#EA8681"/>
<path d="M370.288 335.917C375.074 337.998 380.641 335.805 382.722 331.019C384.803 326.233 382.61 320.665 377.824 318.584L329.303 297.486C324.516 295.405 318.949 297.598 316.868 302.384C314.787 307.17 316.98 312.737 321.766 314.818L370.288 335.917Z" fill="#EF948C"/>
<path d="M373.704 334.222C376.588 338.572 382.452 339.76 386.802 336.875C391.152 333.991 392.34 328.127 389.455 323.777L373.19 299.25C370.306 294.9 364.442 293.712 360.092 296.597C355.743 299.481 354.555 305.345 357.439 309.695L373.704 334.222Z" fill="#EF948C"/>
<path d="M375.894 353.821C386.177 353.829 394.52 345.498 394.527 335.215C394.534 324.931 386.204 316.589 375.92 316.581C365.637 316.574 357.294 324.905 357.287 335.188C357.28 345.472 365.61 353.814 375.894 353.821Z" fill="#EF948C"/>
<path d="M529.107 448.39C556.755 448.409 579.183 426.013 579.203 398.365C579.222 370.718 556.826 348.29 529.178 348.27C501.531 348.25 479.102 370.647 479.083 398.294C479.063 425.942 501.46 448.37 529.107 448.39Z" fill="#894B8D"/>
<path d="M509.858 414.225L513.364 573.727C514 602.659 537.971 625.598 566.903 624.962L613.082 623.947C642.015 623.311 664.954 599.341 664.318 570.408L660.811 410.907C660.175 381.974 636.205 359.035 607.272 359.671L561.093 360.686C532.161 361.322 509.222 385.293 509.858 414.225Z" fill="#83108A"/>
<path d="M488.666 396.093C488.38 381.268 493.995 366.935 504.276 356.25C514.558 345.564 528.663 339.4 543.488 339.114L627.62 337.491C642.445 337.205 656.778 342.82 667.463 353.102C678.149 363.383 684.313 377.488 684.599 392.314C684.832 404.426 682.678 416.465 678.259 427.744C673.84 439.024 667.242 449.322 658.843 458.052C650.444 466.782 640.407 473.772 629.307 478.623C618.206 483.473 606.259 486.09 594.147 486.324L582.667 486.546C558.207 487.015 534.563 477.749 516.934 460.786C499.306 443.823 489.138 420.553 488.666 396.093Z" fill="#7B1481"/>
<path d="M592.581 485.335L592.671 485.335C617.12 484.796 640.355 474.569 657.265 456.903C674.176 439.237 683.378 415.578 682.848 391.129C682.522 376.307 676.323 362.221 665.612 351.971C654.902 341.72 640.558 336.143 625.736 336.468L541.625 338.319C537.782 338.4 533.958 338.88 530.214 339.751L610.955 337.968L612.255 337.969C626.85 337.986 640.859 343.709 651.289 353.917C661.72 364.125 667.745 378.008 668.077 392.598C668.556 414.503 661.222 435.864 647.389 452.856C633.557 469.847 614.128 481.361 592.581 485.335Z" fill="#894B8D"/>
<path d="M555.494 297.469L556.54 345.109C556.687 352.243 559.625 359.036 564.724 364.027C569.823 369.019 576.676 371.813 583.811 371.809L584.431 371.809C588.016 371.73 591.551 370.945 594.832 369.499C598.114 368.053 601.078 365.975 603.556 363.383C606.033 360.79 607.976 357.735 609.272 354.392C610.569 351.049 611.194 347.483 611.111 343.898L610.763 327.578L610.065 296.267C609.911 289.136 606.97 282.348 601.873 277.358C596.776 272.367 589.927 269.571 582.794 269.568L582.164 269.567C574.929 269.735 568.056 272.768 563.056 278C558.055 283.231 555.335 290.233 555.494 297.469Z" fill="#EF948C"/>
<path d="M382.197 584.069L382.289 588.258C382.784 610.764 401.43 628.607 423.935 628.112L624.727 623.698C647.232 623.203 665.076 604.558 664.581 582.052L664.489 577.863C663.994 555.357 645.349 537.514 622.843 538.009L422.051 542.423C399.546 542.918 381.702 561.563 382.197 584.069Z" fill="#332D52"/>
<path d="M579.071 583.955L578.89 839.845L664.61 839.906L664.791 584.016C664.799 572.649 660.291 561.744 652.259 553.701C644.227 545.657 633.329 541.134 621.962 541.126C610.594 541.118 599.69 545.626 591.646 553.658C583.603 561.69 579.079 572.588 579.071 583.955Z" fill="#666DA2"/>
<path d="M579.071 583.955L578.89 839.845L601.18 839.861L601.334 622.911C601.342 615.473 603.286 608.164 606.974 601.704C610.662 595.244 615.968 589.855 622.369 586.066C628.771 582.278 636.048 580.22 643.486 580.096C650.923 579.971 658.265 581.784 664.79 585.356L664.791 584.016C664.799 572.649 660.291 561.744 652.259 553.701C644.227 545.657 633.329 541.134 621.962 541.126C610.594 541.118 599.69 545.626 591.646 553.658C583.603 561.69 579.079 572.588 579.071 583.955Z" fill="#555A8B"/>
<path d="M578.916 802.985L578.89 839.845L664.61 839.906L664.626 816.506L578.916 802.985Z" fill="#141334"/>
<path d="M295.49 810.935L371.879 841.619L380.524 819.255L464.829 601.315C466.859 596.063 467.835 590.463 467.7 584.835C467.566 579.206 466.325 573.659 464.047 568.51C461.769 563.362 458.499 558.712 454.425 554.827C450.35 550.942 445.55 547.897 440.298 545.867C435.047 543.837 429.447 542.861 423.818 542.995C418.19 543.13 412.643 544.371 407.494 546.649C402.345 548.927 397.695 552.197 393.81 556.271C389.925 560.346 386.881 565.146 384.851 570.398L305.856 774.722L295.527 801.385L295.49 810.935Z" fill="#332D52"/>
<path d="M347.099 876.086L287.14 852.889L299.848 820.041L359.807 843.238L347.099 876.086Z" fill="#EA8681"/>
<path d="M653.872 879.498L589.582 879.453L589.605 846.533L653.895 846.578L653.872 879.498Z" fill="#EF948C"/>
<path d="M555.494 297.469L556.54 345.109C556.59 347.609 556.985 350.089 557.715 352.48L559.715 352.482C569.561 352.494 579.278 350.25 588.122 345.923C596.966 341.595 604.701 335.299 610.733 327.518L610.035 296.207C609.881 289.076 606.94 282.288 601.843 277.298C596.746 272.307 589.897 269.511 582.764 269.508L582.164 269.508C578.576 269.591 575.04 270.38 571.758 271.83C568.475 273.281 565.511 275.364 563.034 277.961C560.557 280.558 558.616 283.617 557.323 286.964C556.029 290.312 555.407 293.881 555.494 297.469Z" fill="#EA8681"/>
<path d="M508.16 275.115C508.149 291.621 514.46 307.504 525.796 319.501C537.133 331.497 552.634 338.696 569.114 339.618C570.264 339.679 571.414 339.71 572.584 339.711C581.128 339.823 589.609 338.238 597.535 335.048C605.462 331.857 612.676 327.125 618.76 321.125C624.843 315.125 629.675 307.978 632.975 300.096C636.275 292.215 637.977 283.756 637.983 275.212C637.989 266.668 636.299 258.207 633.01 250.321C629.721 242.435 624.9 235.28 618.825 229.271C612.749 223.263 605.542 218.521 597.62 215.319C589.698 212.117 581.219 210.52 572.676 210.621C571.506 210.62 570.356 210.619 569.205 210.708C552.725 211.604 537.214 218.779 525.86 230.758C514.506 242.737 508.172 258.61 508.16 275.115Z" fill="#EF948C"/>
<path d="M546.057 292.562C546.058 294.454 546.433 296.328 547.159 298.075C547.885 299.823 548.949 301.41 550.29 302.745C550.62 303.075 550.97 303.385 551.29 303.676C553.87 305.803 557.113 306.962 560.457 306.952L561.047 306.953C564.661 306.939 568.138 305.571 570.792 303.117C573.445 300.664 575.081 297.304 575.377 293.703C575.377 293.303 575.377 292.903 575.377 292.503C575.381 292.132 575.31 291.763 575.17 291.42C575.029 291.076 574.821 290.764 574.559 290.502C574.026 289.977 573.307 289.685 572.559 289.691L548.739 289.734C548.012 289.762 547.324 290.073 546.823 290.602C546.322 291.13 546.047 291.834 546.057 292.562Z" fill="#962F4A"/>
<path d="M560.779 304.732C560.78 305.478 560.854 306.221 560.997 306.952L561.077 306.952C564.693 306.944 568.172 305.577 570.827 303.123C573.481 300.668 575.116 297.306 575.407 293.703C574.371 293.399 573.297 293.246 572.217 293.25C570.712 293.253 569.223 293.553 567.833 294.131C566.444 294.71 565.182 295.556 564.12 296.622C563.058 297.689 562.216 298.954 561.643 300.345C561.07 301.737 560.776 303.227 560.779 304.732Z" fill="#E1617F"/>
<path d="M549.37 289.764C549.488 292.594 553.856 294.847 559.216 294.841C564.576 294.835 568.928 292.558 569.03 289.728L549.37 289.764Z" fill="white"/>
<path d="M508.16 275.115C508.149 291.621 514.46 307.504 525.797 319.501C537.133 331.497 552.634 338.696 569.114 339.618C570.894 339.519 572.664 339.361 574.415 339.112C558.962 336.979 544.805 329.323 534.561 317.56C524.317 305.796 518.68 290.721 518.691 275.122C518.702 259.524 524.361 244.457 534.621 232.708C544.882 220.959 559.05 213.323 574.505 211.212C572.755 210.971 570.985 210.799 569.206 210.708C552.725 211.604 537.214 218.779 525.86 230.758C514.506 242.737 508.172 258.61 508.16 275.115Z" fill="#EA8681"/>
<path d="M625.878 390.008L625.878 390.678C626.493 411.999 640.701 428.909 658.061 429.181L659.181 429.182C677.241 428.725 691.594 410.425 691.21 388.325C691.018 376.085 688.425 366.183 681.23 359.028C676.927 355.055 671.811 352.065 666.237 350.267C661.684 348.914 656.855 348.787 652.237 349.897C636.994 353.566 625.572 370.268 625.878 390.008Z" fill="#894B8D"/>
<path d="M624.589 389.178L624.589 389.858C625.128 405.248 632.698 418.413 643.454 424.871C637.848 417.337 634.711 408.253 634.472 398.865C634.472 398.635 634.473 398.415 634.473 398.185C634.057 378.124 645.739 361.193 661.502 357.564C663.41 357.111 665.361 356.864 667.322 356.828C670.255 356.772 673.179 357.168 675.991 358.004C678.447 358.737 680.798 359.78 682.989 361.109C678.793 355.379 672.88 351.136 666.108 348.997C661.399 347.587 656.403 347.436 651.618 348.557C635.845 352.216 624.163 369.087 624.589 389.178Z" fill="#894B8D"/>
<path d="M695.943 378.453C688.519 362.451 669.529 355.498 653.527 362.922C637.526 370.346 630.572 389.336 637.996 405.338L681.038 498.109C688.463 514.111 707.453 521.064 723.454 513.64C739.456 506.216 746.409 487.226 738.985 471.224L695.943 378.453Z" fill="#FAEEDE"/>
<path d="M707.707 518.376C726.64 518.39 741.998 503.053 742.012 484.121C742.025 465.188 726.688 449.83 707.756 449.816C688.824 449.803 673.465 465.14 673.452 484.072C673.438 503.004 688.775 518.363 707.707 518.376Z" fill="#F2E6D7"/>
<path d="M695.943 378.453C688.519 362.451 669.529 355.498 653.527 362.922C637.526 370.346 630.572 389.336 637.996 405.338L681.038 498.109C688.463 514.111 707.453 521.064 723.454 513.64C739.456 506.216 746.409 487.226 738.985 471.224L695.943 378.453Z" fill="#7B1481"/>
<path d="M636.794 381.456C639.867 376.613 644.188 372.687 649.302 370.089C654.417 367.492 660.136 366.321 665.86 366.697C671.583 367.074 677.1 368.984 681.83 372.229C686.56 375.473 690.329 379.932 692.742 385.136L735.776 477.906C739.266 485.407 739.704 493.97 736.999 501.787C740.249 496.672 741.987 490.741 742.011 484.681C742.01 480.038 740.989 475.453 739.021 471.249L695.986 378.478C693.314 372.7 688.975 367.853 683.527 364.559C678.079 361.265 671.77 359.675 665.412 359.993C659.054 360.311 652.936 362.523 647.843 366.344C642.751 370.164 638.917 375.42 636.834 381.436L636.794 381.456Z" fill="#833187"/>
<path d="M707.707 518.376C726.64 518.39 741.998 503.053 742.012 484.121C742.025 465.188 726.688 449.83 707.756 449.816C688.824 449.803 673.465 465.14 673.452 484.072C673.438 503.004 688.775 518.363 707.707 518.376Z" fill="#894B8D"/>
<path d="M522.72 260.325L619.04 260.394C636.117 260.406 649.97 246.572 649.982 229.496C649.994 212.419 636.16 198.566 619.084 198.554L522.764 198.485C505.687 198.473 491.834 212.307 491.822 229.384C491.81 246.46 505.643 260.313 522.72 260.325Z" fill="#332D52"/>
<path d="M631.889 290.243C646.624 290.253 658.578 278.317 658.588 263.582C658.599 248.847 646.662 236.893 631.927 236.883C617.192 236.872 605.239 248.809 605.228 263.544C605.218 278.279 617.154 290.232 631.889 290.243Z" fill="#332D52"/>
<path d="M636.659 290.246C648.76 290.255 658.576 280.452 658.585 268.352C658.593 256.251 648.791 246.435 636.69 246.426C624.59 246.417 614.773 256.22 614.765 268.321C614.756 280.421 624.559 290.237 636.659 290.246Z" fill="#49466B"/>
<path d="M637.175 296.606C648.988 296.615 658.571 287.045 658.58 275.232C658.588 263.418 649.018 253.835 637.205 253.826C625.392 253.818 615.808 263.388 615.8 275.201C615.791 287.015 625.361 296.598 637.175 296.606Z" fill="#EF948C"/>
<path d="M635.505 281.875L635.514 268.535C635.515 268.202 635.595 267.873 635.747 267.577C635.899 267.28 636.12 267.024 636.39 266.829C636.661 266.634 636.973 266.506 637.303 266.455C637.632 266.405 637.969 266.433 638.286 266.537C640.125 267.128 641.73 268.288 642.868 269.85C644.005 271.412 644.618 273.294 644.616 275.227C644.615 277.159 644 279.041 642.86 280.601C641.72 282.161 640.114 283.319 638.273 283.907C637.954 284.01 637.615 284.035 637.285 283.981C636.954 283.928 636.64 283.796 636.37 283.598C636.1 283.4 635.881 283.14 635.73 282.841C635.58 282.541 635.503 282.21 635.505 281.875Z" fill="#EA8681"/>
<path d="M527.45 260.879C550.022 260.895 568.333 242.609 568.349 220.038C568.365 197.466 550.08 179.155 527.508 179.139C504.936 179.123 486.625 197.408 486.609 219.98C486.593 242.552 504.878 260.863 527.45 260.879Z" fill="#332D52"/>
<path d="M490.329 219.992C490.321 224.829 491.339 229.613 493.316 234.028C495.292 238.442 498.183 242.387 501.796 245.603C505.409 248.819 509.664 251.231 514.278 252.682C518.892 254.133 523.761 254.589 528.565 254.02C520.254 253.024 512.597 249.015 507.044 242.752C501.491 236.49 498.427 228.408 498.433 220.038C498.439 211.668 501.514 203.591 507.076 197.336C512.638 191.081 520.301 187.084 528.613 186.1C523.81 185.524 518.94 185.972 514.324 187.417C509.708 188.861 505.45 191.268 501.832 194.478C498.214 197.689 495.319 201.63 493.336 206.042C491.353 210.453 490.328 215.236 490.329 220.072L490.329 219.992Z" fill="#49466B"/>
<path d="M559.836 223.432C575.366 223.443 587.965 210.862 587.976 195.332C587.987 179.801 575.406 167.203 559.876 167.192C544.346 167.181 531.747 179.762 531.736 195.292C531.725 210.822 544.306 223.421 559.836 223.432Z" fill="#332D52"/>
<path d="M528.553 270.08C528.623 272.044 529.452 273.904 530.866 275.269C532.279 276.634 534.167 277.398 536.133 277.4C538.098 277.401 539.987 276.64 541.403 275.277C542.819 273.913 543.65 272.054 543.723 270.09C543.726 269.497 543.656 268.906 543.514 268.33C543.119 269.99 542.176 271.467 540.836 272.524C539.497 273.581 537.841 274.155 536.135 274.154C534.429 274.153 532.774 273.576 531.436 272.517C530.098 271.459 529.157 269.98 528.764 268.32C528.622 268.895 528.551 269.487 528.553 270.08Z" fill="#332D52"/>
<path d="M570.223 270.109C570.222 272.122 571.02 274.053 572.442 275.478C573.865 276.902 575.795 277.703 577.808 277.704C579.821 277.706 581.752 276.908 583.176 275.485C584.601 274.063 585.401 272.133 585.403 270.12C585.406 269.527 585.336 268.936 585.194 268.36C584.795 270.017 583.849 271.491 582.51 272.546C581.17 273.6 579.515 274.173 577.81 274.171C576.105 274.17 574.451 273.595 573.113 272.539C571.775 271.483 570.831 270.007 570.434 268.349C570.292 268.925 570.221 269.516 570.223 270.109Z" fill="#332D52"/>
<path d="M578.86 895.795L660.54 895.853C660.548 885.022 656.252 874.631 648.599 866.966C640.945 859.302 630.561 854.992 619.729 854.984C608.898 854.977 598.507 859.272 590.842 866.925C583.178 874.579 578.868 884.964 578.86 895.795Z" fill="#332D52"/>
<path d="M578.86 895.795L597.72 895.809C597.731 886.918 600.53 878.254 605.723 871.037C610.916 863.82 618.242 858.414 626.669 855.579C620.807 854.576 614.797 854.863 609.057 856.421C603.317 857.978 597.986 860.768 593.435 864.597C588.884 868.425 585.222 873.2 582.705 878.588C580.188 883.976 578.876 889.848 578.86 895.795Z" fill="#49466B"/>
<path d="M567.556 888.397C567.559 889.196 567.638 889.993 567.794 890.777C567.87 891.159 567.967 891.536 568.083 891.908C568.195 892.275 568.329 892.636 568.482 892.988C568.92 894.04 569.513 895.021 570.24 895.899C570.48 896.189 570.73 896.459 571 896.73C571.265 896.996 571.545 897.246 571.839 897.48C573.946 899.222 576.594 900.176 579.327 900.176L666.487 900.237C668.805 900.244 671.033 899.343 672.695 897.728C674.357 896.112 675.321 893.911 675.38 891.594C675.439 889.277 674.589 887.029 673.012 885.331C671.434 883.632 669.255 882.619 666.94 882.508L601.603 878.071L579.914 876.616C577.962 876.515 576.015 876.905 574.253 877.752C573.741 878.002 573.247 878.285 572.773 878.601C572.311 878.909 571.866 879.242 571.442 879.6C571.021 879.98 570.63 880.391 570.271 880.829C570.031 881.119 569.801 881.419 569.59 881.729C568.833 882.843 568.277 884.081 567.948 885.388C567.846 885.763 567.766 886.143 567.707 886.527C567.607 887.146 567.557 887.771 567.556 888.397Z" fill="#332D52"/>
<path d="M567.556 888.397C567.559 889.196 567.638 889.993 567.794 890.777C567.866 891.16 567.962 891.538 568.083 891.908C568.191 892.277 568.324 892.638 568.482 892.988C568.92 894.04 569.513 895.021 570.24 895.899C570.48 896.189 570.73 896.459 571 896.73C571.265 896.996 571.545 897.246 571.839 897.48C573.946 899.222 576.594 900.176 579.327 900.176L607.277 900.195C604.663 900.196 602.122 899.326 600.056 897.724C597.99 896.121 596.516 893.877 595.866 891.344C595.216 888.812 595.427 886.135 596.465 883.736C597.504 881.336 599.311 879.35 601.603 878.091L579.914 876.636C577.962 876.535 576.015 876.925 574.253 877.772C573.231 878.265 572.284 878.9 571.442 879.66C571.021 880.04 570.63 880.451 570.271 880.889C570.027 881.175 569.799 881.476 569.59 881.789C568.833 882.903 568.277 884.141 567.948 885.448C567.846 885.823 567.766 886.203 567.707 886.587C567.61 887.186 567.56 887.791 567.556 888.397Z" fill="#49466B"/>
<path d="M350.454 886.388L284.846 858.755L295.265 834.019L350.21 857.162C353.038 858.353 355.277 860.619 356.434 863.461C357.591 866.303 357.573 869.488 356.381 872.316L350.454 886.388Z" fill="#49466B"/>
<path d="M235.265 846.682L310.543 878.385C314.747 868.403 314.813 857.159 310.727 847.128C306.641 837.096 298.738 829.099 288.755 824.895C278.773 820.691 267.529 820.624 257.498 824.71C247.467 828.796 239.469 836.699 235.265 846.682Z" fill="#332D52"/>
<path d="M235.265 846.682L256.419 855.587C259.845 847.448 265.817 840.639 273.439 836.181C281.061 831.722 289.923 829.854 298.696 830.857C293.776 826.852 287.99 824.049 281.798 822.669C275.606 821.289 269.178 821.37 263.023 822.905C256.868 824.441 251.154 827.389 246.336 831.516C241.518 835.643 237.728 840.836 235.265 846.682Z" fill="#49466B"/>
<path d="M355.439 882.807L247.306 830.96C245.868 830.272 244.305 829.882 242.712 829.815C241.119 829.748 239.529 830.005 238.039 830.57C236.548 831.136 235.188 831.998 234.04 833.105C232.892 834.212 231.981 835.54 231.362 837.009C230.76 838.435 230.446 839.965 230.436 841.512C230.426 843.06 230.721 844.594 231.304 846.027C231.887 847.461 232.747 848.765 233.834 849.866C234.921 850.967 236.215 851.843 237.641 852.444L348.158 898.992C350.327 899.904 352.769 899.918 354.949 899.031C357.128 898.144 358.866 896.428 359.781 894.26C360.666 892.159 360.709 889.797 359.901 887.665C359.093 885.533 357.495 883.794 355.439 882.807Z" fill="#332D52"/>
<path d="M231.362 837.019C230.15 839.897 230.131 843.139 231.308 846.031C232.486 848.923 234.763 851.23 237.641 852.444L263.393 863.292C260.922 862.25 258.88 860.397 257.605 858.038C256.33 855.679 255.898 852.956 256.38 850.318C256.862 847.681 258.23 845.286 260.257 843.531C262.284 841.776 264.85 840.765 267.529 840.665L247.316 830.96C245.877 830.27 244.313 829.88 242.718 829.813C241.124 829.745 239.532 830.003 238.04 830.569C236.548 831.136 235.187 832 234.039 833.109C232.891 834.217 231.98 835.548 231.362 837.019Z" fill="#49466B"/>
<path d="M707.708 532.336L714.444 551.581L726.29 585.48L836.407 900.408L861.017 900.425L776.66 585.515L767.584 551.619L762.428 532.375L707.708 532.336Z" fill="#441242"/>
<path d="M714.444 551.581L726.29 585.48L776.66 585.515L767.584 551.619L714.444 551.581Z" fill="#2F073A"/>
<path d="M355.238 532.087L348.474 551.322L336.58 585.204L226.017 899.975L201.407 899.958L286.21 585.168L295.334 551.284L300.518 532.048L355.238 532.087Z" fill="#441242"/>
<path d="M348.474 551.322L336.58 585.204L286.21 585.168L295.334 551.284L348.474 551.322Z" fill="#2F073A"/>
<path d="M831.464 566.314L245.294 565.899C241.406 565.896 237.678 564.349 234.931 561.598C232.184 558.847 230.642 555.117 230.644 551.229L230.658 532.009L846.158 532.444L846.144 551.654C846.144 553.581 845.764 555.489 845.026 557.269C844.288 559.049 843.206 560.666 841.843 562.028C840.48 563.389 838.861 564.469 837.08 565.204C835.299 565.94 833.391 566.317 831.464 566.314Z" fill="#441242"/>
<path d="M170.171 541.006L906.621 541.527C914.044 541.533 920.065 535.52 920.071 528.097C920.076 520.674 914.063 514.653 906.64 514.647L170.19 514.126C162.768 514.121 156.746 520.134 156.741 527.556C156.736 534.979 162.749 541.001 170.171 541.006Z" fill="#D8BA9F"/>
<path d="M156.741 527.556C156.741 531.12 158.155 534.538 160.674 537.06C163.192 539.581 166.608 541.001 170.171 541.006L906.621 541.527C910.186 541.53 913.605 540.116 916.127 537.598C918.65 535.079 920.068 531.661 920.071 528.097C920.075 526.51 919.795 524.935 919.244 523.446C918.291 526.023 916.57 528.246 914.314 529.814C912.058 531.383 909.375 532.221 906.628 532.217L170.178 531.696C168.413 531.697 166.665 531.349 165.035 530.671C163.405 529.994 161.925 529.001 160.681 527.749C159.303 526.384 158.245 524.73 157.584 522.907C157.027 524.394 156.742 525.969 156.741 527.556Z" fill="#C89F87"/>
<path d="M823.839 558.509C826.584 558.511 828.811 556.287 828.812 553.542C828.814 550.797 826.591 548.571 823.846 548.569C821.101 548.567 818.874 550.79 818.872 553.535C818.871 556.28 821.094 558.507 823.839 558.509Z" fill="#D8BA9F"/>
<path d="M822.758 559.928C826.105 559.93 828.82 557.219 828.822 553.872C828.825 550.525 826.113 547.81 822.767 547.808C819.42 547.806 816.705 550.517 816.702 553.864C816.7 557.21 819.411 559.926 822.758 559.928Z" fill="#2F073A"/>
<path d="M823.839 558.509C826.584 558.511 828.811 556.287 828.812 553.542C828.814 550.797 826.591 548.571 823.846 548.569C821.101 548.567 818.874 550.79 818.872 553.535C818.871 556.28 821.094 558.507 823.839 558.509Z" fill="#D8BA9F"/>
<path d="M818.873 553.535C818.872 554.861 819.397 556.133 820.334 557.072C821.271 558.01 822.543 558.538 823.869 558.539L824.389 558.539C823.204 558.361 822.123 557.764 821.342 556.856C820.561 555.947 820.131 554.789 820.132 553.591C820.133 552.393 820.564 551.235 821.346 550.328C822.129 549.421 823.211 548.825 824.396 548.649C824.223 548.639 824.049 548.639 823.876 548.649C822.569 548.647 821.313 549.158 820.378 550.072C819.443 550.985 818.902 552.228 818.873 553.535Z" fill="#C89F87"/>
<path d="M823.841 556.229C824.093 556.309 824.356 556.35 824.621 556.349C825.374 556.35 826.097 556.051 826.63 555.519C827.162 554.987 827.462 554.264 827.463 553.511C827.463 552.758 827.165 552.035 826.632 551.502C826.1 550.969 825.378 550.67 824.625 550.669C824.36 550.668 824.097 550.708 823.845 550.789C824.441 550.952 824.967 551.307 825.341 551.799C825.716 552.291 825.919 552.892 825.918 553.51C825.918 554.128 825.714 554.729 825.339 555.22C824.964 555.712 824.437 556.066 823.841 556.229Z" fill="#F5EAE4"/>
<path d="M796.039 558.489C798.784 558.491 801.011 556.267 801.013 553.522C801.015 550.778 798.791 548.551 796.046 548.549C793.301 548.547 791.075 550.771 791.073 553.515C791.071 556.26 793.294 558.487 796.039 558.489Z" fill="#D8BA9F"/>
<path d="M794.958 559.908C798.305 559.911 801.02 557.199 801.022 553.853C801.025 550.506 798.314 547.791 794.967 547.788C791.62 547.786 788.905 550.497 788.902 553.844C788.9 557.191 791.611 559.906 794.958 559.908Z" fill="#2F073A"/>
<path d="M796.039 558.489C798.784 558.491 801.011 556.267 801.013 553.522C801.015 550.778 798.791 548.551 796.046 548.549C793.301 548.547 791.075 550.771 791.073 553.515C791.071 556.26 793.294 558.487 796.039 558.489Z" fill="#D8BA9F"/>
<path d="M791.082 553.515C791.082 554.842 791.607 556.114 792.544 557.052C793.481 557.99 794.753 558.518 796.079 558.519L796.599 558.519C795.414 558.341 794.333 557.744 793.552 556.836C792.77 555.928 792.341 554.769 792.342 553.571C792.343 552.373 792.774 551.216 793.556 550.309C794.339 549.402 795.421 548.806 796.606 548.629C796.433 548.619 796.259 548.619 796.086 548.629C794.779 548.628 793.523 549.138 792.588 550.052C791.652 550.965 791.112 552.209 791.082 553.515Z" fill="#C89F87"/>
<path d="M796.041 556.209C796.293 556.29 796.556 556.33 796.821 556.33C797.574 556.33 798.297 556.031 798.83 555.499C799.363 554.967 799.662 554.245 799.663 553.492C799.663 552.738 799.365 552.016 798.832 551.483C798.3 550.95 797.578 550.65 796.825 550.65C796.56 550.648 796.297 550.689 796.045 550.769C796.641 550.933 797.167 551.288 797.542 551.779C797.916 552.271 798.119 552.872 798.119 553.49C798.118 554.109 797.915 554.71 797.539 555.201C797.164 555.692 796.637 556.046 796.041 556.209Z" fill="#F5EAE4"/>
<path d="M255.609 558.106C258.354 558.108 260.581 555.885 260.583 553.14C260.585 550.395 258.361 548.168 255.616 548.166C252.872 548.164 250.645 550.388 250.643 553.133C250.641 555.878 252.865 558.104 255.609 558.106Z" fill="#D8BA9F"/>
<path d="M256.688 559.527C260.035 559.529 262.75 556.818 262.752 553.471C262.755 550.125 260.044 547.409 256.697 547.407C253.35 547.405 250.635 550.116 250.632 553.463C250.63 556.81 253.341 559.525 256.688 559.527Z" fill="#2F073A"/>
<path d="M255.609 558.106C258.354 558.108 260.581 555.885 260.583 553.14C260.585 550.395 258.361 548.168 255.616 548.166C252.872 548.164 250.645 550.388 250.643 553.133C250.641 555.878 252.865 558.104 255.609 558.106Z" fill="#D8BA9F"/>
<path d="M260.583 553.14C260.582 554.466 260.054 555.737 259.116 556.674C258.178 557.611 256.905 558.137 255.579 558.136L255.059 558.136C256.244 557.96 257.326 557.364 258.109 556.457C258.892 555.55 259.322 554.392 259.323 553.194C259.324 551.996 258.895 550.838 258.114 549.929C257.332 549.021 256.251 548.424 255.066 548.246C255.24 548.236 255.413 548.236 255.586 548.246C256.894 548.247 258.149 548.759 259.083 549.674C260.017 550.589 260.555 551.833 260.583 553.14Z" fill="#C89F87"/>
<path d="M255.611 555.826C255.358 555.907 255.095 555.947 254.831 555.946C254.077 555.945 253.355 555.646 252.823 555.113C252.291 554.58 251.992 553.857 251.993 553.104C251.993 552.351 252.293 551.628 252.826 551.096C253.359 550.564 254.081 550.265 254.835 550.266C255.099 550.265 255.362 550.306 255.615 550.386C255.024 550.555 254.505 550.912 254.135 551.403C253.765 551.893 253.564 552.491 253.564 553.105C253.564 553.719 253.763 554.317 254.132 554.808C254.501 555.299 255.02 555.656 255.611 555.826Z" fill="#F5EAE4"/>
<path d="M283.409 558.126C286.154 558.128 288.381 555.904 288.383 553.16C288.385 550.415 286.161 548.188 283.416 548.186C280.671 548.184 278.445 550.408 278.443 553.152C278.441 555.897 280.664 558.124 283.409 558.126Z" fill="#D8BA9F"/>
<path d="M284.488 559.547C287.835 559.549 290.55 556.838 290.553 553.491C290.555 550.144 287.844 547.429 284.497 547.427C281.15 547.424 278.435 550.136 278.433 553.482C278.43 556.829 281.142 559.544 284.488 559.547Z" fill="#2F073A"/>
<path d="M283.409 558.126C286.154 558.128 288.381 555.904 288.383 553.16C288.385 550.415 286.161 548.188 283.416 548.186C280.671 548.184 278.445 550.408 278.443 553.152C278.441 555.897 280.664 558.124 283.409 558.126Z" fill="#D8BA9F"/>
<path d="M288.373 553.16C288.372 554.486 287.844 555.757 286.906 556.694C285.968 557.631 284.696 558.157 283.369 558.156L282.849 558.156C284.034 557.979 285.116 557.383 285.899 556.476C286.682 555.569 287.112 554.412 287.113 553.214C287.114 552.016 286.685 550.857 285.904 549.949C285.122 549.041 284.041 548.444 282.856 548.266C283.03 548.256 283.203 548.256 283.376 548.266C284.684 548.267 285.939 548.779 286.873 549.694C287.807 550.608 288.345 551.853 288.373 553.16Z" fill="#C89F87"/>
<path d="M283.411 555.846C283.159 555.926 282.896 555.966 282.631 555.965C281.878 555.965 281.156 555.665 280.623 555.132C280.091 554.599 279.792 553.877 279.793 553.123C279.793 552.37 280.093 551.648 280.626 551.116C281.159 550.584 281.882 550.285 282.635 550.285C282.9 550.285 283.163 550.325 283.415 550.406C282.818 550.569 282.292 550.923 281.917 551.414C281.541 551.905 281.338 552.506 281.337 553.125C281.337 553.743 281.54 554.344 281.914 554.836C282.289 555.327 282.815 555.682 283.411 555.846Z" fill="#F5EAE4"/>
<path d="M585.808 482.326C591.006 481.854 594.837 477.257 594.365 472.06C593.892 466.862 589.296 463.031 584.098 463.503L554.789 466.165C549.591 466.637 545.761 471.233 546.233 476.431C546.705 481.629 551.301 485.46 556.499 484.988L585.808 482.326Z" fill="#EA8681"/>
<path d="M587.771 499.511C598.054 499.519 606.397 491.188 606.404 480.905C606.411 470.621 598.081 462.279 587.797 462.271C577.514 462.264 569.171 470.595 569.164 480.878C569.157 491.162 577.487 499.504 587.771 499.511Z" fill="#EA8681"/>
<path d="M571.591 488.291L571.591 488.301C571.436 502.864 583.116 514.795 597.679 514.951L711.082 516.159C725.645 516.314 737.576 504.635 737.732 490.072L737.732 490.062C737.887 475.499 726.207 463.567 711.644 463.412L598.241 462.204C583.678 462.048 571.746 473.728 571.591 488.291Z" fill="#EF948C"/>
<path d="M610.234 509.288C621.585 500.376 623.562 483.951 614.652 472.603C605.741 461.255 589.316 459.28 577.966 468.193L559.994 482.304C548.644 491.217 546.666 507.641 555.577 518.989C564.488 530.337 580.912 532.312 592.263 523.4L610.234 509.288Z" fill="#EF948C"/>
<path d="M585.668 486.167C589.773 482.944 590.488 477.003 587.265 472.898C584.042 468.793 578.101 468.079 573.996 471.302L532.382 503.978C528.277 507.201 527.562 513.142 530.786 517.247C534.009 521.351 539.949 522.066 544.054 518.843L585.668 486.167Z" fill="#EF948C"/>
<path d="M585.808 482.326C591.006 481.854 594.837 477.257 594.365 472.06C593.893 466.862 589.297 463.031 584.099 463.503L554.79 466.165C549.592 466.637 545.761 471.233 546.233 476.431C546.705 481.629 551.301 485.46 556.499 484.988L585.808 482.326Z" fill="#EF948C"/>
<path d="M587.771 499.511C598.055 499.519 606.397 491.188 606.405 480.905C606.412 470.621 598.081 462.279 587.798 462.271C577.514 462.264 569.172 470.595 569.165 480.878C569.157 491.162 577.488 499.504 587.771 499.511Z" fill="#EF948C"/>
<path d="M571.591 488.291L571.591 488.301C571.436 502.864 583.116 514.795 597.679 514.951L711.082 516.159C725.645 516.314 737.576 504.635 737.732 490.072L737.732 490.062C737.887 475.499 726.207 463.567 711.644 463.412L598.241 462.204C583.678 462.048 571.746 473.728 571.591 488.291Z" fill="#EF948C"/>
<path d="M610.234 509.288C621.585 500.376 623.562 483.951 614.652 472.603C605.741 461.255 589.316 459.28 577.966 468.193L559.994 482.304C548.644 491.217 546.666 507.641 555.577 518.989C564.488 530.337 580.912 532.312 592.263 523.4L610.234 509.288Z" fill="#EF948C"/>
<path d="M553.042 512.377C557.322 517.827 563.591 521.354 570.471 522.182C577.351 523.011 584.278 521.072 589.729 516.793L592.73 514.425L600.415 508.43L611.235 508.538L708.414 509.607C715.409 509.681 722.147 506.974 727.146 502.081C732.145 497.189 734.996 490.51 735.072 483.516L735.073 483.166C735.076 481.028 734.815 478.899 734.297 476.825C736.531 480.772 737.699 485.232 737.688 489.768L737.688 490.038C737.654 493.501 736.938 496.923 735.582 500.109C734.225 503.296 732.254 506.184 729.782 508.608C727.309 511.033 724.383 512.947 721.17 514.241C717.958 515.535 714.522 516.183 711.059 516.149L603.06 515.012L592.354 523.415C588.918 526.109 584.862 527.9 580.557 528.624C576.251 529.347 571.832 528.981 567.705 527.558C563.577 526.135 559.871 523.701 556.926 520.477C553.981 517.254 551.89 513.344 550.844 509.105C551.494 510.249 552.228 511.343 553.042 512.377Z" fill="#F3A6A0"/>
<path d="M585.668 486.167C589.773 482.944 590.488 477.003 587.264 472.898C584.041 468.793 578.101 468.079 573.996 471.302L532.381 503.978C528.277 507.201 527.562 513.142 530.785 517.247C534.008 521.351 539.949 522.066 544.054 518.843L585.668 486.167Z" fill="#EF948C"/>
<path d="M597.013 501.252C600.597 498.438 601.221 493.252 598.407 489.669C595.593 486.085 590.407 485.461 586.823 488.275L574.742 497.761C571.159 500.575 570.535 505.761 573.349 509.345C576.163 512.928 581.349 513.552 584.933 510.738L597.013 501.252Z" fill="#F3A6A0"/>
<path d="M523.453 298.296C538.691 298.307 551.052 285.963 551.063 270.725C551.074 255.488 538.73 243.127 523.492 243.116C508.255 243.105 495.894 255.449 495.883 270.686C495.872 285.924 508.216 298.285 523.453 298.296Z" stroke="white" stroke-width="2.85" stroke-miterlimit="10"/>
<path d="M588.553 298.342C603.791 298.353 616.152 286.009 616.163 270.772C616.174 255.534 603.83 243.173 588.592 243.162C573.355 243.151 560.994 255.495 560.983 270.733C560.972 285.97 573.316 298.331 588.553 298.342Z" stroke="white" stroke-width="2.85" stroke-miterlimit="10"/>
<path d="M551.042 271.805L561.002 271.812" stroke="white" stroke-width="2.85" stroke-miterlimit="10"/>
<path d="M295.49 810.935L371.879 841.619L380.525 819.255L305.856 774.722L295.527 801.385L295.49 810.935Z" fill="#141334"/>
<path d="M407.286 505.964L391.646 505.953L391.648 502.953C391.649 501.589 392.191 500.282 393.156 499.319C394.121 498.356 395.428 497.815 396.792 497.816L402.162 497.82C403.525 497.821 404.832 498.364 405.795 499.328C406.758 500.293 407.299 501.601 407.298 502.964L407.296 505.964L407.286 505.964Z" fill="#ABB2D8"/>
<path d="M422.926 505.975L407.286 505.964L407.288 502.964C407.297 501.607 407.842 500.31 408.803 499.353C409.765 498.397 411.066 497.859 412.422 497.857L417.792 497.861C419.155 497.862 420.462 498.405 421.426 499.369C422.389 500.334 422.929 501.642 422.928 503.005L422.926 506.005L422.926 505.975Z" fill="#ABB2D8"/>
<path d="M438.576 505.986L422.936 505.975L422.938 502.975C422.939 501.612 423.482 500.305 424.446 499.341C425.411 498.378 426.719 497.837 428.082 497.838L433.452 497.842C434.815 497.843 436.122 498.386 437.085 499.35C438.048 500.315 438.589 501.623 438.588 502.986L438.586 505.986L438.576 505.986Z" fill="#ABB2D8"/>
<path d="M454.216 505.997L438.576 505.986L438.578 502.986C438.579 501.623 439.122 500.316 440.086 499.352C441.051 498.389 442.359 497.849 443.722 497.85L449.092 497.853C450.455 497.854 451.762 498.397 452.725 499.361C453.689 500.326 454.229 501.634 454.228 502.997L454.226 505.997L454.216 505.997Z" fill="#ABB2D8"/>
<path d="M469.856 506.008L454.216 505.997L454.218 502.997C454.219 501.634 454.762 500.327 455.726 499.363C456.691 498.4 457.999 497.86 459.362 497.861L464.732 497.864C466.095 497.865 467.402 498.408 468.365 499.372C469.329 500.337 469.869 501.645 469.868 503.008L469.866 506.008L469.856 506.008Z" fill="#ABB2D8"/>
<path d="M485.506 506.019L469.866 506.008L469.868 503.008C469.869 501.645 470.411 500.338 471.376 499.375C472.341 498.411 473.648 497.871 475.012 497.872L480.372 497.875C481.735 497.876 483.042 498.419 484.005 499.383C484.968 500.348 485.509 501.656 485.508 503.019L485.506 506.019Z" fill="#ABB2D8"/>
<path d="M501.136 506.03L485.496 506.019L485.498 503.019C485.507 501.659 486.055 500.359 487.021 499.401C487.986 498.444 489.292 497.909 490.652 497.913L496.022 497.917C497.385 497.917 498.692 498.46 499.655 499.425C500.619 500.389 501.159 501.697 501.158 503.06L501.156 506.06L501.136 506.03Z" fill="#ABB2D8"/>
<path d="M349.76 514.253L515.56 514.37C519.078 514.373 521.932 511.523 521.935 508.005L521.935 507.995C521.937 504.477 519.087 501.623 515.569 501.62L349.769 501.503C346.251 501.5 343.397 504.35 343.395 507.868L343.395 507.878C343.392 511.396 346.242 514.25 349.76 514.253Z" fill="#5D6295"/>
<path d="M392.57 514.283L243.57 514.178C240.536 514.176 237.589 513.16 235.197 511.293C232.805 509.425 231.105 506.812 230.368 503.868L201.449 388.488C200.946 386.477 200.908 384.378 201.337 382.351C201.767 380.323 202.654 378.421 203.929 376.787C205.205 375.154 206.837 373.833 208.7 372.925C210.563 372.017 212.609 371.546 214.681 371.547L346.161 371.64C349.196 371.642 352.143 372.658 354.535 374.525C356.927 376.393 358.626 379.006 359.364 381.95L392.57 514.283Z" fill="#666DA2"/>
<path d="M201.439 388.488L230.358 503.868C231.099 506.813 232.8 509.427 235.193 511.296C237.586 513.165 240.534 514.182 243.57 514.188L392.57 514.293L389.369 501.541L271.669 501.458C268.633 501.454 265.684 500.437 263.29 498.568C260.897 496.698 259.196 494.084 258.457 491.138L229.508 375.808C229.164 374.433 229.034 373.012 229.121 371.598L214.671 371.587C212.603 371.587 210.562 372.058 208.702 372.964C206.843 373.869 205.214 375.186 203.939 376.815C202.664 378.443 201.776 380.341 201.343 382.363C200.91 384.386 200.943 386.48 201.439 388.488Z" fill="#5D6295"/>
<path d="M287.673 454.179C291.793 454.182 295.135 450.844 295.138 446.724C295.141 442.604 291.804 439.262 287.684 439.259C283.564 439.256 280.221 442.594 280.218 446.714C280.215 450.834 283.553 454.176 287.673 454.179Z" fill="#ABB2D8"/>
<path d="M277.69 457.842C278.866 459.683 280.44 461.238 282.297 462.39C284.153 463.543 286.244 464.264 288.416 464.502C290.588 464.739 292.785 464.486 294.847 463.762C296.908 463.038 298.781 461.86 300.327 460.316C301.873 458.772 303.053 456.901 303.78 454.841C304.508 452.781 304.764 450.584 304.529 448.411C304.295 446.239 303.576 444.147 302.426 442.289C301.276 440.431 299.724 438.855 297.885 437.676C299.665 440.484 300.436 443.814 300.07 447.118C299.703 450.422 298.222 453.503 295.869 455.852C293.517 458.201 290.434 459.679 287.129 460.04C283.825 460.402 280.495 459.627 277.69 457.842Z" fill="#ABB2D8"/>
<path d="M578.885 846.715L664.605 846.776L673.361 824.752L563.313 807.394L578.885 846.715Z" fill="#332D52"/>
<path d="M657.488 842.941C660.443 842.943 662.84 840.549 662.842 837.595C662.844 834.64 660.45 832.243 657.495 832.241C654.541 832.239 652.144 834.632 652.142 837.587C652.14 840.542 654.533 842.939 657.488 842.941Z" fill="#141334"/>
<path d="M657.798 842.941C659.952 842.943 661.699 841.198 661.701 839.044C661.702 836.89 659.957 835.143 657.803 835.141C655.649 835.14 653.902 836.884 653.901 839.038C653.899 841.192 655.644 842.94 657.798 842.941Z" fill="#666DA2"/>
<path d="M657.759 841.591C657.932 841.606 658.106 841.606 658.279 841.591C658.942 841.551 659.564 841.259 660.019 840.775C660.475 840.292 660.728 839.652 660.729 838.988C660.729 838.324 660.477 837.684 660.022 837.2C659.567 836.716 658.945 836.423 658.282 836.381C658.107 836.381 657.933 836.401 657.762 836.441C658.344 836.568 658.865 836.891 659.238 837.355C659.611 837.819 659.814 838.397 659.814 838.993C659.814 839.588 659.609 840.166 659.236 840.629C658.862 841.093 658.341 841.415 657.759 841.541L657.759 841.591Z" fill="#332D52"/>
<path d="M658.403 835.782C658.183 835.732 657.958 835.709 657.733 835.711C656.882 835.757 656.082 836.127 655.496 836.745C654.91 837.363 654.583 838.182 654.583 839.034C654.582 839.885 654.908 840.705 655.493 841.324C656.078 841.943 656.878 842.314 657.728 842.361C657.953 842.364 658.178 842.34 658.398 842.292C657.654 842.13 656.988 841.719 656.51 841.127C656.033 840.534 655.772 839.796 655.773 839.035C655.774 838.274 656.035 837.536 656.513 836.944C656.992 836.352 657.658 835.942 658.403 835.782Z" fill="#9DA5D1"/>
<path d="M289.087 816.14L368.624 848.086L384.946 830.908L289.257 773.85L289.087 816.14Z" fill="#262344"/>
<path d="M365.86 839.044C368.815 839.047 371.212 836.653 371.214 833.698C371.216 830.743 368.823 828.347 365.868 828.344C362.913 828.342 360.516 830.736 360.514 833.691C360.512 836.645 362.906 839.042 365.86 839.044Z" fill="#141334"/>
<path d="M366.17 839.045C368.324 839.046 370.072 837.301 370.073 835.147C370.075 832.993 368.33 831.246 366.176 831.245C364.022 831.243 362.275 832.988 362.273 835.142C362.272 837.296 364.016 839.043 366.17 839.045Z" fill="#666DA2"/>
<path d="M366.171 837.685C366.342 837.725 366.516 837.745 366.691 837.745C367.354 837.704 367.977 837.412 368.432 836.929C368.887 836.445 369.141 835.806 369.141 835.142C369.142 834.477 368.889 833.838 368.435 833.354C367.98 832.869 367.358 832.577 366.695 832.535C366.522 832.52 366.348 832.52 366.175 832.535C366.757 832.662 367.277 832.985 367.65 833.449C368.024 833.913 368.227 834.49 368.227 835.086C368.226 835.682 368.022 836.259 367.648 836.723C367.274 837.186 366.753 837.508 366.171 837.635L366.171 837.685Z" fill="#332D52"/>
<path d="M366.765 831.905C366.545 831.856 366.321 831.832 366.095 831.835C365.245 831.881 364.445 832.251 363.859 832.869C363.273 833.487 362.946 834.306 362.945 835.157C362.945 836.009 363.27 836.828 363.855 837.447C364.44 838.066 365.24 838.437 366.091 838.485C366.316 838.487 366.541 838.464 366.761 838.415C366.017 838.254 365.351 837.843 364.873 837.25C364.395 836.658 364.135 835.919 364.136 835.158C364.136 834.397 364.398 833.659 364.876 833.067C365.354 832.475 366.021 832.065 366.765 831.905Z" fill="#9DA5D1"/>
<path d="M316.763 184.909C315.888 184.861 315.036 184.798 314.208 184.719C313.396 184.625 312.654 184.499 311.982 184.343C311.31 184.186 310.74 183.982 310.271 183.732C309.819 183.466 309.522 183.138 309.382 182.747L296.443 150.722C296.178 150.738 295.92 150.847 295.67 151.05C295.559 152.987 294.964 154.542 293.885 155.713L294.423 157.096L284.515 181.956C283.889 183.518 281.966 184.493 278.747 184.882C278.653 185.1 278.606 185.296 278.606 185.468C278.606 185.655 278.653 185.843 278.746 186.03C280.528 185.969 281.957 185.923 283.036 185.893C284.129 185.862 284.879 185.847 285.286 185.847C285.645 185.848 286.457 185.864 287.723 185.896C289.004 185.928 290.739 185.976 292.926 186.04C293.02 185.853 293.067 185.665 293.067 185.478C293.067 185.306 293.021 185.111 292.927 184.892C291.63 184.766 290.576 184.632 289.763 184.491C288.951 184.334 288.318 184.17 287.865 183.998C287.412 183.825 287.107 183.638 286.951 183.434C286.795 183.216 286.717 182.973 286.718 182.708C286.718 182.536 286.749 182.364 286.812 182.192L290.24 173.616C291.974 173.586 293.372 173.564 294.435 173.549C295.513 173.534 296.255 173.527 296.662 173.527C297.552 173.528 298.341 173.536 299.029 173.552C299.732 173.553 300.333 173.561 300.833 173.577L304.226 182.204C304.304 182.439 304.343 182.619 304.343 182.744C304.342 183.165 304.123 183.54 303.685 183.868C303.263 184.196 302.74 184.422 302.115 184.547L299.583 184.896C299.489 185.115 299.442 185.31 299.442 185.482C299.442 185.67 299.489 185.857 299.582 186.045C300.911 185.999 302.254 185.961 303.614 185.931C304.989 185.9 306.395 185.886 307.832 185.887C309.27 185.888 310.723 185.904 312.192 185.937C313.676 185.969 315.2 186.009 316.762 186.057C316.872 185.838 316.926 185.651 316.926 185.495C316.927 185.401 316.911 185.307 316.88 185.213C316.849 185.12 316.81 185.018 316.763 184.909ZM296.663 171.699C294.397 171.697 292.53 171.665 291.061 171.601L295.523 160.12L295.616 160.12L300.085 171.655C299.241 171.685 298.1 171.7 296.663 171.699ZM295.568 162.581L292.445 170.688C294.335 170.783 296.413 170.8 298.679 170.74L295.568 162.581ZM317.49 184.042C317.88 184.98 317.864 185.972 317.441 187.018L298.855 187.005C298.481 185.927 298.482 184.935 298.857 184.029C300.56 183.936 301.764 183.765 302.467 183.516C303.17 183.251 303.413 182.829 303.194 182.251L300.13 174.491C297.239 174.379 294.145 174.408 290.848 174.578L287.819 182.333C287.725 182.599 287.796 182.841 288.03 183.06C288.28 183.263 288.678 183.428 289.225 183.553C289.772 183.679 290.412 183.781 291.146 183.859C291.881 183.938 292.709 183.993 293.631 184.025C294.021 184.963 294.004 185.955 293.582 187.002C288.457 186.81 283.293 186.807 278.089 186.991C277.668 185.943 277.653 184.951 278.045 184.014C281.264 183.641 283.085 182.939 283.507 181.908L293.415 157.048C293.353 156.923 293.228 156.642 293.041 156.204C292.869 155.751 292.768 155.454 292.737 155.313C293.957 154.08 294.63 152.487 294.756 150.534C296.131 149.863 297.749 149.481 299.608 149.389L312.734 182.023C313.03 182.758 313.498 183.25 314.139 183.5C314.779 183.735 315.896 183.916 317.49 184.042Z" fill="#833187"/>
<g filter="url(#filter1_d_202_283)">
<path d="M237.692 383.556C238.565 383.661 239.32 383.739 239.958 383.792C240.596 383.831 241.123 383.864 241.54 383.891C242.022 383.917 242.425 383.924 242.751 383.911C243.089 383.898 243.552 383.866 244.138 383.814C244.632 383.776 245.283 383.724 246.091 383.659C246.898 383.582 247.907 383.478 249.118 383.349C249.131 383.648 249.137 383.941 249.137 384.228C249.15 384.501 249.163 384.742 249.176 384.951C249.189 385.198 249.195 385.426 249.195 385.634C249.195 385.856 249.182 386.136 249.155 386.474C249.129 386.76 249.083 387.125 249.018 387.568C248.965 387.997 248.88 388.512 248.763 389.11C248.581 388.407 248.406 387.841 248.237 387.411C248.068 386.968 247.912 386.616 247.769 386.356C247.613 386.056 247.456 385.828 247.3 385.672C247.131 385.555 246.929 385.457 246.695 385.379C246.487 385.313 246.22 385.261 245.894 385.222C245.582 385.182 245.211 385.189 244.781 385.24C244.715 386.959 244.668 388.352 244.641 389.42C244.615 390.488 244.594 391.321 244.581 391.92C244.568 392.636 244.561 393.15 244.56 393.463C244.573 393.906 244.644 394.342 244.774 394.772C244.878 395.136 245.047 395.514 245.281 395.905C245.515 396.296 245.854 396.641 246.296 396.941L243.913 396.939C243.692 396.939 243.419 396.952 243.093 396.978C242.82 397.003 242.468 397.029 242.038 397.055C241.622 397.081 241.133 397.126 240.573 397.191C240.769 396.852 240.925 396.546 241.043 396.273C241.16 396 241.252 395.765 241.317 395.57C241.395 395.336 241.454 395.127 241.493 394.945C241.506 394.685 241.539 394.157 241.592 393.363C241.605 393.038 241.618 392.634 241.632 392.152C241.658 391.671 241.684 391.098 241.711 390.434C241.751 389.77 241.784 389.008 241.81 388.149C241.85 387.276 241.89 386.293 241.93 385.199C241.695 385.134 241.474 385.14 241.265 385.218C241.057 385.283 240.875 385.368 240.718 385.472C240.536 385.602 240.36 385.758 240.191 385.94C240.021 386.162 239.832 386.448 239.624 386.799C239.441 387.099 239.233 387.496 238.998 387.99C238.763 388.472 238.496 389.071 238.196 389.787C238.131 389.031 238.086 388.413 238.06 387.931C238.035 387.436 238.015 387.052 238.003 386.779C237.99 386.453 237.984 386.212 237.984 386.056C237.984 385.913 237.971 385.724 237.945 385.49C237.919 385.294 237.887 385.04 237.848 384.728C237.809 384.402 237.757 384.012 237.692 383.556ZM253.173 394.68C253.537 394.68 253.876 394.641 254.189 394.564C254.449 394.499 254.696 394.395 254.931 394.252C255.178 394.095 255.341 393.868 255.42 393.568C255.68 393.621 255.901 393.666 256.084 393.705C256.266 393.732 256.422 393.758 256.552 393.784C256.696 393.823 256.819 393.849 256.923 393.862C257.028 393.888 257.151 393.915 257.294 393.941C257.425 393.967 257.581 394 257.763 394.039C257.958 394.065 258.186 394.104 258.447 394.156C258.251 394.13 258.05 394.15 257.841 394.215C257.646 394.28 257.457 394.351 257.275 394.429C257.066 394.52 256.871 394.631 256.688 394.761C256.571 394.839 256.434 394.956 256.278 395.112C256.135 395.268 255.926 395.418 255.653 395.561C255.379 395.704 255.014 395.827 254.559 395.931C254.116 396.022 253.543 396.054 252.84 396.027C251.994 396.001 251.284 395.851 250.711 395.577C250.139 395.29 249.677 394.944 249.325 394.541C248.974 394.124 248.72 393.674 248.565 393.192C248.409 392.71 248.324 392.261 248.312 391.845C248.299 391.428 248.423 390.992 248.684 390.536C248.944 390.081 249.309 389.664 249.778 389.287C250.26 388.91 250.84 388.604 251.517 388.37C252.194 388.123 252.937 388 253.744 388.001C254.213 388.001 254.642 388.06 255.033 388.177C255.436 388.282 255.801 388.425 256.126 388.608C256.465 388.79 256.758 388.999 257.005 389.233C257.252 389.455 257.46 389.683 257.629 389.918C257.798 390.165 257.941 390.426 258.058 390.699C258.162 390.934 258.247 391.201 258.312 391.5C258.377 391.8 258.396 392.106 258.37 392.418C257.38 392.443 256.579 392.462 255.967 392.475C255.368 392.488 254.9 392.494 254.561 392.493L253.682 392.493L253.018 392.492C252.784 392.492 252.478 392.499 252.1 392.511C251.723 392.524 251.26 392.543 250.713 392.569C250.778 393.09 250.941 393.494 251.201 393.78C251.474 394.054 251.76 394.262 252.06 394.406C252.398 394.562 252.769 394.654 253.173 394.68ZM251.418 391.163C251.834 391.189 252.179 391.209 252.453 391.222C252.739 391.236 252.973 391.249 253.156 391.262C253.351 391.275 253.507 391.282 253.624 391.282L254.113 391.282C254.438 391.282 255.044 391.263 255.929 391.225C255.891 390.652 255.767 390.216 255.559 389.916C255.364 389.616 255.156 389.395 254.935 389.252C254.674 389.095 254.388 389.004 254.075 388.978C253.229 388.99 252.597 389.165 252.18 389.504C251.777 389.842 251.522 390.395 251.418 391.163ZM267.768 386.683C267.651 386.969 267.547 387.229 267.455 387.464C267.377 387.698 267.305 387.906 267.24 388.088C267.175 388.297 267.116 388.479 267.064 388.635C267.012 388.817 266.953 389.026 266.888 389.26C266.822 389.468 266.738 389.729 266.633 390.041C266.542 390.341 266.431 390.699 266.3 391.115C266.197 390.49 266.008 389.995 265.735 389.63C265.462 389.253 265.182 388.959 264.896 388.751C264.557 388.516 264.193 388.347 263.802 388.242C263.099 388.125 262.592 388.137 262.279 388.28C261.966 388.423 261.758 388.605 261.654 388.827C261.601 388.918 261.543 389.035 261.478 389.178C261.425 389.308 261.38 389.445 261.341 389.588C261.314 389.731 261.308 389.875 261.321 390.018C261.334 390.161 261.392 390.278 261.496 390.369C261.561 390.435 261.73 390.526 262.004 390.643C262.277 390.748 262.603 390.872 262.98 391.015C263.371 391.146 263.781 391.289 264.21 391.446C264.653 391.602 265.069 391.759 265.46 391.915C265.85 392.072 266.189 392.228 266.475 392.385C266.762 392.541 266.95 392.685 267.041 392.815C267.119 392.945 267.204 393.121 267.295 393.342C267.399 393.551 267.47 393.785 267.509 394.046C267.561 394.293 267.574 394.553 267.548 394.827C267.535 395.087 267.463 395.348 267.332 395.608C267.202 395.868 266.993 396.109 266.707 396.33C266.433 396.551 266.062 396.733 265.593 396.876C265.046 397.045 264.519 397.09 264.011 397.012C263.503 396.933 263.035 396.816 262.605 396.659C262.188 396.503 261.824 396.353 261.512 396.209C261.199 396.053 260.978 395.988 260.848 396.014C260.704 396.039 260.542 396.111 260.359 396.228C260.177 396.345 260.001 396.469 259.832 396.599C259.675 396.716 259.539 396.826 259.421 396.931C259.304 397.022 259.245 397.054 259.245 397.028C259.245 397.002 259.265 396.924 259.304 396.794C259.356 396.664 259.409 396.507 259.461 396.325C259.526 396.13 259.585 395.922 259.637 395.7C259.702 395.466 259.748 395.245 259.774 395.036C259.8 394.867 259.833 394.659 259.872 394.411C259.898 394.19 259.931 393.923 259.97 393.611C260.023 393.285 260.082 392.895 260.147 392.439C260.212 392.777 260.303 393.07 260.42 393.318C260.55 393.565 260.673 393.78 260.791 393.963C260.934 394.171 261.07 394.347 261.2 394.49C261.396 394.673 261.623 394.842 261.884 394.999C262.157 395.155 262.43 395.292 262.704 395.409C262.977 395.514 263.237 395.579 263.485 395.605C263.732 395.631 263.94 395.606 264.11 395.528C264.279 395.45 264.422 395.306 264.54 395.098C264.67 394.89 264.761 394.662 264.814 394.415C264.866 394.167 264.886 393.933 264.873 393.712C264.86 393.477 264.801 393.288 264.697 393.145C264.619 393.054 264.437 392.937 264.151 392.793C263.877 392.65 263.545 392.493 263.155 392.324C262.778 392.154 262.374 391.978 261.944 391.796C261.528 391.613 261.131 391.43 260.753 391.248C260.389 391.052 260.083 390.87 259.836 390.7C259.602 390.518 259.471 390.355 259.446 390.212C259.42 390.003 259.4 389.776 259.387 389.528C259.375 389.268 259.388 389.014 259.427 388.766C259.479 388.506 259.571 388.259 259.701 388.024C259.844 387.79 260.053 387.595 260.326 387.439C260.509 387.335 260.75 387.257 261.049 387.205C261.349 387.153 261.681 387.127 262.045 387.128C262.41 387.115 262.788 387.128 263.178 387.168C263.569 387.194 263.94 387.233 264.291 387.286C264.656 387.325 264.981 387.377 265.268 387.442C265.567 387.508 265.795 387.567 265.951 387.619C266.134 387.684 266.329 387.691 266.537 387.639C266.72 387.6 266.915 387.515 267.123 387.385C267.332 387.255 267.547 387.021 267.768 386.683ZM268.238 385.531C268.629 385.57 268.954 385.603 269.214 385.629C269.488 385.655 269.709 385.675 269.878 385.688C270.074 385.701 270.23 385.708 270.347 385.708C270.464 385.721 270.621 385.721 270.816 385.708C270.985 385.695 271.207 385.682 271.48 385.67C271.753 385.644 272.099 385.605 272.515 385.553C272.424 385.683 272.352 385.8 272.3 385.904C272.248 385.996 272.202 386.08 272.163 386.158L272.046 386.393C272.02 386.471 271.994 386.549 271.968 386.627C271.942 386.692 271.915 386.77 271.889 386.861C271.876 386.952 271.863 387.05 271.85 387.154L274.858 387.156L274.583 388.738L271.83 388.58C271.764 389.244 271.718 389.758 271.692 390.123C271.665 390.487 271.639 390.754 271.613 390.924L271.574 391.275C271.534 391.77 271.495 392.31 271.455 392.896C271.416 393.469 271.402 394.003 271.415 394.498C271.428 394.992 271.473 395.409 271.551 395.748C271.629 396.073 271.766 396.236 271.961 396.236C272.156 396.236 272.338 396.184 272.508 396.08C272.677 395.976 272.82 395.853 272.938 395.71C273.068 395.566 273.166 395.423 273.231 395.28C273.296 395.124 273.329 395.007 273.329 394.929C273.329 394.851 273.31 394.759 273.271 394.655C273.206 394.46 273.089 394.212 272.919 393.913C273.297 394.004 273.629 394.096 273.915 394.187C274.059 394.239 274.189 394.291 274.306 394.343C274.436 394.396 274.586 394.454 274.755 394.519C274.898 394.585 275.08 394.663 275.302 394.754C275.523 394.846 275.783 394.956 276.083 395.087C275.796 395.139 275.588 395.223 275.458 395.34C275.379 395.392 275.321 395.451 275.282 395.516C275.19 395.659 275.086 395.854 274.969 396.102C274.851 396.336 274.675 396.57 274.441 396.804C274.206 397.039 273.887 397.247 273.483 397.429C273.093 397.611 272.565 397.715 271.901 397.74C271.211 397.766 270.684 397.648 270.319 397.387C269.968 397.127 269.708 396.827 269.539 396.488C269.383 396.137 269.292 395.792 269.266 395.453C269.24 395.115 269.221 394.887 269.208 394.769C269.195 394.652 269.195 394.359 269.209 393.891C269.222 393.422 269.242 392.908 269.268 392.348C269.295 391.775 269.321 391.228 269.348 390.707C269.374 390.173 269.387 389.783 269.387 389.535C269.388 389.405 269.394 389.268 269.407 389.125C269.407 389.008 269.407 388.884 269.408 388.754C269.421 388.611 269.427 388.474 269.427 388.344L266.595 388.322L266.479 387.209L269.33 387.289C269.304 387.146 269.272 387.016 269.233 386.898C269.207 386.768 269.181 386.664 269.155 386.586C269.116 386.495 269.077 386.417 269.038 386.351C268.986 386.286 268.928 386.215 268.862 386.136C268.797 386.071 268.713 385.987 268.609 385.882C268.505 385.778 268.381 385.661 268.238 385.531ZM281.11 383.879C281.527 383.984 281.924 384.062 282.301 384.115C282.679 384.167 283.011 384.206 283.297 384.233C283.636 384.272 283.948 384.285 284.235 384.272C284.599 384.273 285.055 384.24 285.602 384.176C286.162 384.111 286.735 384.053 287.321 384.001C287.907 383.936 288.467 383.898 289.001 383.885C289.548 383.859 289.99 383.892 290.329 383.984C290.667 384.062 291.012 384.186 291.364 384.355C291.728 384.512 292.06 384.714 292.359 384.962C292.659 385.196 292.906 385.476 293.101 385.802C293.296 386.115 293.407 386.473 293.432 386.876C293.419 387.384 293.301 387.859 293.08 388.302C292.897 388.679 292.591 389.07 292.161 389.473C291.731 389.864 291.112 390.163 290.305 390.37C290.708 390.423 291.053 390.514 291.34 390.645C291.639 390.762 291.893 390.905 292.101 391.075C292.322 391.231 292.498 391.407 292.628 391.602C292.771 391.798 292.882 391.993 292.96 392.189C293.155 392.645 293.246 393.152 293.232 393.712C293.153 394.441 293.003 395.021 292.782 395.45C292.573 395.88 292.332 396.212 292.058 396.446C291.785 396.68 291.505 396.843 291.218 396.934C290.932 397.024 290.671 397.096 290.437 397.148C290.202 397.2 289.916 397.226 289.577 397.225C289.239 397.225 288.874 397.218 288.484 397.205C288.106 397.179 287.715 397.159 287.312 397.146C286.908 397.119 286.524 397.119 286.159 397.145C285.86 397.171 285.495 397.196 285.066 397.222C284.701 397.248 284.245 397.28 283.698 397.319C283.151 397.344 282.513 397.377 281.784 397.415C281.928 397.311 282.045 397.194 282.136 397.064C282.24 396.921 282.325 396.797 282.39 396.693C282.455 396.563 282.514 396.439 282.566 396.322C282.605 396.218 282.638 395.931 282.664 395.463C282.691 394.994 282.711 394.434 282.724 393.783C282.738 393.119 282.745 392.409 282.745 391.654C282.759 390.886 282.753 390.15 282.727 389.447C282.715 388.731 282.689 388.099 282.651 387.552C282.625 386.993 282.586 386.589 282.534 386.341C282.456 386.068 282.352 385.788 282.222 385.501C282.118 385.254 281.969 384.987 281.774 384.7C281.592 384.414 281.37 384.14 281.11 383.879ZM285.23 385.875C285.23 385.927 285.236 386.102 285.249 386.402C285.262 386.662 285.275 387.066 285.287 387.613C285.313 388.147 285.345 388.909 285.383 389.898C285.709 390.042 286.028 390.12 286.34 390.133C286.653 390.133 286.933 390.121 287.18 390.095C287.466 390.056 287.74 389.991 288 389.9C288.352 389.757 288.626 389.523 288.821 389.197C289.03 388.872 289.167 388.534 289.232 388.182C289.311 387.818 289.33 387.479 289.291 387.167C289.253 386.841 289.168 386.607 289.038 386.463C288.791 386.242 288.485 386.059 288.12 385.916C287.808 385.798 287.411 385.72 286.929 385.68C286.461 385.628 285.894 385.693 285.23 385.875ZM285.126 395.132C285.607 395.38 286.03 395.543 286.395 395.621C286.759 395.7 287.065 395.739 287.313 395.739C287.599 395.74 287.847 395.701 288.055 395.623C288.302 395.506 288.543 395.35 288.778 395.154C289.026 394.946 289.208 394.706 289.325 394.432C289.456 394.146 289.508 393.833 289.482 393.495C289.456 393.143 289.307 392.759 289.034 392.342C288.787 392.042 288.487 391.808 288.136 391.638C287.824 391.495 287.426 391.403 286.945 391.364C286.476 391.325 285.897 391.435 285.206 391.695L285.126 395.132ZM299.564 389.107C299.902 389.108 300.254 389.173 300.618 389.303C300.983 389.421 301.334 389.577 301.672 389.773C302.011 389.955 302.317 390.158 302.59 390.379C302.876 390.588 303.111 390.79 303.293 390.985C303.618 391.337 303.839 391.812 303.956 392.411C304.086 392.997 304.111 393.603 304.033 394.228C303.954 394.84 303.771 395.419 303.484 395.966C303.198 396.512 302.8 396.916 302.292 397.176C301.927 397.358 301.569 397.501 301.218 397.605C300.866 397.709 300.527 397.786 300.202 397.838C299.876 397.89 299.57 397.916 299.284 397.916C298.997 397.916 298.75 397.909 298.542 397.896C298.151 397.869 297.741 397.732 297.311 397.485C296.895 397.237 296.498 396.931 296.121 396.566C295.756 396.201 295.444 395.804 295.184 395.374C294.924 394.931 294.768 394.514 294.716 394.123C294.638 393.59 294.626 393.03 294.678 392.444C294.731 391.858 294.92 391.318 295.246 390.823C295.585 390.329 296.093 389.919 296.77 389.594C297.461 389.269 298.392 389.107 299.564 389.107ZM298.914 396.685C299.057 396.711 299.252 396.679 299.5 396.588C299.747 396.484 299.988 396.321 300.223 396.1C300.47 395.879 300.685 395.599 300.868 395.261C301.063 394.909 301.181 394.486 301.22 393.991C301.26 393.51 301.26 393.067 301.221 392.663C301.195 392.26 301.137 391.908 301.046 391.608C300.955 391.296 300.851 391.042 300.734 390.846C300.617 390.651 300.494 390.514 300.363 390.436C300.142 390.319 299.875 390.227 299.563 390.162C299.25 390.084 298.983 390.097 298.762 390.201C298.658 390.253 298.527 390.363 298.371 390.532C298.215 390.701 298.058 390.916 297.902 391.177C297.745 391.424 297.602 391.71 297.472 392.036C297.354 392.361 297.269 392.7 297.217 393.051C297.165 393.403 297.151 393.78 297.177 394.184C297.216 394.587 297.3 394.972 297.43 395.336C297.56 395.688 297.742 395.994 297.976 396.255C298.224 396.502 298.536 396.646 298.914 396.685ZM306.438 389.952C306.503 389.874 306.542 389.731 306.555 389.522C306.582 389.301 306.634 389.054 306.712 388.78C306.804 388.507 306.953 388.221 307.162 387.921C307.371 387.622 307.709 387.342 308.178 387.082C308.634 386.822 309.077 386.666 309.507 386.614C309.936 386.563 310.347 386.582 310.737 386.674C311.128 386.765 311.492 386.909 311.831 387.104C312.182 387.3 312.501 387.515 312.787 387.75C312.982 387.906 313.138 388.134 313.255 388.433C313.372 388.72 313.463 389.046 313.528 389.41C313.593 389.775 313.638 390.159 313.664 390.563C313.703 390.953 313.729 391.337 313.741 391.715C313.754 392.08 313.76 392.418 313.76 392.731C313.773 393.03 313.799 393.278 313.838 393.473C313.89 393.759 313.981 394.007 314.111 394.215C314.241 394.411 314.384 394.58 314.54 394.723C314.696 394.854 314.852 394.958 315.009 395.036C315.165 395.115 315.301 395.173 315.419 395.212C315.497 395.251 315.568 395.278 315.633 395.291C315.764 395.343 315.855 395.343 315.907 395.291C315.829 395.473 315.757 395.629 315.692 395.759C315.626 395.89 315.574 396 315.535 396.091C315.483 396.195 315.437 396.28 315.398 396.345C315.359 396.423 315.314 396.495 315.261 396.56C315.222 396.625 315.17 396.697 315.105 396.775C315.04 396.853 314.975 396.937 314.909 397.028C314.74 396.963 314.578 396.885 314.421 396.794C314.278 396.702 314.148 396.618 314.031 396.54C313.888 396.448 313.758 396.357 313.64 396.266C313.523 396.175 313.413 396.07 313.309 395.953C313.218 395.849 313.12 395.738 313.016 395.621C312.925 395.504 312.847 395.373 312.782 395.23C312.704 395.399 312.515 395.64 312.215 395.952C311.928 396.265 311.55 396.551 311.082 396.811C310.613 397.058 310.066 397.233 309.441 397.337C308.828 397.441 308.151 397.369 307.409 397.121C307.084 397.016 306.778 396.866 306.492 396.671C306.205 396.462 305.958 396.215 305.75 395.928C305.555 395.642 305.412 395.316 305.321 394.951C305.243 394.574 305.25 394.157 305.342 393.701C305.433 393.246 305.596 392.862 305.831 392.549C306.065 392.237 306.345 391.983 306.671 391.788C306.997 391.593 307.361 391.444 307.765 391.34C308.169 391.236 308.586 391.165 309.015 391.126C309.354 391.113 309.692 391.133 310.031 391.185C310.317 391.237 310.617 391.335 310.929 391.479C311.241 391.609 311.508 391.811 311.729 392.085C311.717 391.395 311.691 390.848 311.652 390.444C311.627 390.027 311.601 389.708 311.575 389.487C311.523 389.227 311.478 389.044 311.439 388.94C311.374 388.849 311.302 388.745 311.224 388.627C311.159 388.51 311.074 388.406 310.97 388.315C310.866 388.21 310.736 388.126 310.58 388.06C310.424 387.995 310.241 387.969 310.033 387.982C309.812 387.995 309.636 388.053 309.506 388.157C309.375 388.261 309.271 388.385 309.193 388.528C309.128 388.658 309.088 388.802 309.075 388.958C309.062 389.114 309.069 389.251 309.095 389.368C309.121 389.446 309.16 389.531 309.212 389.622C309.264 389.7 309.335 389.785 309.426 389.876C309.517 389.967 309.641 390.046 309.797 390.111C309.498 390.15 309.231 390.182 308.996 390.208C308.762 390.221 308.56 390.24 308.391 390.266C308.195 390.292 308.026 390.311 307.883 390.324C307.74 390.337 307.57 390.363 307.375 390.402C307.206 390.428 306.997 390.46 306.75 390.499C306.503 390.538 306.216 390.59 305.891 390.655C305.969 390.564 306.04 390.479 306.106 390.401C306.171 390.31 306.229 390.232 306.282 390.167C306.334 390.089 306.386 390.017 306.438 389.952ZM309.366 392.278C309.132 392.291 308.897 392.35 308.663 392.454C308.428 392.545 308.22 392.681 308.037 392.863C307.855 393.033 307.699 393.234 307.568 393.469C307.451 393.69 307.392 393.937 307.392 394.211C307.392 394.484 307.457 394.725 307.587 394.933C307.73 395.129 307.912 395.292 308.133 395.422C308.368 395.552 308.615 395.631 308.875 395.657C309.149 395.683 309.416 395.657 309.676 395.579C309.924 395.488 310.158 395.345 310.38 395.15C310.601 394.942 310.79 394.721 310.946 394.487C311.103 394.239 311.214 393.998 311.279 393.764C311.344 393.517 311.351 393.315 311.299 393.159C311.195 392.82 310.961 392.586 310.596 392.455C310.232 392.312 309.822 392.253 309.366 392.278ZM315.521 388.513C315.768 388.526 315.99 388.533 316.185 388.533C316.393 388.52 316.569 388.507 316.712 388.495C316.882 388.482 317.031 388.469 317.162 388.456C317.357 388.43 317.559 388.397 317.767 388.359C317.949 388.333 318.138 388.3 318.334 388.261C318.542 388.209 318.744 388.151 318.939 388.086C318.861 388.281 318.796 388.45 318.744 388.594C318.691 388.737 318.652 388.86 318.626 388.965C318.587 389.082 318.567 389.179 318.567 389.258C318.554 389.349 318.548 389.459 318.548 389.59C318.534 389.811 318.534 390.169 318.547 390.664C319.224 390.078 319.791 389.623 320.247 389.298C320.716 388.973 321.087 388.719 321.361 388.537C321.686 388.329 321.94 388.192 322.123 388.127C322.605 388.049 323.028 388.16 323.392 388.46C323.548 388.591 323.698 388.766 323.841 388.988C323.984 389.196 324.108 389.476 324.211 389.828C324.315 390.18 324.393 390.603 324.445 391.098C324.497 391.579 324.503 392.159 324.463 392.836C324.19 392.862 323.942 392.888 323.721 392.914C323.513 392.939 323.337 392.959 323.194 392.972C323.024 392.998 322.868 393.011 322.725 393.01L322.197 393.069C322.015 393.095 321.787 393.121 321.514 393.146C321.253 393.159 320.934 393.185 320.557 393.224C321.104 392.781 321.456 392.398 321.612 392.072C321.782 391.734 321.854 391.454 321.828 391.233C321.802 390.985 321.685 390.77 321.477 390.588C321.229 390.444 320.962 390.392 320.676 390.431C320.428 390.457 320.142 390.567 319.816 390.762C319.491 390.957 319.145 391.322 318.78 391.855C318.806 392.689 318.831 393.379 318.857 393.926C318.896 394.473 318.928 394.915 318.954 395.254C318.992 395.645 319.025 395.951 319.051 396.172C319.09 396.367 319.168 396.576 319.285 396.797C319.376 396.979 319.506 397.181 319.675 397.403C319.844 397.624 320.065 397.846 320.338 398.067C319.766 398.041 319.297 398.041 318.932 398.066C318.711 398.079 318.515 398.092 318.346 398.105C318.164 398.131 317.969 398.157 317.76 398.183C317.578 398.209 317.363 398.235 317.116 398.26C316.881 398.299 316.621 398.338 316.334 398.377C316.439 398.234 316.523 398.065 316.589 397.869C316.654 397.687 316.706 397.511 316.745 397.342C316.797 397.147 316.837 396.945 316.863 396.737C316.876 396.555 316.883 396.281 316.883 395.917C316.896 395.552 316.89 395.142 316.864 394.686C316.852 394.217 316.832 393.735 316.807 393.241C316.781 392.733 316.749 392.258 316.71 391.815C316.671 391.372 316.626 390.988 316.574 390.662C316.535 390.324 316.49 390.089 316.438 389.959C316.373 389.803 316.295 389.647 316.204 389.49C316.126 389.347 316.028 389.197 315.911 389.041C315.794 388.871 315.664 388.696 315.521 388.513ZM334.88 382.921C335.128 382.935 335.395 382.941 335.681 382.942C335.929 382.942 336.209 382.948 336.521 382.962C336.847 382.962 337.185 382.949 337.537 382.923C337.224 383.066 336.95 383.274 336.716 383.548C336.481 383.821 336.292 384.094 336.149 384.368C335.966 384.693 335.816 385.031 335.699 385.383C335.634 385.591 335.581 385.962 335.542 386.496C335.503 387.017 335.47 387.629 335.443 388.332C335.429 389.035 335.422 389.777 335.422 390.559C335.421 391.34 335.427 392.089 335.44 392.805C335.452 393.508 335.471 394.133 335.497 394.68C335.523 395.227 335.555 395.611 335.594 395.832C335.646 396.093 335.711 396.34 335.789 396.574C335.854 396.783 335.938 396.998 336.042 397.219C336.146 397.428 336.276 397.597 336.432 397.727L334.44 398.624C334.336 398.481 334.251 398.331 334.186 398.175C334.121 398.032 334.069 397.901 334.03 397.784C333.978 397.641 333.946 397.511 333.933 397.393C333.907 397.237 333.881 397.068 333.855 396.886C333.829 396.69 333.797 396.508 333.758 396.339C333.732 396.156 333.712 396.007 333.699 395.889C333.686 395.772 333.686 395.701 333.7 395.675C333.713 395.648 333.634 395.766 333.465 396.026C333.295 396.273 333.041 396.566 332.703 396.904C332.377 397.23 331.973 397.548 331.491 397.86C331.009 398.16 330.468 398.348 329.869 398.426C329.257 398.503 328.691 398.386 328.17 398.073C327.663 397.76 327.227 397.324 326.863 396.763C326.499 396.19 326.219 395.533 326.024 394.79C325.843 394.035 325.772 393.267 325.811 392.485C325.838 391.965 325.955 391.502 326.164 391.099C326.372 390.682 326.633 390.324 326.946 390.025C327.271 389.713 327.623 389.453 328.001 389.245C328.392 389.024 328.769 388.842 329.134 388.699C329.512 388.556 329.863 388.452 330.189 388.387C330.515 388.322 330.775 388.277 330.97 388.251C331.205 388.238 331.472 388.277 331.771 388.368C332.031 388.447 332.331 388.577 332.669 388.76C333.021 388.942 333.411 389.216 333.841 389.581C333.763 388.279 333.692 387.237 333.628 386.456C333.563 385.661 333.499 385.056 333.434 384.639C333.369 384.144 333.311 383.806 333.259 383.623C333.194 383.493 333.109 383.363 333.005 383.233C332.914 383.128 332.797 383.024 332.654 382.92C332.524 382.803 332.368 382.711 332.185 382.646C332.524 382.711 332.849 382.757 333.162 382.784C333.474 382.81 333.761 382.836 334.021 382.862C334.321 382.889 334.607 382.908 334.88 382.921ZM329.973 390.203C329.725 390.294 329.524 390.45 329.367 390.671C329.224 390.893 329.106 391.16 329.015 391.472C328.924 391.771 328.858 392.097 328.819 392.448C328.793 392.787 328.773 393.119 328.76 393.444C328.759 393.757 328.759 394.043 328.759 394.304C328.759 394.564 328.759 394.76 328.759 394.89C328.759 394.968 328.772 395.111 328.797 395.319C328.836 395.515 328.914 395.723 329.031 395.945C329.148 396.153 329.311 396.342 329.519 396.511C329.74 396.681 330.033 396.766 330.398 396.766C330.697 396.74 331.017 396.636 331.355 396.454C331.655 396.298 331.994 396.051 332.371 395.713C332.762 395.361 333.179 394.86 333.622 394.21C333.597 393.793 333.577 393.448 333.565 393.174C333.565 392.901 333.558 392.68 333.545 392.51C333.533 392.315 333.526 392.159 333.526 392.042L333.527 391.749C333.527 391.67 333.527 391.586 333.527 391.495C333.527 391.404 333.533 391.319 333.546 391.241C333.182 390.98 332.857 390.759 332.57 390.576C332.297 390.381 332.024 390.237 331.75 390.146C331.49 390.041 331.217 389.996 330.93 390.008C330.657 390.008 330.338 390.073 329.973 390.203Z" fill="#FFFEFF"/>
</g>
<path d="M317.507 159.518L320.249 159.52L320.258 147.567L332.211 147.576L332.213 144.88L320.26 144.872L320.268 132.872L317.526 132.87L317.518 144.87L305.564 144.862L305.563 147.557L317.516 147.565L317.507 159.518ZM322.897 160.483L316.546 160.479L316.554 148.526L304.601 148.517L304.604 143.9L316.557 143.908L316.566 131.908L322.917 131.913L322.909 143.913L334.862 143.921L334.859 148.539L322.906 148.53L322.897 160.483Z" fill="#833187"/>
</g>
<defs>
<filter id="filter0_d_202_283" x="247.204" y="84.8231" width="122.201" height="136.221" filterUnits="userSpaceOnUse" color-interpolation-filters="sRGB">
<feFlood flood-opacity="0" result="BackgroundImageFix"/>
<feColorMatrix in="SourceAlpha" type="matrix" values="0 0 0 0 0 0 0 0 0 0 0 0 0 0 0 0 0 0 127 0" result="hardAlpha"/>
<feOffset dy="4"/>
<feGaussianBlur stdDeviation="2"/>
<feComposite in2="hardAlpha" operator="out"/>
<feColorMatrix type="matrix" values="0 0 0 0 0 0 0 0 0 0 0 0 0 0 0 0 0 0 0.25 0"/>
<feBlend mode="normal" in2="BackgroundImageFix" result="effect1_dropShadow_202_283"/>
<feBlend mode="normal" in="SourceGraphic" in2="effect1_dropShadow_202_283" result="shape"/>
</filter>
<filter id="filter1_d_202_283" x="233.682" y="382.579" width="107.855" height="24.0472" filterUnits="userSpaceOnUse" color-interpolation-filters="sRGB">
<feFlood flood-opacity="0" result="BackgroundImageFix"/>
<feColorMatrix in="SourceAlpha" type="matrix" values="0 0 0 0 0 0 0 0 0 0 0 0 0 0 0 0 0 0 127 0" result="hardAlpha"/>
<feOffset dy="4"/>
<feGaussianBlur stdDeviation="2"/>
<feComposite in2="hardAlpha" operator="out"/>
<feColorMatrix type="matrix" values="0 0 0 0 0 0 0 0 0 0 0 0 0 0 0 0 0 0 0.25 0"/>
<feBlend mode="normal" in2="BackgroundImageFix" result="effect1_dropShadow_202_283"/>
<feBlend mode="normal" in="SourceGraphic" in2="effect1_dropShadow_202_283" result="shape"/>
</filter>
<clipPath id="clip0_202_283">
<rect width="1000" height="1000" fill="white" transform="translate(1.354 0.646118) rotate(0.040573)"/>
</clipPath>
</defs>
</svg>
