<svg width="1000" height="1000" viewBox="0 0 1000 1000" fill="none" xmlns="http://www.w3.org/2000/svg">
<path d="M972.14 628.2L972.14 638.61C972.141 661.414 966.257 683.832 955.058 703.696C943.858 723.56 927.722 740.198 908.21 752C904.381 754.323 900.432 756.442 896.38 758.35C895.68 758.69 894.97 759.02 894.26 759.35C889.384 761.564 884.374 763.471 879.26 765.06L877.87 765.48C865.494 769.169 852.644 771.029 839.73 771L786 771C778.756 771.003 771.809 773.882 766.688 779.005C761.567 784.129 758.69 791.076 758.69 798.32L758.69 900.24L302 900.24L302 798.33C302.006 792.835 300.352 787.467 297.254 782.929C294.156 778.391 289.759 774.895 284.64 772.9C283.87 772.6 283.09 772.33 282.29 772.09C281.303 771.807 280.302 771.58 279.29 771.41C277.768 771.14 276.225 771.006 274.68 771.01L184.3 771.01C182.87 771.01 181.46 771.01 180.04 770.95C169.177 770.625 158.392 769.01 147.91 766.14C146.78 765.83 145.65 765.51 144.53 765.14C137.515 763.029 130.683 760.354 124.1 757.14C113.914 752.182 104.382 745.981 95.7198 738.68C92.6998 736.14 89.7965 733.473 87.0098 730.68C70.1981 713.852 58.0333 692.956 51.7013 670.027C45.3692 647.099 45.0858 622.921 50.8789 599.851C56.6719 576.78 68.3437 555.604 84.7564 538.387C101.169 521.17 121.763 508.499 144.53 501.61C145.65 501.27 146.78 500.95 147.91 500.61C159.767 497.365 172.007 495.727 184.3 495.74L290.35 495.74C292.799 495.741 295.242 495.489 297.64 494.99L297.93 494.93C304.64 493.482 310.789 490.127 315.64 485.27C316.619 484.291 317.538 483.252 318.39 482.16L318.39 482.11C319.396 480.843 320.311 479.506 321.13 478.11L321.13 478.06C324.314 472.628 326.007 466.452 326.038 460.156C326.069 453.859 324.437 447.667 321.306 442.204C318.175 436.741 313.657 432.202 308.209 429.046C302.761 425.89 296.576 424.228 290.28 424.23L111.47 424.23C94.9447 424.22 78.7931 419.314 65.0552 410.129C51.3174 400.945 40.6096 387.896 34.2844 372.629C27.9592 357.362 26.3004 340.563 29.5176 324.355C32.7347 308.146 40.6835 293.254 52.3598 281.56L52.9998 281L53.2598 280.75C68.8475 265.584 89.7416 257.105 111.49 257.12C128.689 257.116 145.27 250.706 158 239.14C159.07 238.14 160.1 237.14 161.11 236.14C172.652 224.34 179.581 208.792 180.64 192.32C180.74 190.82 180.79 189.32 180.79 187.78C180.79 161.81 191.106 136.904 209.47 118.54C227.833 100.177 252.74 89.86 278.71 89.86L844.71 89.86C862.688 89.8587 880.189 95.6519 894.615 106.38C909.042 117.109 919.627 132.202 924.8 149.42C927.125 157.225 928.31 165.326 928.32 173.47C928.32 176.37 928.17 179.23 927.89 182.05C927.535 185.505 926.967 188.935 926.19 192.32C921.921 210.731 911.544 227.154 896.747 238.912C881.951 250.67 863.609 257.07 844.71 257.07L776.71 257.07C770.765 257.06 764.869 258.148 759.32 260.28C757.296 261.05 755.328 261.959 753.43 263C745.74 267.229 739.326 273.445 734.86 281C734.26 282 733.69 283.07 733.16 284.14C729.843 290.845 728.131 298.229 728.16 305.71L728.16 306C728.16 307.5 728.25 309 728.39 310.44C728.973 316.412 730.669 322.222 733.39 327.57C733.78 328.34 734.19 329.1 734.62 329.84C738.875 337.269 745.016 343.443 752.423 347.738C759.829 352.033 768.238 354.297 776.8 354.3C777.62 354.3 778.42 354.3 779.23 354.35L779.45 354.35C788.554 354.714 797.468 357.062 805.57 361.23C818.87 368.073 829.313 379.412 835.04 393.23C835.04 393.34 835.13 393.44 835.17 393.55C836.962 397.928 838.244 402.498 838.99 407.17C839.537 410.526 839.812 413.92 839.81 417.32L839.81 460.32C839.807 461.947 839.901 463.574 840.09 465.19C841.039 473.751 844.484 481.844 849.995 488.463C855.507 495.083 862.842 499.936 871.09 502.42L871.36 502.5C879.202 504.848 886.885 507.701 894.36 511.04L896.48 512.04C900.4 513.86 904.36 515.88 908.31 518.12C919.727 524.487 930.168 532.466 939.31 541.81C943.539 546.164 947.418 550.845 950.91 555.81C951.75 557 952.56 558.21 953.36 559.44C959.032 568.245 963.451 577.797 966.49 587.82C970.37 600.924 972.274 614.534 972.14 628.2Z" fill="#F1DBF2"/>
<path d="M636.1 541.75L607.16 541.75L598.75 447.92C598.699 447.332 598.77 446.739 598.961 446.18C599.151 445.621 599.456 445.107 599.856 444.673C600.256 444.238 600.742 443.891 601.283 443.655C601.825 443.419 602.409 443.298 603 443.3L623.4 443.3C624.46 443.298 625.482 443.694 626.265 444.408C627.048 445.122 627.535 446.104 627.63 447.16L636.1 541.75Z" fill="#F9E7D9"/>
<path d="M617.22 499.47C622.091 499.47 626.04 495.521 626.04 490.65C626.04 485.779 622.091 481.83 617.22 481.83C612.349 481.83 608.4 485.779 608.4 490.65C608.4 495.521 612.349 499.47 617.22 499.47Z" fill="#EFD6C5"/>
<path d="M574.89 443.3L593.29 443.3C594.688 443.3 596.028 443.855 597.017 444.844C598.005 445.832 598.56 447.172 598.56 448.57L598.56 541.76L569.62 541.76L569.62 448.57C569.62 447.172 570.175 445.832 571.164 444.844C572.152 443.855 573.492 443.3 574.89 443.3Z" fill="#F9E7D9"/>
<path d="M584.09 499.47C588.961 499.47 592.91 495.521 592.91 490.65C592.91 485.779 588.961 481.83 584.09 481.83C579.219 481.83 575.27 485.779 575.27 490.65C575.27 495.521 579.219 499.47 584.09 499.47Z" fill="#EFD6C5"/>
<path d="M809.11 536.3L809.11 518.26C809.11 515.25 806.67 512.81 803.66 512.81L716.11 512.81C713.1 512.81 710.66 515.25 710.66 518.26L710.66 536.3C710.66 539.31 713.1 541.75 716.11 541.75L803.66 541.75C806.67 541.75 809.11 539.31 809.11 536.3Z" fill="#F9E7D9"/>
<path d="M761.76 536.1C766.631 536.1 770.58 532.151 770.58 527.28C770.58 522.409 766.631 518.46 761.76 518.46C756.889 518.46 752.94 522.409 752.94 527.28C752.94 532.151 756.889 536.1 761.76 536.1Z" fill="#EFD6C5"/>
<path d="M821.48 507.35L821.48 489.31C821.48 486.3 819.04 483.86 816.03 483.86L728.48 483.86C725.47 483.86 723.03 486.3 723.03 489.31L723.03 507.35C723.03 510.36 725.47 512.8 728.48 512.8L816.03 512.8C819.04 512.8 821.48 510.36 821.48 507.35Z" fill="#F9E7D9"/>
<path d="M774.13 507.16C779.001 507.16 782.95 503.211 782.95 498.34C782.95 493.469 779.001 489.52 774.13 489.52C769.259 489.52 765.31 493.469 765.31 498.34C765.31 503.211 769.259 507.16 774.13 507.16Z" fill="#EFD6C5"/>
<path d="M690.6 614.43L649.65 614.43C646.612 614.43 644.15 616.892 644.15 619.93L644.15 649.39C644.15 652.428 646.612 654.89 649.65 654.89L690.6 654.89C693.637 654.89 696.1 652.428 696.1 649.39L696.1 619.93C696.1 616.892 693.637 614.43 690.6 614.43Z" fill="#F9E7D9"/>
<path d="M670.13 645.16C675.929 645.16 680.63 640.459 680.63 634.66C680.63 628.861 675.929 624.16 670.13 624.16C664.331 624.16 659.63 628.861 659.63 634.66C659.63 640.459 664.331 645.16 670.13 645.16Z" fill="#E8D1C1"/>
<path d="M664.88 635.73C665.471 635.73 665.95 635.251 665.95 634.66C665.95 634.069 665.471 633.59 664.88 633.59C664.289 633.59 663.81 634.069 663.81 634.66C663.81 635.251 664.289 635.73 664.88 635.73Z" fill="#D3AA94"/>
<path d="M675.92 635.73C676.511 635.73 676.99 635.251 676.99 634.66C676.99 634.069 676.511 633.59 675.92 633.59C675.329 633.59 674.85 634.069 674.85 634.66C674.85 635.251 675.329 635.73 675.92 635.73Z" fill="#D3AA94"/>
<path d="M950.84 555.8L554.43 555.8L554.43 541.8L939.24 541.8C943.47 546.154 947.348 550.835 950.84 555.8Z" fill="#F9E7D9"/>
<path d="M746.66 343.85L554.43 343.85L554.43 329.8L734.53 329.8C737.635 335.218 741.753 339.988 746.66 343.85Z" fill="#F9E7D9"/>
<path d="M546.84 230C548.853 230 550.784 230.8 552.207 232.223C553.63 233.646 554.43 235.577 554.43 237.59L554.43 900.24L539.25 900.24L539.25 237.57C539.25 235.557 540.05 233.626 541.473 232.203C542.896 230.78 544.827 229.98 546.84 229.98L546.84 230Z" fill="#F9E7D9"/>
<path d="M684.45 152.99L634.16 152.99C632.669 152.99 631.46 154.199 631.46 155.69L631.46 173.71C631.46 175.201 632.669 176.41 634.16 176.41L684.45 176.41C685.941 176.41 687.15 175.201 687.15 173.71L687.15 155.69C687.15 154.199 685.941 152.99 684.45 152.99Z" fill="#F2E1D3"/>
<path d="M646.26 185.34L595.97 185.34C594.479 185.34 593.27 186.549 593.27 188.04L593.27 206.06C593.27 207.551 594.479 208.76 595.97 208.76L646.26 208.76C647.751 208.76 648.96 207.551 648.96 206.06L648.96 188.04C648.96 186.549 647.751 185.34 646.26 185.34Z" fill="#F9EEE4"/>
<path d="M576.67 185.34L526.38 185.34C524.889 185.34 523.68 186.549 523.68 188.04L523.68 206.06C523.68 207.551 524.889 208.76 526.38 208.76L576.67 208.76C578.161 208.76 579.37 207.551 579.37 206.06L579.37 188.04C579.37 186.549 578.161 185.34 576.67 185.34Z" fill="#F9EEE4"/>
<path d="M721.01 185.34L670.72 185.34C669.229 185.34 668.02 186.549 668.02 188.04L668.02 206.06C668.02 207.551 669.229 208.76 670.72 208.76L721.01 208.76C722.501 208.76 723.71 207.551 723.71 206.06L723.71 188.04C723.71 186.549 722.501 185.34 721.01 185.34Z" fill="#F9E7D9"/>
<path d="M614.32 218.27L564.03 218.27C562.539 218.27 561.33 219.479 561.33 220.97L561.33 238.99C561.33 240.481 562.539 241.69 564.03 241.69L614.32 241.69C615.811 241.69 617.02 240.481 617.02 238.99L617.02 220.97C617.02 219.479 615.811 218.27 614.32 218.27Z" fill="#F9E7D9"/>
<path d="M283.1 605.44L232.81 605.44C231.319 605.44 230.11 606.649 230.11 608.14L230.11 626.16C230.11 627.651 231.319 628.86 232.81 628.86L283.1 628.86C284.591 628.86 285.8 627.651 285.8 626.16L285.8 608.14C285.8 606.649 284.591 605.44 283.1 605.44Z" fill="#F2E1D3"/>
<path d="M244.91 637.79L194.62 637.79C193.129 637.79 191.92 638.999 191.92 640.49L191.92 658.51C191.92 660.001 193.129 661.21 194.62 661.21L244.91 661.21C246.401 661.21 247.61 660.001 247.61 658.51L247.61 640.49C247.61 638.999 246.401 637.79 244.91 637.79Z" fill="#F9EEE4"/>
<path d="M175.32 637.79L125.03 637.79C123.539 637.79 122.33 638.999 122.33 640.49L122.33 658.51C122.33 660.001 123.539 661.21 125.03 661.21L175.32 661.21C176.811 661.21 178.02 660.001 178.02 658.51L178.02 640.49C178.02 638.999 176.811 637.79 175.32 637.79Z" fill="#F9EEE4"/>
<path d="M319.65 637.79L269.36 637.79C267.869 637.79 266.66 638.999 266.66 640.49L266.66 658.51C266.66 660.001 267.869 661.21 269.36 661.21L319.65 661.21C321.141 661.21 322.35 660.001 322.35 658.51L322.35 640.49C322.35 638.999 321.141 637.79 319.65 637.79Z" fill="#F9E7D9"/>
<path d="M212.97 670.72L162.68 670.72C161.189 670.72 159.98 671.929 159.98 673.42L159.98 691.44C159.98 692.931 161.189 694.14 162.68 694.14L212.97 694.14C214.461 694.14 215.67 692.931 215.67 691.44L215.67 673.42C215.67 671.929 214.461 670.72 212.97 670.72Z" fill="#F9E7D9"/>
<path d="M165.67 292.17L120.24 292.17C118.892 292.17 117.8 293.262 117.8 294.61L117.8 310.89C117.8 312.238 118.892 313.33 120.24 313.33L165.67 313.33C167.017 313.33 168.11 312.238 168.11 310.89L168.11 294.61C168.11 293.262 167.017 292.17 165.67 292.17Z" fill="#F2E1D3"/>
<path d="M131.17 321.4L85.7398 321.4C84.3922 321.4 83.2998 322.492 83.2998 323.84L83.2998 340.12C83.2998 341.468 84.3922 342.56 85.7398 342.56L131.17 342.56C132.517 342.56 133.61 341.468 133.61 340.12L133.61 323.84C133.61 322.492 132.517 321.4 131.17 321.4Z" fill="#F9EEE4"/>
<path d="M198.7 321.4L153.27 321.4C151.923 321.4 150.83 322.492 150.83 323.84L150.83 340.12C150.83 341.468 151.923 342.56 153.27 342.56L198.7 342.56C200.048 342.56 201.14 341.468 201.14 340.12L201.14 323.84C201.14 322.492 200.048 321.4 198.7 321.4Z" fill="#F9E7D9"/>
<path d="M823.28 650.27L777.85 650.27C776.503 650.27 775.41 651.362 775.41 652.71L775.41 668.99C775.41 670.338 776.503 671.43 777.85 671.43L823.28 671.43C824.628 671.43 825.72 670.338 825.72 668.99L825.72 652.71C825.72 651.362 824.628 650.27 823.28 650.27Z" fill="#F2E1D3"/>
<path d="M788.78 679.5L743.35 679.5C742.003 679.5 740.91 680.592 740.91 681.94L740.91 698.22C740.91 699.568 742.003 700.66 743.35 700.66L788.78 700.66C790.128 700.66 791.22 699.568 791.22 698.22L791.22 681.94C791.22 680.592 790.128 679.5 788.78 679.5Z" fill="#F9EEE4"/>
<path d="M856.31 679.5L810.88 679.5C809.532 679.5 808.44 680.592 808.44 681.94L808.44 698.22C808.44 699.568 809.532 700.66 810.88 700.66L856.31 700.66C857.658 700.66 858.75 699.568 858.75 698.22L858.75 681.94C858.75 680.592 857.658 679.5 856.31 679.5Z" fill="#F9E7D9"/>
<path d="M81.9602 917.85L138.42 917.85C143.28 917.85 147.22 913.91 147.22 909.05L147.22 909.04C147.22 904.18 143.28 900.24 138.42 900.24L81.9602 900.24C77.1001 900.24 73.1602 904.18 73.1602 909.04L73.1602 909.05C73.1602 913.91 77.1001 917.85 81.9602 917.85Z" fill="#A66633"/>
<path d="M163.19 917.85L955.53 917.85C960.39 917.85 964.33 913.91 964.33 909.05L964.33 909.04C964.33 904.18 960.39 900.24 955.53 900.24L163.19 900.24C158.33 900.24 154.39 904.18 154.39 909.04L154.39 909.05C154.39 913.91 158.33 917.85 163.19 917.85Z" fill="#A66633"/>
<path d="M494.26 374.466L494.268 374.46C507.98 362.843 509.679 342.31 498.063 328.598L434.438 253.495C422.822 239.783 402.289 238.084 388.577 249.701L388.569 249.707C374.857 261.324 373.158 281.857 384.774 295.569L448.399 370.672C460.015 384.384 480.548 386.083 494.26 374.466Z" fill="#DEE4EB"/>
<path d="M637.1 315.433L637.098 315.423C636.315 310.974 632.072 308.002 627.623 308.786L602.48 313.215C598.031 313.999 595.06 318.241 595.843 322.69L595.845 322.7C596.629 327.149 600.871 330.12 605.32 329.337L630.463 324.908C634.912 324.124 637.884 319.882 637.1 315.433Z" fill="#EF927F"/>
<path d="M630.49 324.92L605.37 329.35C604.898 329.438 604.419 329.481 603.94 329.48C602.467 329.48 601.022 329.079 599.76 328.32C600.572 328.417 601.393 328.396 602.2 328.26L627.33 323.83C628.976 323.542 630.494 322.757 631.681 321.581C632.867 320.404 633.665 318.893 633.967 317.249C634.268 315.606 634.06 313.909 633.368 312.388C632.677 310.867 631.536 309.594 630.1 308.74C632.048 308.98 633.844 309.912 635.162 311.366C636.48 312.82 637.231 314.7 637.278 316.662C637.326 318.624 636.666 320.537 635.42 322.053C634.174 323.569 632.424 324.587 630.49 324.92Z" fill="#EF927F"/>
<path d="M479.09 383.62C499.425 383.62 515.91 367.135 515.91 346.8C515.91 326.465 499.425 309.98 479.09 309.98C458.755 309.98 442.27 326.465 442.27 346.8C442.27 367.135 458.755 383.62 479.09 383.62Z" fill="#7B1481"/>
<path d="M603.611 304.287L603.608 304.277C598.271 289.446 581.922 281.749 567.09 287.086L472.554 321.102C457.723 326.439 450.026 342.788 455.363 357.62L455.366 357.629C460.703 372.46 477.052 380.157 491.883 374.821L586.42 340.804C601.251 335.468 608.948 319.118 603.611 304.287Z" fill="#F0A284"/>
<path d="M591.291 340.251C611.171 337.302 625.351 321.863 622.963 305.769C620.575 289.675 602.523 279.02 582.643 281.969C562.763 284.919 548.583 300.357 550.971 316.451C553.359 332.546 571.411 343.201 591.291 340.251Z" fill="#F0A284"/>
<path d="M603.611 304.287L603.608 304.277C598.271 289.446 581.922 281.749 567.09 287.086L472.554 321.102C457.723 326.439 450.026 342.788 455.363 357.62L455.366 357.629C460.703 372.46 477.052 380.157 491.883 374.821L586.42 340.804C601.251 335.468 608.948 319.118 603.611 304.287Z" fill="#E28F79"/>
<path d="M591.291 340.251C611.171 337.302 625.351 321.863 622.963 305.769C620.575 289.675 602.523 279.02 582.643 281.969C562.763 284.919 548.583 300.357 550.971 316.451C553.359 332.546 571.411 343.201 591.291 340.251Z" fill="#F0A284"/>
<path d="M623 305.78C622.572 302.975 621.654 300.268 620.29 297.78C618.54 305.68 612.99 312.78 605.09 317.63C600.147 320.613 594.655 322.572 588.94 323.39C587.415 323.614 585.88 323.761 584.34 323.83L560.27 332.5L489.49 357.9C482.822 360.313 475.493 360.151 468.938 357.445C462.383 354.739 457.074 349.684 454.05 343.27C453.236 348.082 453.684 353.023 455.35 357.61C456.613 361.142 458.56 364.389 461.081 367.166C463.601 369.944 466.645 372.196 470.038 373.794C473.431 375.392 477.106 376.304 480.853 376.479C484.599 376.653 488.343 376.086 491.87 374.81L586.4 340.81C586.482 340.783 586.563 340.749 586.64 340.71C588.197 340.643 589.749 340.493 591.29 340.26C611.16 337.31 625.35 321.86 623 305.78Z" fill="#EF927F"/>
<path d="M639.127 297.264L639.124 297.254C637.994 292.88 633.532 290.251 629.158 291.381L604.44 297.769C600.066 298.899 597.436 303.361 598.567 307.735L598.569 307.745C599.7 312.119 604.162 314.749 608.536 313.618L633.254 307.23C637.628 306.1 640.257 301.638 639.127 297.264Z" fill="#F0A284"/>
<path d="M625.286 285.387L625.284 285.377C624.5 280.928 620.258 277.957 615.809 278.74L590.666 283.169C586.217 283.953 583.245 288.195 584.029 292.644L584.031 292.654C584.814 297.103 589.056 300.075 593.506 299.291L618.649 294.862C623.098 294.079 626.069 289.836 625.286 285.387Z" fill="#F0A284"/>
<path d="M591.972 274.439L591.966 274.431C589.157 270.893 584.012 270.301 580.473 273.11L560.477 288.982C556.938 291.79 556.346 296.936 559.155 300.474L559.161 300.482C561.97 304.021 567.115 304.612 570.654 301.804L590.65 285.932C594.189 283.123 594.781 277.978 591.972 274.439Z" fill="#F0A284"/>
<path d="M565.36 322.17C574.683 322.17 582.24 314.613 582.24 305.29C582.24 295.967 574.683 288.41 565.36 288.41C556.037 288.41 548.48 295.967 548.48 305.29C548.48 314.613 556.037 322.17 565.36 322.17Z" fill="#F0A284"/>
<path d="M369.61 120.15L391.61 120.15C394.501 120.15 397.273 121.298 399.317 123.343C401.361 125.387 402.51 128.159 402.51 131.05L402.51 139.39C402.51 146.955 399.507 154.211 394.162 159.564C388.816 164.917 381.565 167.929 374 167.94C372.844 167.94 371.735 167.481 370.917 166.663C370.099 165.845 369.64 164.736 369.64 163.58L369.64 120.15L369.61 120.15Z" fill="#7B1481"/>
<path d="M523.01 509.7L336.89 509.7C330.119 509.7 324.63 515.189 324.63 521.96C324.63 528.731 330.119 534.22 336.89 534.22L523.01 534.22C529.781 534.22 535.27 528.731 535.27 521.96C535.27 515.189 529.781 509.7 523.01 509.7Z" fill="#9A463B"/>
<path d="M413.24 516.2L404.83 540.2L390.02 582.47L317.8 787.35L278.11 899.95L247.41 899.95L275.7 787.35L327.18 582.47L338.54 540.2L344.99 516.2L413.24 516.2Z" fill="#9A463B"/>
<path d="M521.79 516.2L520.42 540.2L518.01 582.47L503.56 787.35L495.61 899.95L464.91 899.95L461.46 787.35L455.17 582.47L454.12 540.2L453.53 516.2L521.79 516.2Z" fill="#9A463B"/>
<path d="M393.85 364.94L490.19 364.94C491.309 364.94 492.383 365.385 493.174 366.176C493.965 366.967 494.41 368.041 494.41 369.16C494.41 377.315 491.17 385.137 485.404 390.904C479.637 396.67 471.816 399.91 463.66 399.91L363.1 399.91L363.1 395.69C363.1 387.535 366.34 379.713 372.107 373.947C377.873 368.18 385.695 364.94 393.85 364.94Z" fill="#9A463B"/>
<path d="M440.82 392.5C440.82 383.095 433.198 375.47 423.795 375.47C414.392 375.47 406.77 383.095 406.77 392.5L406.77 517.19C406.77 526.595 414.392 534.22 423.795 534.22C433.198 534.22 440.82 526.595 440.82 517.19L440.82 392.5Z" fill="#9A463B"/>
<path d="M317.43 282.89L382 282.89C394.399 282.89 406.29 287.815 415.057 296.583C423.825 305.35 428.75 317.241 428.75 329.64L428.75 464.41C428.75 476.809 423.825 488.7 415.057 497.467C406.29 506.235 394.399 511.16 382 511.16L270.68 511.16L270.68 329.64C270.68 317.241 275.606 305.35 284.373 296.583C293.14 287.815 305.031 282.89 317.43 282.89Z" fill="#9A463B"/>
<path d="M275.7 787.35L317.8 787.35L278.11 899.95L247.41 899.95L275.7 787.35Z" fill="#6F232D"/>
<path d="M503.56 787.35L495.61 899.95L464.91 899.95L461.46 787.35L503.56 787.35Z" fill="#6F232D"/>
<path d="M515.404 713.143L516.896 749.802L458.534 752.177L457.043 715.517L515.404 713.143Z" fill="#F0A284"/>
<path d="M515.404 713.143L515.895 725.193L457.533 727.567L457.043 715.517L515.404 713.143Z" fill="#EF927F"/>
<path d="M481.75 756.85L538.66 759.19C538.845 755.435 538.285 751.68 537.012 748.143C535.739 744.605 533.778 741.355 531.242 738.579C528.707 735.803 525.646 733.557 522.238 731.969C518.83 730.382 515.141 729.485 511.385 729.331C507.628 729.176 503.878 729.767 500.351 731.069C496.824 732.371 493.59 734.359 490.835 736.917C488.08 739.476 485.859 742.554 484.299 745.975C482.74 749.396 481.874 753.092 481.75 756.85Z" fill="white"/>
<path d="M544.51 766.05L544.51 757.32C544.503 755.499 543.804 753.749 542.554 752.425C541.304 751.101 539.597 750.302 537.78 750.19L463 745.72C461.781 745.646 460.56 745.823 459.412 746.24C458.264 746.657 457.214 747.305 456.326 748.143C455.438 748.982 454.732 749.994 454.251 751.117C453.77 752.239 453.525 753.449 453.53 754.67L453.53 770.83L544.51 766.05Z" fill="#7B1481"/>
<path d="M453.52 766L453.52 774C453.52 774.427 453.604 774.85 453.769 775.245C453.933 775.639 454.173 775.997 454.476 776.298C454.779 776.599 455.139 776.838 455.534 776.999C455.929 777.161 456.353 777.243 456.78 777.24L540.43 777.02C541.728 777.017 543.013 776.759 544.212 776.259C545.41 775.76 546.498 775.029 547.414 774.109C548.33 773.188 549.055 772.096 549.548 770.896C550.042 769.695 550.294 768.408 550.29 767.11C550.287 765.812 550.029 764.528 549.529 763.33C549.029 762.132 548.298 761.045 547.378 760.13C546.457 759.215 545.366 758.49 544.165 757.998C542.964 757.506 541.678 757.255 540.38 757.26L517.74 757.32C516.626 757.323 515.524 757.545 514.496 757.973C513.469 758.402 512.535 759.029 511.75 759.818C510.964 760.607 510.342 761.544 509.918 762.573C509.494 763.603 509.277 764.706 509.28 765.82L453.52 766Z" fill="#8E4C90"/>
<path d="M368.904 657.907L385.097 634.625L432.565 667.641L416.371 690.923L368.904 657.907Z" fill="#EF927F"/>
<path d="M385.7 676.74L429.48 713.17C431.933 710.303 433.792 706.978 434.948 703.386C436.105 699.795 436.536 696.01 436.218 692.251C435.899 688.491 434.837 684.833 433.093 681.487C431.348 678.142 428.956 675.176 426.056 672.763C423.156 670.35 419.805 668.537 416.199 667.43C412.592 666.322 408.801 665.943 405.047 666.313C401.292 666.683 397.648 667.795 394.327 669.585C391.006 671.375 388.074 673.807 385.7 676.74Z" fill="#EFDADC"/>
<path d="M430 722.18L435.29 715.24C436.394 713.792 436.905 711.978 436.72 710.167C436.534 708.356 435.665 706.683 434.29 705.49L377.6 656.49C376.675 655.685 375.595 655.079 374.427 654.709C373.258 654.34 372.026 654.214 370.807 654.341C369.587 654.468 368.407 654.844 367.34 655.445C366.272 656.047 365.339 656.863 364.6 657.84L354.8 670.7L430 722.18Z" fill="#7B1481"/>
<path d="M357.71 666.86L352.71 673.45C352.469 673.764 352.292 674.123 352.19 674.505C352.089 674.888 352.063 675.286 352.116 675.679C352.169 676.071 352.299 676.449 352.499 676.791C352.699 677.132 352.964 677.431 353.28 677.67L420 728.47C421.033 729.256 422.21 729.832 423.465 730.163C424.72 730.494 426.028 730.574 427.314 730.4C428.601 730.225 429.84 729.799 430.961 729.145C432.083 728.491 433.064 727.623 433.85 726.59C434.638 725.559 435.215 724.383 435.549 723.129C435.882 721.875 435.965 720.568 435.794 719.282C435.622 717.996 435.198 716.756 434.547 715.634C433.896 714.511 433.031 713.528 432 712.74L414 699C413.115 698.325 412.105 697.831 411.028 697.546C409.952 697.262 408.83 697.192 407.726 697.342C406.623 697.491 405.56 697.857 404.598 698.418C403.636 698.978 402.794 699.723 402.12 700.61L357.71 666.86Z" fill="#8E4C90"/>
<path d="M559.77 437.74C568.354 443.71 574.216 452.846 576.065 463.138C577.914 473.43 575.599 484.035 569.63 492.62L441.63 676.62L376.9 631.62L504.9 447.62C507.854 443.368 511.616 439.74 515.972 436.942C520.329 434.144 525.193 432.232 530.288 431.315C535.384 430.397 540.61 430.493 545.668 431.595C550.727 432.697 555.519 434.785 559.77 437.74Z" fill="#7B1481"/>
<path d="M535.41 509.7L430.13 509.7C422.971 509.7 415.882 508.29 409.268 505.55C402.654 502.81 396.644 498.794 391.582 493.731C386.52 488.668 382.505 482.658 379.767 476.043C377.028 469.429 375.619 462.339 375.62 455.18L375.62 441.89C375.62 437.717 377.277 433.715 380.227 430.764C383.176 427.812 387.177 426.153 391.35 426.15L535.41 426.15C546.49 426.153 557.115 430.555 564.95 438.39C572.785 446.225 577.187 456.85 577.19 467.93C577.187 479.009 572.785 489.633 564.95 497.466C557.115 505.3 546.489 509.7 535.41 509.7Z" fill="#7B1481"/>
<path d="M317.704 455.675L388.594 455.588C404.097 455.569 416.649 442.987 416.63 427.484L416.448 278.414C416.429 262.911 403.846 250.359 388.343 250.378L317.453 250.465C301.951 250.484 289.399 263.067 289.418 278.569L289.6 427.639C289.619 443.142 302.201 455.694 317.704 455.675Z" fill="white"/>
<path d="M373.175 346.856L340.745 346.896C323.093 346.918 306.154 339.926 293.657 327.459C281.159 314.991 274.126 298.07 274.104 280.417L274.096 273.897C274.088 263.111 278.362 252.762 285.978 245.124C293.594 237.485 303.93 233.182 314.716 233.158L398.886 233.055C409.683 233.042 420.043 237.318 427.687 244.943C435.331 252.569 439.633 262.918 439.646 273.715L439.654 280.235C439.67 297.885 432.676 314.818 420.21 327.311C407.743 339.804 390.825 346.835 373.175 346.856Z" fill="white"/>
<path d="M368.61 229.44L368.61 233.07L324.33 233.12L324.3 210.89L324.29 189.82L368.56 189.78L368.61 229.44Z" fill="#F0A284"/>
<path d="M289.55 455.18C289.551 469.057 294.845 482.411 304.35 492.521C313.856 502.63 326.859 508.735 340.71 509.59C340.906 509.6 341.103 509.6 341.3 509.59C342.21 509.64 343.13 509.67 344.06 509.67L449.35 509.67C460.319 509.684 470.853 505.377 478.669 497.68C486.485 489.984 490.955 479.518 491.11 468.55C491.47 445.22 471.9 426.12 448.56 426.12L289.56 426.12L289.55 455.18Z" fill="#8E4C90"/>
<path d="M412.15 471.12L412.42 473.12L415.49 495.53L431.2 610L446.89 724.31L525.31 713.55L518.54 664.19L496.48 503.46L490.56 460.36C489.777 454.587 487.726 449.059 484.553 444.173C481.38 439.287 477.165 435.164 472.21 432.1C470.984 431.334 469.715 430.64 468.41 430.02C461.964 426.944 454.806 425.669 447.694 426.331C440.582 426.993 433.782 429.567 428.015 433.781C422.247 437.994 417.728 443.689 414.934 450.263C412.141 456.837 411.179 464.044 412.15 471.12Z" fill="#8E4C90"/>
<path d="M368.61 229.44C367.582 229.529 366.551 229.562 365.52 229.54C357.738 229.423 350.063 227.707 342.972 224.499C335.881 221.29 329.525 216.658 324.3 210.89L324.3 189.82L368.57 189.82L368.61 229.44Z" fill="#EF927F"/>
<path d="M395.09 134.24L395 143L394.34 184.3C394.19 193.37 390.446 202.01 383.93 208.321C377.415 214.632 368.66 218.099 359.59 217.96C352.119 217.844 344.744 216.257 337.886 213.291C331.028 210.324 324.822 206.036 319.621 200.67C314.421 195.304 310.329 188.967 307.578 182.02C304.827 175.072 303.472 167.651 303.59 160.18L303.99 135.31C304.132 127.104 307.523 119.289 313.418 113.579C319.314 107.869 327.233 104.73 335.44 104.85L367.07 105.36C374.613 105.481 381.8 108.59 387.053 114.005C392.307 119.419 395.197 126.697 395.09 134.24Z" fill="#F0A284"/>
<path d="M395.09 134.24L395 143C385.041 146.662 374.5 148.485 363.89 148.38C333.89 148.38 309.54 135 309.34 118.46C312.217 114.195 316.115 110.716 320.678 108.339C325.241 105.962 330.326 104.763 335.47 104.85L367.1 105.36C374.638 105.489 381.817 108.601 387.064 114.015C392.311 119.429 395.197 126.702 395.09 134.24Z" fill="#EF927F"/>
<path d="M317.93 392.5L317.93 517.2C317.93 521.717 316.136 526.048 312.942 529.242C309.748 532.436 305.417 534.23 300.9 534.23C296.384 534.23 292.052 532.436 288.858 529.242C285.664 526.048 283.87 521.717 283.87 517.2L283.87 392.5C283.865 390.359 284.273 388.237 285.07 386.25C286.503 382.537 289.193 379.444 292.672 377.51C296.15 375.577 300.197 374.925 304.107 375.669C308.017 376.412 311.542 378.504 314.068 381.58C316.594 384.656 317.961 388.52 317.93 392.5Z" fill="#DB8D5C"/>
<path d="M346.51 516.2L340.19 534.22L338.1 540.2L328.35 568.03L323.29 582.47L251.07 787.35L211.38 899.95L180.68 899.95L208.98 787.35L260.46 582.47L264.34 568.03L271.81 540.2L273.42 534.22L278.26 516.2L346.51 516.2Z" fill="#DB8D5C"/>
<path d="M455.07 516.2L454.04 534.22L453.7 540.2L452.1 568.03L451.29 582.47L436.83 787.35L428.88 899.95L398.18 899.95L394.74 787.35L388.46 582.47L388.09 568.03L387.41 540.2L387.25 534.22L386.81 516.2L455.07 516.2Z" fill="#DB8D5C"/>
<path d="M454.05 499.97L272.39 499.97C264.388 499.97 257.9 506.457 257.9 514.46L257.9 519.73C257.9 527.733 264.388 534.22 272.39 534.22L454.05 534.22C462.053 534.22 468.54 527.733 468.54 519.73L468.54 514.46C468.54 506.457 462.053 499.97 454.05 499.97Z" fill="#DB8D5C"/>
<path d="M431.32 507.08L295.13 507.08C289.878 507.08 285.62 511.338 285.62 516.59L285.62 517.59C285.62 522.842 289.878 527.1 295.13 527.1L431.32 527.1C436.572 527.1 440.83 522.842 440.83 517.59L440.83 516.59C440.83 511.338 436.572 507.08 431.32 507.08Z" fill="#F1A873"/>
<path d="M273.42 534.22L340.19 534.22L338.1 540.2L328.35 568.03L264.34 568.03L273.42 534.22Z" fill="#CB7748"/>
<path d="M454.04 534.22L453.7 540.2L452.1 568.03L388.09 568.03L387.41 540.2L387.25 534.22L454.04 534.22Z" fill="#CB7748"/>
<path d="M317.93 392.5L317.93 421.22L283.87 421.22L283.87 392.5C283.865 390.359 284.273 388.237 285.07 386.25L316.74 386.25C317.53 388.239 317.933 390.36 317.93 392.5Z" fill="#CB7748"/>
<path d="M251.07 787.35L211.38 899.95L180.68 899.95L208.98 787.35L251.07 787.35Z" fill="#CB7748"/>
<path d="M436.83 787.35L428.88 899.95L398.18 899.95L394.74 787.35L436.83 787.35Z" fill="#CB7748"/>
<path d="M271 364.94L367.34 364.94C368.459 364.94 369.533 365.385 370.324 366.176C371.116 366.967 371.56 368.041 371.56 369.16C371.56 377.315 368.32 385.137 362.554 390.904C356.787 396.67 348.966 399.91 340.81 399.91L240.2 399.91L240.2 395.69C240.2 391.648 240.997 387.645 242.546 383.911C244.094 380.177 246.364 376.785 249.224 373.929C252.085 371.073 255.481 368.809 259.217 367.266C262.954 365.724 266.958 364.933 271 364.94Z" fill="#DB8D5C"/>
<path d="M371.51 364.94L371.51 369.17C371.51 373.207 370.715 377.204 369.17 380.934C367.625 384.663 365.361 388.052 362.507 390.907C359.652 393.761 356.263 396.025 352.534 397.57C348.804 399.115 344.807 399.91 340.77 399.91L292.77 399.91C300.924 399.91 308.744 396.672 314.51 390.907C320.276 385.143 323.517 377.324 323.52 369.17L323.52 364.94L371.51 364.94Z" fill="#E9A06D"/>
<path d="M574.37 545.9L716.24 545.9L716.24 584.31L574.37 584.31L574.37 545.9Z" fill="#CB7748"/>
<path d="M752.9 901.66L738.78 901.66L726.42 787.35L682.12 377.38L679.6 354.02L710.98 354.02L712.77 377.38L744.15 787.35L752.9 901.66Z" fill="#DB8D5C"/>
<path d="M609.66 354.02L606.86 377.38L557.7 787.35L543.99 901.66L528.33 901.66L538.04 787.35L572.85 377.38L574.84 354.02L609.66 354.02Z" fill="#DB8D5C"/>
<path d="M574.84 354.02L609.66 354.02L606.86 377.38L572.85 377.38L574.84 354.02Z" fill="#CB7748"/>
<path d="M712.77 377.38L682.12 377.38L679.6 354.02L710.98 354.02L712.77 377.38Z" fill="#CB7748"/>
<path d="M728.65 342.38L561.19 342.38C555.695 342.38 551.24 346.835 551.24 352.33L551.24 357.29C551.24 362.785 555.695 367.24 561.19 367.24L728.65 367.24C734.145 367.24 738.6 362.785 738.6 357.29L738.6 352.33C738.6 346.835 734.145 342.38 728.65 342.38Z" fill="#DB8D5C"/>
<path d="M538.04 787.35L557.7 787.35L543.99 901.66L528.33 901.66L538.04 787.35Z" fill="#CB7748"/>
<path d="M752.9 901.66L738.78 901.66L726.42 787.35L744.15 787.35L752.9 901.66Z" fill="#CB7748"/>
<path d="M728.55 719C727.21 719 726.04 717.47 725.83 715.34L703.21 479.34C702.98 477 704.02 474.82 705.52 474.47C707.02 474.12 708.42 475.73 708.64 478.07L731.27 714.07C731.49 716.42 730.46 718.6 728.96 718.95C728.826 718.981 728.688 718.998 728.55 719Z" fill="#F1A873"/>
<path d="M556.34 719C557.68 719 558.85 717.47 559.06 715.34L581.68 479.34C581.91 477 580.87 474.82 579.37 474.47C577.87 474.12 576.47 475.73 576.25 478.07L553.62 714.07C553.4 716.42 554.43 718.6 555.93 718.95C556.064 718.981 556.202 718.998 556.34 719Z" fill="#F1A873"/>
<path d="M606.4 329.47L610.61 329.47C611.671 329.47 612.688 329.891 613.439 330.642C614.189 331.392 614.61 332.409 614.61 333.47L614.61 335.81L602.37 335.81L602.37 333.47C602.37 332.942 602.475 332.42 602.677 331.932C602.88 331.445 603.178 331.003 603.552 330.631C603.927 330.259 604.371 329.965 604.86 329.766C605.349 329.567 605.872 329.466 606.4 329.47Z" fill="#DEE4EB"/>
<path d="M594.14 329.47L598.35 329.47C599.411 329.47 600.428 329.891 601.179 330.642C601.929 331.392 602.35 332.409 602.35 333.47L602.35 335.81L590.12 335.81L590.12 333.47C590.12 332.943 590.224 332.421 590.427 331.935C590.629 331.448 590.925 331.006 591.299 330.635C591.672 330.263 592.116 329.969 592.603 329.769C593.091 329.569 593.613 329.467 594.14 329.47Z" fill="#DEE4EB"/>
<path d="M581.89 329.47L586.1 329.47C587.161 329.47 588.178 329.891 588.928 330.642C589.678 331.392 590.1 332.409 590.1 333.47L590.1 335.81L577.86 335.81L577.86 333.47C577.86 332.942 577.964 332.42 578.167 331.932C578.37 331.445 578.667 331.003 579.042 330.631C579.417 330.259 579.861 329.965 580.35 329.766C580.839 329.567 581.362 329.466 581.89 329.47Z" fill="#DEE4EB"/>
<path d="M569.63 329.47L573.84 329.47C574.901 329.47 575.918 329.891 576.669 330.642C577.419 331.392 577.84 332.409 577.84 333.47L577.84 335.81L565.6 335.81L565.6 333.47C565.6 332.942 565.705 332.42 565.907 331.932C566.11 331.445 566.408 331.003 566.782 330.631C567.157 330.259 567.601 329.965 568.09 329.766C568.579 329.567 569.102 329.466 569.63 329.47Z" fill="#DEE4EB"/>
<path d="M557.37 329.47L561.58 329.47C562.641 329.47 563.658 329.891 564.409 330.642C565.159 331.392 565.58 332.409 565.58 333.47L565.58 335.81L553.35 335.81L553.35 333.47C553.35 332.943 553.454 332.421 553.656 331.935C553.859 331.448 554.155 331.006 554.529 330.635C554.902 330.263 555.346 329.969 555.833 329.769C556.321 329.569 556.843 329.467 557.37 329.47Z" fill="#DEE4EB"/>
<path d="M545.12 329.47L549.33 329.47C550.391 329.47 551.408 329.891 552.158 330.642C552.908 331.392 553.33 332.409 553.33 333.47L553.33 335.81L541.09 335.81L541.09 333.47C541.09 332.942 541.194 332.42 541.397 331.932C541.6 331.445 541.897 331.003 542.272 330.631C542.647 330.259 543.091 329.965 543.58 329.766C544.069 329.567 544.592 329.466 545.12 329.47Z" fill="#DEE4EB"/>
<path d="M532.86 329.47L537.07 329.47C538.131 329.47 539.148 329.891 539.898 330.642C540.649 331.392 541.07 332.409 541.07 333.47L541.07 335.81L528.83 335.81L528.83 333.47C528.83 332.942 528.934 332.42 529.137 331.932C529.34 331.445 529.638 331.003 530.012 330.631C530.387 330.259 530.831 329.965 531.32 329.766C531.809 329.567 532.332 329.466 532.86 329.47Z" fill="#DEE4EB"/>
<path d="M654.01 330.42L498.52 330.42C495.217 330.42 492.54 333.095 492.54 336.395C492.54 339.695 495.217 342.37 498.52 342.37L654.01 342.37C657.313 342.37 659.99 339.695 659.99 336.395C659.99 333.095 657.313 330.42 654.01 330.42Z" fill="#66066C"/>
<path d="M613.86 342.37L753.58 342.37C756.428 342.371 759.194 341.422 761.441 339.672C763.687 337.922 765.285 335.472 765.98 332.71L793.21 224.52C793.685 222.634 793.723 220.665 793.321 218.763C792.92 216.86 792.09 215.074 790.894 213.541C789.698 212.007 788.169 210.767 786.421 209.914C784.673 209.062 782.754 208.619 780.81 208.62L657.49 208.62C654.643 208.619 651.878 209.569 649.634 211.319C647.389 213.069 645.793 215.519 645.1 218.28L613.86 342.37Z" fill="#8E4C90"/>
<path d="M793.21 224.52L766 332.71C765.305 335.472 763.708 337.924 761.462 339.676C759.215 341.427 756.449 342.379 753.6 342.38L613.87 342.38L616.87 330.38L727.26 330.38C730.11 330.38 732.878 329.428 735.126 327.677C737.374 325.925 738.973 323.473 739.67 320.71L766.89 212.52C767.216 211.234 767.337 209.904 767.25 208.58L780.81 208.58C782.758 208.579 784.681 209.024 786.431 209.879C788.181 210.735 789.713 211.979 790.909 213.517C792.105 215.054 792.935 216.845 793.333 218.752C793.732 220.659 793.69 222.632 793.21 224.52Z" fill="#7B1481"/>
<path d="M712.28 286.06C716.141 286.06 719.27 282.93 719.27 279.07C719.27 275.21 716.141 272.08 712.28 272.08C708.42 272.08 705.29 275.21 705.29 279.07C705.29 282.93 708.42 286.06 712.28 286.06Z" fill="#DEE4EB"/>
<path d="M721.65 289.54C720.546 291.265 719.069 292.721 717.328 293.8C715.587 294.879 713.626 295.554 711.59 295.776C709.554 295.997 707.494 295.759 705.562 295.078C703.63 294.398 701.875 293.294 700.426 291.846C698.977 290.398 697.871 288.643 697.19 286.711C696.509 284.78 696.27 282.72 696.49 280.683C696.71 278.647 697.384 276.686 698.462 274.944C699.54 273.203 700.995 271.725 702.72 270.62C701.048 273.252 700.323 276.375 700.665 279.475C701.007 282.574 702.395 285.464 704.601 287.669C706.806 289.873 709.697 291.259 712.797 291.6C715.896 291.94 719.019 291.213 721.65 289.54Z" fill="#DEE4EB"/>
<path d="M295.1 120.15L328 120.15L328 139.4C328 143.149 327.261 146.862 325.827 150.326C324.392 153.789 322.289 156.937 319.638 159.588C316.987 162.239 313.839 164.342 310.375 165.777C306.912 167.212 303.199 167.95 299.45 167.95C298.294 167.95 297.185 167.491 296.367 166.673C295.549 165.855 295.09 164.746 295.09 163.59L295.09 120.15L295.1 120.15Z" fill="#7B1481"/>
<path d="M346.45 142.41C376.588 142.41 401.02 128.92 401.02 112.28C401.02 95.6397 376.588 82.15 346.45 82.15C316.312 82.15 291.88 95.6397 291.88 112.28C291.88 128.92 316.312 142.41 346.45 142.41Z" fill="#7B1481"/>
<path d="M393 112.28C393 124.6 374.92 134.58 352.62 134.58C350.75 134.58 348.9 134.51 347.09 134.38C366.76 132.88 381.93 123.56 381.93 112.28C381.93 101 366.71 91.68 347 90.2C348.81 90.06 350.66 89.99 352.53 89.99C374.87 90 393 100 393 112.28Z" fill="#8E4C90"/>
<path d="M324.3 121.31C338.615 121.31 350.22 114.903 350.22 107C350.22 99.0969 338.615 92.6901 324.3 92.6901C309.985 92.6901 298.38 99.0969 298.38 107C298.38 114.903 309.985 121.31 324.3 121.31Z" fill="#8E4C90"/>
<path d="M305.91 172.98C313.902 172.98 320.38 166.502 320.38 158.51C320.38 150.518 313.902 144.04 305.91 144.04C297.918 144.04 291.44 150.518 291.44 158.51C291.44 166.502 297.918 172.98 305.91 172.98Z" fill="#F0A284"/>
<path d="M350.959 387.53L350.968 387.525C366.904 379.218 373.089 359.566 364.783 343.629L319.287 256.344C310.981 240.408 291.328 234.223 275.391 242.529L275.382 242.534C259.446 250.841 253.261 270.494 261.567 286.43L307.063 373.715C315.37 389.651 335.022 395.836 350.959 387.53Z" fill="#DEE4EB"/>
<path d="M341 390.83C334.269 391.876 327.38 390.787 321.3 387.716C315.219 384.646 310.254 379.747 307.1 373.71L261.62 286.44C258.834 281.103 257.584 275.097 258.008 269.091C258.432 263.085 260.514 257.315 264.022 252.422C267.53 247.529 272.327 243.705 277.879 241.376C283.431 239.047 289.521 238.304 295.47 239.23C290.365 240.03 285.524 242.034 281.347 245.076C277.17 248.119 273.778 252.111 271.45 256.725C269.122 261.338 267.926 266.439 267.961 271.607C267.996 276.774 269.26 281.858 271.65 286.44L317.14 373.71C319.494 378.236 322.881 382.144 327.026 385.119C331.171 388.093 335.958 390.049 341 390.83Z" fill="white"/>
<path d="M336.12 393.91C356.455 393.91 372.94 377.425 372.94 357.09C372.94 336.755 356.455 320.27 336.12 320.27C315.785 320.27 299.3 336.755 299.3 357.09C299.3 377.425 315.785 393.91 336.12 393.91Z" fill="#7B1481"/>
<path d="M461.633 336.865L461.631 336.855C458.529 321.401 443.486 311.388 428.032 314.49L329.527 334.263C314.073 337.365 304.06 352.408 307.162 367.862L307.164 367.871C310.266 383.325 325.309 393.339 340.763 390.236L439.268 370.464C454.722 367.362 464.735 352.319 461.633 336.865Z" fill="#F0A284"/>
<path d="M444.18 370.65C464.278 370.65 480.57 357.46 480.57 341.19C480.57 324.92 464.278 311.73 444.18 311.73C424.082 311.73 407.79 324.92 407.79 341.19C407.79 357.46 424.082 370.65 444.18 370.65Z" fill="#F0A284"/>
<path d="M480.56 340.77C478.45 353.77 465.82 364.11 449.82 366.01C448.051 366.22 446.271 366.323 444.49 366.32C442.947 366.326 441.404 366.246 439.87 366.08L439.58 366.15L429.58 368.15L341.1 385.91C333.678 387.397 325.97 385.876 319.669 381.681C313.368 377.486 308.991 370.961 307.5 363.54C307.138 361.732 306.95 359.894 306.94 358.05C306.343 362.106 306.626 366.242 307.769 370.179C308.912 374.116 310.889 377.76 313.564 380.866C316.24 383.971 319.553 386.465 323.277 388.177C327.002 389.889 331.051 390.781 335.15 390.79C337.047 390.79 338.94 390.602 340.8 390.23L439.3 370.46L439.58 370.39C441.118 370.551 442.664 370.631 444.21 370.63C464.31 370.63 480.6 357.44 480.6 341.18C480.57 341 480.57 340.91 480.56 340.77Z" fill="#FCB798"/>
<path d="M485.869 353.008L485.868 352.998C485.746 348.482 481.986 344.92 477.47 345.042L451.949 345.733C447.433 345.855 443.871 349.615 443.994 354.131L443.994 354.141C444.116 358.657 447.876 362.219 452.392 362.097L477.913 361.406C482.429 361.284 485.991 357.524 485.869 353.008Z" fill="#F0A284"/>
<path d="M499.584 337.349L499.584 337.339C499.461 332.823 495.701 329.261 491.185 329.383L465.665 330.074C461.149 330.196 457.587 333.956 457.709 338.472L457.709 338.482C457.831 342.998 461.591 346.56 466.107 346.438L491.628 345.748C496.144 345.625 499.706 341.865 499.584 337.349Z" fill="#F0A284"/>
<path d="M485.867 321.352L485.867 321.342C485.745 316.826 481.985 313.264 477.468 313.386L451.948 314.076C447.432 314.199 443.87 317.959 443.992 322.475L443.992 322.485C444.115 327.001 447.875 330.563 452.391 330.44L477.911 329.75C482.427 329.628 485.989 325.868 485.867 321.352Z" fill="#F0A284"/>
<path d="M454.51 305.653L454.505 305.644C452.246 301.731 447.243 300.391 443.331 302.65L421.221 315.415C417.309 317.674 415.968 322.676 418.227 326.589L418.232 326.598C420.491 330.51 425.494 331.85 429.406 329.592L451.516 316.827C455.428 314.568 456.769 309.565 454.51 305.653Z" fill="#F0A284"/>
<path d="M396.424 364.703C401.081 363.768 404.098 359.235 403.163 354.579C402.228 349.922 397.696 346.905 393.039 347.839L350.086 356.461C345.429 357.396 342.412 361.929 343.346 366.586C344.281 371.242 348.814 374.26 353.471 373.325L396.424 364.703Z" fill="#FCB798"/>
<path d="M352.26 161.89C354.127 161.89 355.64 160.377 355.64 158.51C355.64 156.643 354.127 155.13 352.26 155.13C350.393 155.13 348.88 156.643 348.88 158.51C348.88 160.377 350.393 161.89 352.26 161.89Z" fill="#361647"/>
<path d="M377.07 161.89C378.937 161.89 380.45 160.377 380.45 158.51C380.45 156.643 378.937 155.13 377.07 155.13C375.203 155.13 373.69 156.643 373.69 158.51C373.69 160.377 375.203 161.89 377.07 161.89Z" fill="#361647"/>
<path d="M308.72 166L308.72 153.73C308.711 153.425 308.632 153.125 308.489 152.855C308.346 152.585 308.144 152.351 307.897 152.172C307.649 151.992 307.364 151.872 307.063 151.819C306.762 151.767 306.453 151.784 306.16 151.87C304.465 152.413 302.986 153.48 301.936 154.918C300.887 156.356 300.321 158.09 300.321 159.87C300.321 161.65 300.887 163.384 301.936 164.822C302.986 166.26 304.465 167.327 306.16 167.87C306.454 167.956 306.764 167.973 307.066 167.92C307.367 167.867 307.653 167.746 307.9 167.565C308.148 167.385 308.35 167.149 308.492 166.878C308.635 166.607 308.712 166.306 308.72 166Z" fill="#EF927F"/>
<path d="M308.08 165.73C311.317 165.73 313.94 163.106 313.94 159.87C313.94 156.634 311.317 154.01 308.08 154.01C304.844 154.01 302.22 156.634 302.22 159.87C302.22 163.106 304.844 165.73 308.08 165.73Z" fill="#FCF4E6"/>
<path d="M308.521 160.578L308.513 160.584C307.494 161.414 307.339 162.913 308.169 163.933L315.035 172.372C315.865 173.392 317.364 173.546 318.383 172.717L318.391 172.71C319.411 171.881 319.565 170.382 318.735 169.362L311.869 160.922C311.04 159.903 309.541 159.749 308.521 160.578Z" fill="#FCF4E6"/>
<path d="M315.86 170.27L311.16 164.5L310.76 164.01C310.335 164.12 309.898 164.174 309.46 164.17L308.98 164.17C307.639 164.05 306.391 163.432 305.482 162.439C304.573 161.445 304.069 160.147 304.07 158.8C304.053 157.666 304.404 156.558 305.07 155.64C304.425 156.14 303.904 156.781 303.547 157.515C303.19 158.248 303.006 159.054 303.01 159.87C303.01 161.3 303.578 162.67 304.589 163.681C305.599 164.692 306.97 165.26 308.4 165.26C308.835 165.263 309.269 165.209 309.69 165.1L314.8 171.36C314.98 171.584 315.203 171.771 315.456 171.908C315.709 172.046 315.987 172.132 316.273 172.162C316.559 172.192 316.849 172.164 317.125 172.082C317.4 171.999 317.657 171.862 317.88 171.68C318.15 171.461 318.363 171.18 318.5 170.86C318.058 171.073 317.556 171.131 317.077 171.024C316.598 170.917 316.169 170.651 315.86 170.27Z" fill="white"/>
<path d="M372.29 173C372.288 174.136 372.062 175.261 371.624 176.309C371.187 177.358 370.546 178.31 369.74 179.11C369.543 179.307 369.336 179.494 369.12 179.67C367.578 180.967 365.626 181.676 363.61 181.67L363.26 181.67C361.428 181.673 359.644 181.088 358.17 180C357.168 179.264 356.337 178.322 355.731 177.237C355.125 176.152 354.76 174.949 354.66 173.71C354.66 173.48 354.66 173.23 354.66 172.99C354.665 172.547 354.844 172.124 355.159 171.811C355.473 171.499 355.897 171.323 356.34 171.32L370.65 171.32C371.09 171.328 371.508 171.509 371.815 171.823C372.122 172.138 372.293 172.561 372.29 173Z" fill="#962F4A"/>
<path d="M363.44 180.34C363.443 180.787 363.399 181.232 363.31 181.67L363.26 181.67C361.083 181.664 358.988 180.836 357.394 179.353C355.8 177.871 354.824 175.841 354.66 173.67C355.285 173.493 355.931 173.402 356.58 173.4C357.487 173.403 358.384 173.585 359.221 173.935C360.057 174.286 360.816 174.798 361.453 175.443C362.091 176.088 362.595 176.853 362.936 177.693C363.277 178.534 363.448 179.433 363.44 180.34Z" fill="#E1617F"/>
<path d="M370.3 171.36C370.23 173.06 367.61 174.36 364.39 174.36C361.17 174.36 358.56 172.99 358.49 171.29L370.3 171.36Z" fill="white"/>
<g filter="url(#filter0_d_211_243)">
<path d="M666.628 223.742C667.5 223.847 668.255 223.925 668.893 223.978C669.531 224.017 670.059 224.05 670.475 224.077C670.957 224.103 671.361 224.11 671.686 224.097C672.025 224.084 672.487 224.052 673.073 224C673.568 223.962 674.219 223.91 675.026 223.846C675.834 223.768 676.843 223.665 678.054 223.535C678.067 223.835 678.073 224.128 678.073 224.414C678.086 224.688 678.099 224.928 678.111 225.137C678.124 225.384 678.131 225.612 678.13 225.82C678.13 226.042 678.117 226.322 678.091 226.66C678.065 226.947 678.019 227.311 677.953 227.754C677.901 228.183 677.816 228.698 677.698 229.297C677.516 228.593 677.341 228.027 677.172 227.597C677.003 227.154 676.847 226.803 676.704 226.542C676.548 226.242 676.392 226.014 676.236 225.858C676.067 225.741 675.865 225.643 675.631 225.565C675.422 225.499 675.155 225.447 674.83 225.408C674.517 225.369 674.146 225.375 673.717 225.427C673.65 227.145 673.604 228.539 673.577 229.606C673.55 230.674 673.53 231.507 673.517 232.106C673.503 232.822 673.496 233.337 673.496 233.649C673.509 234.092 673.58 234.528 673.71 234.958C673.814 235.323 673.983 235.7 674.217 236.091C674.451 236.482 674.789 236.827 675.232 237.127L672.849 237.125C672.628 237.125 672.354 237.138 672.029 237.164C671.755 237.19 671.404 237.215 670.974 237.241C670.557 237.267 670.069 237.312 669.509 237.377C669.705 237.038 669.861 236.732 669.978 236.459C670.096 236.186 670.187 235.951 670.252 235.756C670.331 235.522 670.389 235.314 670.429 235.131C670.442 234.871 670.475 234.344 670.527 233.549C670.541 233.224 670.554 232.82 670.567 232.338C670.594 231.857 670.62 231.284 670.647 230.62C670.686 229.956 670.719 229.194 670.746 228.335C670.786 227.462 670.825 226.479 670.865 225.386C670.631 225.32 670.409 225.327 670.201 225.405C669.993 225.47 669.81 225.554 669.654 225.658C669.472 225.788 669.296 225.944 669.126 226.126C668.957 226.348 668.768 226.634 668.559 226.985C668.377 227.285 668.168 227.682 667.933 228.176C667.699 228.658 667.431 229.257 667.131 229.973C667.067 229.217 667.022 228.599 666.996 228.117C666.97 227.622 666.951 227.238 666.938 226.965C666.925 226.639 666.919 226.398 666.919 226.242C666.919 226.099 666.906 225.91 666.881 225.676C666.855 225.48 666.822 225.226 666.783 224.914C666.745 224.588 666.693 224.198 666.628 223.742ZM682.108 234.866C682.473 234.866 682.812 234.828 683.124 234.75C683.385 234.685 683.632 234.581 683.867 234.438C684.114 234.282 684.277 234.054 684.355 233.754C684.616 233.807 684.837 233.852 685.019 233.892C685.202 233.918 685.358 233.944 685.488 233.97C685.631 234.009 685.755 234.035 685.859 234.048C685.963 234.075 686.087 234.101 686.23 234.127C686.36 234.153 686.516 234.186 686.699 234.225C686.894 234.251 687.122 234.29 687.382 234.343C687.187 234.316 686.985 234.336 686.777 234.401C686.581 234.466 686.392 234.537 686.21 234.615C686.002 234.706 685.806 234.817 685.624 234.947C685.507 235.025 685.37 235.142 685.214 235.298C685.07 235.454 684.862 235.604 684.588 235.747C684.315 235.89 683.95 236.013 683.494 236.117C683.051 236.208 682.479 236.24 681.775 236.214C680.929 236.187 680.22 236.037 679.647 235.763C679.074 235.476 678.612 235.131 678.261 234.727C677.91 234.31 677.656 233.86 677.5 233.379C677.344 232.897 677.26 232.447 677.247 232.031C677.234 231.614 677.358 231.178 677.619 230.722C677.88 230.267 678.245 229.85 678.714 229.473C679.196 229.096 679.775 228.79 680.453 228.556C681.13 228.309 681.872 228.186 682.68 228.187C683.148 228.187 683.578 228.246 683.968 228.364C684.372 228.468 684.737 228.612 685.062 228.794C685.4 228.977 685.693 229.185 685.94 229.42C686.188 229.641 686.396 229.869 686.565 230.104C686.734 230.351 686.877 230.612 686.994 230.885C687.098 231.12 687.182 231.387 687.247 231.686C687.312 231.986 687.332 232.292 687.305 232.604C686.316 232.63 685.515 232.649 684.903 232.661C684.304 232.674 683.835 232.68 683.497 232.68L682.618 232.679L681.954 232.679C681.719 232.678 681.413 232.685 681.036 232.697C680.658 232.71 680.196 232.729 679.649 232.755C679.714 233.276 679.876 233.68 680.136 233.966C680.41 234.24 680.696 234.448 680.995 234.592C681.334 234.748 681.705 234.84 682.108 234.866ZM680.353 231.349C680.77 231.376 681.115 231.395 681.388 231.409C681.675 231.422 681.909 231.435 682.091 231.448C682.287 231.461 682.443 231.468 682.56 231.468L683.048 231.468C683.374 231.469 683.979 231.45 684.865 231.411C684.826 230.838 684.703 230.402 684.495 230.102C684.299 229.803 684.091 229.581 683.87 229.438C683.61 229.281 683.323 229.19 683.011 229.164C682.165 229.176 681.533 229.351 681.116 229.69C680.712 230.028 680.458 230.581 680.353 231.349ZM696.704 226.869C696.587 227.155 696.482 227.415 696.391 227.65C696.313 227.884 696.241 228.092 696.176 228.275C696.11 228.483 696.052 228.665 695.999 228.821C695.947 229.004 695.888 229.212 695.823 229.446C695.758 229.654 695.673 229.915 695.569 230.227C695.477 230.527 695.366 230.885 695.236 231.301C695.132 230.676 694.944 230.181 694.671 229.816C694.397 229.439 694.118 229.145 693.831 228.937C693.493 228.702 693.129 228.533 692.738 228.428C692.035 228.311 691.527 228.323 691.214 228.466C690.902 228.609 690.693 228.792 690.589 229.013C690.537 229.104 690.478 229.221 690.413 229.364C690.361 229.494 690.315 229.631 690.276 229.774C690.25 229.917 690.243 230.061 690.256 230.204C690.269 230.347 690.328 230.464 690.432 230.556C690.497 230.621 690.666 230.712 690.939 230.829C691.213 230.934 691.538 231.058 691.916 231.201C692.306 231.332 692.716 231.475 693.146 231.632C693.588 231.788 694.005 231.945 694.396 232.101C694.786 232.258 695.124 232.414 695.411 232.571C695.697 232.727 695.886 232.871 695.977 233.001C696.055 233.131 696.139 233.307 696.23 233.528C696.334 233.737 696.406 233.971 696.445 234.232C696.497 234.479 696.51 234.74 696.483 235.013C696.47 235.273 696.398 235.534 696.268 235.794C696.138 236.054 695.929 236.295 695.642 236.516C695.369 236.738 694.998 236.92 694.529 237.062C693.982 237.231 693.454 237.277 692.947 237.198C692.439 237.12 691.97 237.002 691.541 236.845C691.124 236.689 690.76 236.539 690.447 236.395C690.135 236.239 689.913 236.174 689.783 236.2C689.64 236.226 689.477 236.297 689.295 236.414C689.112 236.531 688.937 236.655 688.767 236.785C688.611 236.902 688.474 237.013 688.357 237.117C688.24 237.208 688.181 237.24 688.181 237.214C688.181 237.188 688.201 237.11 688.24 236.98C688.292 236.85 688.344 236.693 688.396 236.511C688.462 236.316 688.52 236.108 688.573 235.886C688.638 235.652 688.684 235.431 688.71 235.222C688.736 235.053 688.769 234.845 688.808 234.597C688.834 234.376 688.867 234.109 688.906 233.797C688.958 233.471 689.017 233.081 689.083 232.625C689.148 232.964 689.238 233.257 689.355 233.504C689.485 233.752 689.609 233.967 689.726 234.149C689.869 234.357 690.006 234.533 690.136 234.677C690.331 234.859 690.559 235.028 690.819 235.185C691.092 235.341 691.366 235.478 691.639 235.596C691.912 235.7 692.173 235.765 692.42 235.791C692.668 235.818 692.876 235.792 693.045 235.714C693.215 235.636 693.358 235.493 693.475 235.284C693.606 235.076 693.697 234.848 693.749 234.601C693.801 234.354 693.821 234.119 693.808 233.898C693.795 233.663 693.737 233.475 693.633 233.331C693.555 233.24 693.373 233.123 693.086 232.979C692.813 232.836 692.481 232.679 692.091 232.51C691.713 232.34 691.31 232.164 690.88 231.982C690.463 231.799 690.066 231.617 689.689 231.434C689.325 231.238 689.019 231.056 688.771 230.886C688.537 230.704 688.407 230.541 688.381 230.398C688.355 230.19 688.336 229.962 688.323 229.714C688.31 229.454 688.323 229.2 688.363 228.953C688.415 228.692 688.506 228.445 688.637 228.211C688.78 227.976 688.988 227.781 689.262 227.625C689.444 227.521 689.685 227.443 689.985 227.391C690.284 227.339 690.616 227.314 690.981 227.314C691.346 227.301 691.723 227.314 692.114 227.354C692.504 227.38 692.875 227.419 693.227 227.472C693.591 227.511 693.917 227.563 694.203 227.629C694.503 227.694 694.731 227.753 694.887 227.805C695.069 227.87 695.264 227.877 695.473 227.825C695.655 227.786 695.85 227.701 696.059 227.571C696.267 227.441 696.482 227.207 696.704 226.869ZM697.173 225.717C697.564 225.756 697.89 225.789 698.15 225.815C698.423 225.841 698.645 225.861 698.814 225.874C699.009 225.887 699.166 225.894 699.283 225.894C699.4 225.907 699.556 225.907 699.751 225.894C699.921 225.881 700.142 225.869 700.416 225.856C700.689 225.83 701.034 225.791 701.451 225.739C701.36 225.869 701.288 225.987 701.236 226.091C701.184 226.182 701.138 226.266 701.099 226.344L700.981 226.579C700.955 226.657 700.929 226.735 700.903 226.813C700.877 226.878 700.851 226.956 700.825 227.047C700.812 227.139 700.799 227.236 700.786 227.34L703.793 227.342L703.519 228.924L700.765 228.766C700.699 229.43 700.654 229.944 700.627 230.309C700.601 230.674 700.575 230.94 700.549 231.11L700.509 231.461C700.47 231.956 700.43 232.496 700.391 233.082C700.351 233.655 700.338 234.189 700.351 234.684C700.363 235.179 700.409 235.595 700.487 235.934C700.564 236.259 700.701 236.422 700.896 236.422C701.092 236.423 701.274 236.371 701.443 236.267C701.613 236.163 701.756 236.039 701.873 235.896C702.004 235.753 702.101 235.609 702.167 235.466C702.232 235.31 702.264 235.193 702.264 235.115C702.265 235.037 702.245 234.946 702.206 234.841C702.141 234.646 702.024 234.398 701.855 234.099C702.233 234.19 702.565 234.282 702.851 234.373C702.994 234.425 703.124 234.477 703.241 234.53C703.372 234.582 703.521 234.64 703.691 234.706C703.834 234.771 704.016 234.849 704.237 234.94C704.459 235.032 704.719 235.143 705.018 235.273C704.732 235.325 704.523 235.409 704.393 235.526C704.315 235.578 704.256 235.637 704.217 235.702C704.126 235.845 704.022 236.041 703.904 236.288C703.787 236.522 703.611 236.756 703.376 236.991C703.142 237.225 702.823 237.433 702.419 237.615C702.028 237.797 701.501 237.901 700.837 237.926C700.147 237.952 699.619 237.834 699.255 237.574C698.904 237.313 698.643 237.013 698.474 236.675C698.318 236.323 698.227 235.978 698.202 235.639C698.176 235.301 698.156 235.073 698.143 234.956C698.131 234.838 698.131 234.545 698.144 234.077C698.157 233.608 698.177 233.094 698.204 232.534C698.23 231.961 698.257 231.414 698.283 230.893C698.31 230.359 698.323 229.969 698.323 229.721C698.323 229.591 698.33 229.454 698.343 229.311C698.343 229.194 698.343 229.07 698.343 228.94C698.356 228.797 698.363 228.66 698.363 228.53L695.531 228.508L695.414 227.395L698.266 227.475C698.24 227.332 698.208 227.202 698.169 227.085C698.143 226.954 698.117 226.85 698.091 226.772C698.052 226.681 698.013 226.603 697.974 226.538C697.922 226.472 697.863 226.401 697.798 226.323C697.733 226.257 697.648 226.173 697.544 226.068C697.44 225.964 697.317 225.847 697.173 225.717ZM710.046 224.066C710.462 224.17 710.859 224.248 711.237 224.301C711.615 224.353 711.947 224.392 712.233 224.419C712.572 224.458 712.884 224.471 713.17 224.458C713.535 224.459 713.991 224.426 714.538 224.362C715.098 224.297 715.671 224.239 716.257 224.187C716.843 224.123 717.402 224.084 717.936 224.071C718.483 224.046 718.926 224.078 719.264 224.17C719.603 224.248 719.948 224.372 720.299 224.542C720.664 224.698 720.996 224.9 721.295 225.148C721.594 225.382 721.841 225.663 722.037 225.988C722.232 226.301 722.342 226.659 722.368 227.063C722.354 227.57 722.237 228.046 722.015 228.488C721.833 228.866 721.526 229.256 721.096 229.659C720.667 230.05 720.048 230.349 719.24 230.557C719.644 230.609 719.989 230.7 720.275 230.831C720.575 230.948 720.829 231.091 721.037 231.261C721.258 231.417 721.434 231.593 721.564 231.789C721.707 231.984 721.817 232.179 721.895 232.375C722.09 232.831 722.181 233.339 722.168 233.898C722.089 234.628 721.939 235.207 721.717 235.636C721.509 236.066 721.267 236.398 720.994 236.632C720.72 236.866 720.44 237.029 720.154 237.12C719.867 237.211 719.607 237.282 719.372 237.334C719.138 237.386 718.851 237.412 718.513 237.411C718.174 237.411 717.81 237.404 717.419 237.391C717.042 237.365 716.651 237.345 716.247 237.332C715.844 237.305 715.46 237.305 715.095 237.331C714.795 237.357 714.431 237.383 714.001 237.408C713.637 237.434 713.181 237.466 712.634 237.505C712.087 237.531 711.449 237.563 710.72 237.601C710.863 237.497 710.98 237.38 711.072 237.25C711.176 237.107 711.261 236.983 711.326 236.879C711.391 236.749 711.45 236.625 711.502 236.508C711.541 236.404 711.574 236.117 711.6 235.649C711.626 235.18 711.646 234.62 711.66 233.969C711.673 233.305 711.68 232.595 711.681 231.84C711.694 231.072 711.688 230.336 711.663 229.633C711.65 228.917 711.625 228.285 711.586 227.739C711.56 227.179 711.522 226.775 711.47 226.528C711.392 226.254 711.288 225.974 711.158 225.688C711.054 225.44 710.904 225.173 710.709 224.886C710.527 224.6 710.306 224.326 710.046 224.066ZM714.165 226.061C714.165 226.113 714.172 226.289 714.185 226.588C714.197 226.849 714.21 227.252 714.223 227.799C714.248 228.333 714.28 229.095 714.319 230.084C714.644 230.228 714.963 230.306 715.276 230.319C715.588 230.32 715.868 230.307 716.116 230.281C716.402 230.242 716.676 230.177 716.936 230.086C717.288 229.943 717.561 229.709 717.757 229.384C717.965 229.058 718.102 228.72 718.168 228.368C718.246 228.004 718.266 227.665 718.227 227.353C718.188 227.027 718.104 226.793 717.974 226.649C717.726 226.428 717.42 226.245 717.056 226.102C716.744 225.984 716.347 225.906 715.865 225.867C715.396 225.814 714.83 225.879 714.165 226.061ZM714.061 235.318C714.543 235.566 714.966 235.729 715.33 235.808C715.695 235.886 716.001 235.925 716.248 235.925C716.535 235.926 716.782 235.887 716.991 235.809C717.238 235.692 717.479 235.536 717.714 235.341C717.961 235.132 718.144 234.892 718.261 234.618C718.391 234.332 718.444 234.019 718.418 233.681C718.392 233.329 718.243 232.945 717.969 232.528C717.722 232.229 717.423 231.994 717.071 231.825C716.759 231.681 716.362 231.59 715.88 231.55C715.412 231.511 714.832 231.621 714.142 231.881L714.061 235.318ZM728.499 229.294C728.838 229.294 729.189 229.359 729.554 229.49C729.918 229.607 730.27 229.764 730.608 229.959C730.946 230.142 731.252 230.344 731.526 230.565C731.812 230.774 732.046 230.976 732.228 231.171C732.553 231.523 732.775 231.998 732.891 232.597C733.021 233.183 733.047 233.789 732.968 234.414C732.89 235.026 732.707 235.605 732.42 236.152C732.133 236.698 731.736 237.102 731.228 237.362C730.863 237.544 730.505 237.687 730.153 237.791C729.802 237.895 729.463 237.973 729.137 238.024C728.812 238.076 728.506 238.102 728.219 238.102C727.933 238.102 727.686 238.095 727.477 238.082C727.087 238.056 726.677 237.919 726.247 237.671C725.831 237.423 725.434 237.117 725.056 236.752C724.692 236.387 724.38 235.99 724.12 235.56C723.86 235.117 723.704 234.7 723.652 234.31C723.574 233.776 723.561 233.216 723.614 232.63C723.666 232.044 723.856 231.504 724.181 231.009C724.52 230.515 725.028 230.105 725.706 229.78C726.396 229.455 727.327 229.293 728.499 229.294ZM727.849 236.871C727.992 236.897 728.188 236.865 728.435 236.774C728.683 236.67 728.924 236.507 729.158 236.286C729.406 236.065 729.621 235.785 729.803 235.447C729.999 235.095 730.116 234.672 730.156 234.178C730.195 233.696 730.195 233.253 730.157 232.849C730.131 232.446 730.073 232.094 729.982 231.795C729.891 231.482 729.787 231.228 729.67 231.033C729.553 230.837 729.429 230.7 729.299 230.622C729.078 230.505 728.811 230.414 728.498 230.348C728.186 230.27 727.919 230.283 727.698 230.387C727.593 230.439 727.463 230.549 727.307 230.718C727.15 230.888 726.994 231.102 726.837 231.363C726.681 231.61 726.538 231.896 726.407 232.222C726.29 232.547 726.205 232.886 726.153 233.237C726.1 233.589 726.087 233.966 726.113 234.37C726.151 234.774 726.236 235.158 726.366 235.522C726.496 235.874 726.678 236.18 726.912 236.441C727.159 236.688 727.472 236.832 727.849 236.871ZM735.373 230.138C735.439 230.06 735.478 229.917 735.491 229.709C735.517 229.487 735.569 229.24 735.648 228.967C735.739 228.693 735.889 228.407 736.098 228.108C736.306 227.808 736.645 227.528 737.114 227.268C737.57 227.008 738.013 226.852 738.442 226.801C738.872 226.749 739.282 226.769 739.673 226.86C740.063 226.951 740.428 227.095 740.766 227.291C741.118 227.486 741.436 227.701 741.723 227.936C741.918 228.092 742.074 228.32 742.191 228.62C742.308 228.906 742.399 229.232 742.464 229.596C742.529 229.961 742.574 230.345 742.6 230.749C742.638 231.139 742.664 231.524 742.677 231.901C742.69 232.266 742.696 232.604 742.696 232.917C742.709 233.216 742.734 233.464 742.773 233.659C742.825 233.946 742.916 234.193 743.046 234.401C743.176 234.597 743.319 234.766 743.476 234.91C743.632 235.04 743.788 235.144 743.944 235.222C744.1 235.301 744.237 235.359 744.354 235.399C744.432 235.438 744.504 235.464 744.569 235.477C744.699 235.529 744.79 235.529 744.842 235.477C744.764 235.659 744.692 235.815 744.627 235.946C744.562 236.076 744.51 236.186 744.471 236.278C744.419 236.382 744.373 236.466 744.334 236.531C744.295 236.609 744.249 236.681 744.197 236.746C744.158 236.811 744.106 236.883 744.041 236.961C743.975 237.039 743.91 237.123 743.845 237.215C743.676 237.149 743.513 237.071 743.357 236.98C743.214 236.889 743.084 236.804 742.966 236.726C742.823 236.634 742.693 236.543 742.576 236.452C742.459 236.361 742.348 236.256 742.244 236.139C742.153 236.035 742.056 235.924 741.951 235.807C741.86 235.69 741.782 235.559 741.717 235.416C741.639 235.585 741.45 235.826 741.15 236.138C740.864 236.451 740.486 236.737 740.017 236.997C739.548 237.244 739.001 237.419 738.376 237.523C737.764 237.627 737.087 237.555 736.345 237.307C736.02 237.203 735.714 237.053 735.427 236.857C735.141 236.649 734.894 236.401 734.686 236.114C734.491 235.828 734.348 235.502 734.257 235.137C734.179 234.76 734.186 234.343 734.277 233.887C734.369 233.432 734.532 233.048 734.766 232.735C735.001 232.423 735.281 232.169 735.607 231.974C735.932 231.779 736.297 231.63 736.701 231.526C737.104 231.422 737.521 231.351 737.951 231.312C738.289 231.299 738.628 231.319 738.966 231.371C739.253 231.424 739.552 231.521 739.865 231.665C740.177 231.795 740.444 231.997 740.665 232.271C740.652 231.581 740.627 231.034 740.588 230.63C740.562 230.214 740.536 229.895 740.511 229.673C740.459 229.413 740.413 229.23 740.374 229.126C740.309 229.035 740.238 228.931 740.16 228.814C740.095 228.696 740.01 228.592 739.906 228.501C739.802 228.397 739.672 228.312 739.515 228.247C739.359 228.181 739.177 228.155 738.969 228.168C738.747 228.181 738.571 228.239 738.441 228.344C738.311 228.448 738.207 228.571 738.128 228.714C738.063 228.845 738.024 228.988 738.011 229.144C737.998 229.3 738.004 229.437 738.03 229.554C738.056 229.632 738.095 229.717 738.147 229.808C738.199 229.886 738.271 229.971 738.362 230.062C738.453 230.153 738.577 230.232 738.733 230.297C738.433 230.336 738.166 230.368 737.932 230.394C737.698 230.407 737.496 230.426 737.326 230.452C737.131 230.478 736.962 230.497 736.819 230.51C736.675 230.523 736.506 230.549 736.311 230.588C736.141 230.614 735.933 230.646 735.686 230.685C735.438 230.724 735.152 230.776 734.826 230.841C734.904 230.75 734.976 230.665 735.041 230.587C735.106 230.496 735.165 230.418 735.217 230.353C735.269 230.275 735.321 230.203 735.373 230.138ZM738.302 232.465C738.067 232.477 737.833 232.536 737.598 232.64C737.364 232.731 737.155 232.867 736.973 233.05C736.791 233.219 736.634 233.42 736.504 233.655C736.386 233.876 736.328 234.123 736.327 234.397C736.327 234.67 736.392 234.911 736.522 235.12C736.665 235.315 736.848 235.478 737.069 235.608C737.303 235.739 737.55 235.817 737.811 235.843C738.084 235.869 738.351 235.843 738.612 235.766C738.859 235.675 739.094 235.532 739.315 235.336C739.537 235.128 739.726 234.907 739.882 234.673C740.038 234.425 740.149 234.185 740.215 233.95C740.28 233.703 740.286 233.501 740.234 233.345C740.131 233.006 739.896 232.772 739.532 232.641C739.167 232.498 738.757 232.439 738.302 232.465ZM744.457 228.699C744.704 228.713 744.925 228.719 745.121 228.719C745.329 228.706 745.505 228.694 745.648 228.681C745.817 228.668 745.967 228.655 746.097 228.642C746.293 228.616 746.494 228.584 746.703 228.545C746.885 228.519 747.074 228.486 747.269 228.447C747.478 228.396 747.679 228.337 747.875 228.272C747.797 228.467 747.731 228.637 747.679 228.78C747.627 228.923 747.588 229.047 747.562 229.151C747.523 229.268 747.503 229.366 747.503 229.444C747.49 229.535 747.483 229.646 747.483 229.776C747.47 229.997 747.47 230.355 747.482 230.85C748.16 230.264 748.727 229.809 749.183 229.484C749.652 229.159 750.023 228.905 750.296 228.723C750.622 228.515 750.876 228.378 751.058 228.313C751.54 228.236 751.963 228.347 752.328 228.646C752.484 228.777 752.633 228.953 752.777 229.174C752.92 229.382 753.043 229.662 753.147 230.014C753.251 230.366 753.329 230.789 753.38 231.284C753.432 231.766 753.438 232.345 753.399 233.022C753.125 233.048 752.878 233.074 752.657 233.1C752.448 233.126 752.272 233.145 752.129 233.158C751.96 233.184 751.804 233.197 751.66 233.197L751.133 233.255C750.951 233.281 750.723 233.307 750.449 233.333C750.189 233.345 749.87 233.371 749.492 233.41C750.039 232.968 750.391 232.584 750.548 232.258C750.717 231.92 750.789 231.64 750.763 231.419C750.737 231.171 750.62 230.956 750.412 230.774C750.165 230.63 749.898 230.578 749.611 230.617C749.364 230.643 749.077 230.753 748.752 230.949C748.426 231.144 748.081 231.508 747.716 232.042C747.741 232.875 747.767 233.565 747.793 234.112C747.831 234.659 747.863 235.102 747.889 235.44C747.928 235.831 747.96 236.137 747.986 236.358C748.025 236.553 748.103 236.762 748.22 236.983C748.311 237.166 748.441 237.368 748.61 237.589C748.78 237.811 749.001 238.032 749.274 238.254C748.701 238.227 748.232 238.227 747.868 238.253C747.646 238.265 747.451 238.278 747.282 238.291C747.099 238.317 746.904 238.343 746.696 238.369C746.513 238.395 746.299 238.421 746.051 238.447C745.817 238.485 745.556 238.524 745.27 238.563C745.374 238.42 745.459 238.251 745.524 238.056C745.589 237.873 745.642 237.698 745.681 237.528C745.733 237.333 745.772 237.131 745.798 236.923C745.812 236.741 745.818 236.467 745.818 236.103C745.832 235.738 745.826 235.328 745.8 234.872C745.787 234.403 745.768 233.922 745.742 233.427C745.717 232.919 745.684 232.444 745.646 232.001C745.607 231.558 745.562 231.174 745.51 230.849C745.471 230.51 745.425 230.276 745.373 230.145C745.308 229.989 745.23 229.833 745.139 229.676C745.061 229.533 744.964 229.383 744.847 229.227C744.73 229.058 744.6 228.882 744.457 228.699ZM763.816 223.108C764.063 223.121 764.33 223.128 764.617 223.128C764.864 223.128 765.144 223.135 765.457 223.148C765.782 223.148 766.121 223.135 766.472 223.109C766.16 223.252 765.886 223.461 765.651 223.734C765.417 224.007 765.228 224.28 765.084 224.554C764.902 224.879 764.752 225.218 764.635 225.569C764.569 225.777 764.517 226.148 764.477 226.682C764.438 227.203 764.405 227.815 764.379 228.518C764.365 229.221 764.358 229.963 764.357 230.745C764.357 231.526 764.363 232.275 764.375 232.991C764.388 233.694 764.407 234.319 764.433 234.866C764.458 235.413 764.491 235.797 764.529 236.018C764.581 236.279 764.646 236.526 764.724 236.761C764.789 236.969 764.874 237.184 764.978 237.405C765.082 237.614 765.212 237.783 765.368 237.913L763.375 238.81C763.271 238.667 763.187 238.517 763.122 238.361C763.057 238.218 763.005 238.088 762.966 237.97C762.914 237.827 762.881 237.697 762.868 237.58C762.842 237.423 762.816 237.254 762.79 237.072C762.765 236.876 762.732 236.694 762.693 236.525C762.667 236.342 762.648 236.193 762.635 236.076C762.622 235.958 762.622 235.887 762.635 235.861C762.648 235.835 762.57 235.952 762.4 236.212C762.231 236.459 761.977 236.752 761.638 237.09C761.312 237.416 760.908 237.734 760.426 238.047C759.944 238.346 759.404 238.534 758.805 238.612C758.193 238.69 757.627 238.572 757.106 238.259C756.598 237.946 756.163 237.51 755.798 236.95C755.434 236.376 755.155 235.719 754.96 234.976C754.778 234.221 754.707 233.453 754.747 232.671C754.773 232.151 754.891 231.689 755.099 231.285C755.308 230.869 755.569 230.511 755.881 230.211C756.207 229.899 756.559 229.639 756.936 229.431C757.327 229.21 757.705 229.028 758.07 228.885C758.447 228.742 758.799 228.638 759.125 228.573C759.45 228.508 759.711 228.463 759.906 228.437C760.14 228.424 760.407 228.463 760.707 228.555C760.967 228.633 761.266 228.763 761.605 228.946C761.956 229.128 762.347 229.402 762.776 229.767C762.699 228.465 762.628 227.423 762.563 226.642C762.499 225.848 762.434 225.242 762.369 224.825C762.305 224.33 762.246 223.992 762.194 223.81C762.129 223.679 762.045 223.549 761.941 223.419C761.85 223.315 761.733 223.21 761.589 223.106C761.459 222.989 761.303 222.897 761.121 222.832C761.459 222.898 761.785 222.943 762.097 222.97C762.41 222.996 762.696 223.022 762.957 223.048C763.256 223.075 763.543 223.094 763.816 223.108ZM758.908 230.389C758.661 230.48 758.459 230.636 758.303 230.858C758.159 231.079 758.042 231.346 757.951 231.658C757.859 231.958 757.794 232.283 757.755 232.635C757.728 232.973 757.708 233.305 757.695 233.631C757.695 233.943 757.695 234.23 757.695 234.49C757.694 234.75 757.694 234.946 757.694 235.076C757.694 235.154 757.707 235.297 757.733 235.506C757.772 235.701 757.85 235.909 757.967 236.131C758.084 236.339 758.247 236.528 758.455 236.698C758.676 236.867 758.969 236.952 759.333 236.952C759.633 236.926 759.952 236.822 760.291 236.64C760.59 236.484 760.929 236.237 761.307 235.899C761.698 235.548 762.115 235.047 762.558 234.396C762.532 233.979 762.513 233.634 762.5 233.361C762.5 233.087 762.494 232.866 762.481 232.697C762.468 232.501 762.462 232.345 762.462 232.228L762.462 231.935C762.462 231.857 762.462 231.772 762.462 231.681C762.462 231.59 762.469 231.505 762.482 231.427C762.118 231.166 761.792 230.945 761.506 230.762C761.233 230.567 760.959 230.423 760.686 230.332C760.425 230.228 760.152 230.182 759.866 230.195C759.592 230.194 759.273 230.259 758.908 230.389Z" fill="#FFFEFF"/>
</g>
<defs>
<filter id="filter0_d_211_243" x="662.617" y="222.765" width="107.855" height="24.0472" filterUnits="userSpaceOnUse" color-interpolation-filters="sRGB">
<feFlood flood-opacity="0" result="BackgroundImageFix"/>
<feColorMatrix in="SourceAlpha" type="matrix" values="0 0 0 0 0 0 0 0 0 0 0 0 0 0 0 0 0 0 127 0" result="hardAlpha"/>
<feOffset dy="4"/>
<feGaussianBlur stdDeviation="2"/>
<feComposite in2="hardAlpha" operator="out"/>
<feColorMatrix type="matrix" values="0 0 0 0 0 0 0 0 0 0 0 0 0 0 0 0 0 0 0.25 0"/>
<feBlend mode="normal" in2="BackgroundImageFix" result="effect1_dropShadow_211_243"/>
<feBlend mode="normal" in="SourceGraphic" in2="effect1_dropShadow_211_243" result="shape"/>
</filter>
</defs>
</svg>
