<svg width="1000" height="1000" viewBox="0 0 1000 1000" fill="none" xmlns="http://www.w3.org/2000/svg">
<path d="M331.241 786.85L339.312 820.782C339.981 823.594 340.005 826.52 339.381 829.343C338.757 832.165 337.502 834.809 335.711 837.077C333.919 839.344 331.637 841.177 329.036 842.437C326.435 843.697 323.582 844.351 320.692 844.351H292.441L274.22 789.687" fill="black"/>
<path d="M329.133 787.431L336.912 820.135C337.686 822.902 337.823 825.808 337.312 828.636C336.818 830.959 335.847 833.154 334.463 835.083C333.078 837.013 331.309 838.635 329.267 839.847C323.947 842.974 317.387 842.164 311.46 842.164H292.441L294.55 843.77L288.393 825.299L278.58 795.86L276.329 789.106C275.443 786.449 271.219 787.588 272.112 790.269L278.269 808.74L288.082 838.179L290.333 844.933C290.47 845.389 290.747 845.79 291.126 846.079C291.505 846.367 291.966 846.528 292.442 846.538H318.912C322.099 846.668 325.282 846.193 328.293 845.139C333.122 843.235 337.104 839.655 339.51 835.055C341.916 830.455 342.585 825.143 341.395 820.09C340.148 814.707 338.837 809.337 337.558 803.962L333.35 786.269C332.699 783.532 328.481 784.69 329.133 787.431Z" fill="black"/>
<path d="M13.6816 805.815L10.0051 830.545C9.50899 833.883 9.73828 837.288 10.6774 840.529C11.6164 843.77 13.2432 846.771 15.4468 849.326C17.6505 851.881 20.3791 853.932 23.4468 855.337C26.5145 856.743 29.8492 857.47 33.2235 857.47H95.6509L105.126 767.092" fill="black"/>
<path d="M11.5734 805.234L8.12668 828.417C7.84653 830.037 7.66068 831.672 7.57008 833.313C7.4711 837.032 8.18583 840.727 9.66428 844.141C11.0933 847.431 13.1905 850.388 15.8228 852.825C18.4551 855.261 21.565 857.124 24.9554 858.296C28.255 859.319 31.7035 859.779 35.156 859.657H75.2229C81.914 859.657 88.6304 859.828 95.3198 859.657C95.4298 859.654 95.5408 859.657 95.6511 859.657C96.2263 859.642 96.7739 859.407 97.1808 859C97.5877 858.593 97.8228 858.046 97.8376 857.47L98.7785 848.496L101.038 826.939L103.774 800.848L106.141 778.27C106.522 774.633 107.177 770.914 107.296 767.256C107.297 767.202 107.307 767.147 107.313 767.093C107.309 766.514 107.077 765.96 106.668 765.551C106.259 765.141 105.705 764.91 105.126 764.906C104.55 764.919 104.001 765.153 103.594 765.56C103.187 765.968 102.952 766.517 102.94 767.093L101.999 776.067L99.7387 797.624L97.0033 823.715L94.6364 846.293L93.852 853.775C93.7303 854.935 93.499 856.139 93.482 857.307C93.4812 857.361 93.4705 857.417 93.4649 857.47L95.6515 855.284H49.4086C43.9559 855.284 38.5003 855.335 33.0478 855.282C29.759 855.25 26.522 854.46 23.5885 852.973C20.6549 851.486 18.1039 849.343 16.1339 846.709C12.7686 842.129 11.3427 836.407 12.1647 830.783C13.2935 822.891 14.5096 815.011 15.6819 807.125L15.7903 806.396C15.9258 805.838 15.8433 805.249 15.5596 804.749C15.2758 804.249 14.8122 803.876 14.2631 803.706C13.704 803.556 13.1083 803.633 12.6049 803.918C12.1015 804.204 11.7312 804.677 11.5734 805.234Z" fill="black"/>
<path d="M161.106 523.289L389.407 466.818C463.625 449.071 465.04 418.862 479.745 376.929L526.123 182.566L447.322 153.936L378.009 354.405L246.986 390.364C243.527 391.313 239.964 391.828 236.378 391.895L156.266 393.407" fill="#458DC9"/>
<path d="M161.687 525.397L169.166 523.547L189.147 518.605L218.34 511.384L253.002 502.81L289.806 493.707L325.468 484.885L356.182 477.289L378.761 471.703C382.35 470.816 385.938 469.928 389.526 469.041C403.541 465.594 417.475 461.465 430.392 454.913C441.917 449.067 452.239 441.122 459.853 430.605C466.546 421.36 470.752 410.632 474.403 399.897C476.384 394.07 478.226 388.198 480.188 382.365C480.871 380.336 481.653 378.351 482.15 376.27L485.597 361.824L491.958 335.164L500.144 300.86L508.93 264.04L517.249 229.175L523.876 201.4L527.724 185.272L528.232 183.147C528.37 182.588 528.289 181.998 528.004 181.497C527.72 180.997 527.255 180.624 526.704 180.457L500.093 170.788L457.662 155.372L447.903 151.827C447.344 151.682 446.751 151.761 446.249 152.046C445.747 152.331 445.375 152.8 445.213 153.354L438.326 173.273L421.784 221.115L401.767 279.01L384.453 329.086L378.741 345.607C377.851 348.18 376.647 350.819 376.022 353.473C375.994 353.591 375.94 353.709 375.9 353.824L377.427 352.297L346.579 360.764L286.697 377.198L247.487 387.959C242.629 389.189 237.636 389.801 232.626 389.78L208.178 390.241L157.226 391.203L156.266 391.221C153.455 391.274 153.446 395.647 156.266 395.594L199.831 394.772L227.568 394.249C234.307 394.121 240.99 394.237 247.572 392.472C257.818 389.723 268.033 386.856 278.262 384.049L337.133 367.892L377.076 356.93C378.396 356.567 379.488 356.429 380.122 354.974C380.36 354.425 380.519 353.825 380.714 353.26L384.536 342.205L399.938 297.66L420.248 238.92L438.803 185.253L448.952 155.901L449.43 154.517L446.74 156.044L473.352 165.712L515.783 181.128L525.542 184.674L524.015 181.984L521.961 190.593L516.591 213.098L508.988 244.961L500.311 281.323L491.701 317.406L484.329 348.303L479.258 369.556C478.348 373.366 477.406 376.954 476.151 380.668C472.399 391.777 469.223 403.172 464.371 413.872C459.84 424.29 452.963 433.521 444.278 440.845C432.078 450.894 416.841 456.838 401.838 461.257C395.978 462.983 390.04 464.409 384.112 465.876L366.624 470.202L339.272 476.967L305.559 485.306L269.114 494.321L233.014 503.25L200.88 511.198L176.161 517.312L162.34 520.731L160.524 521.18C157.794 521.855 158.951 526.074 161.687 525.397Z" fill="black"/>
<path d="M419.114 235.518L378.009 354.405L246.986 390.364C243.527 391.313 239.964 391.828 236.378 391.895L156.266 393.407L171.593 553.137L407.155 493.44C481.373 475.692 502.163 421.626 516.868 379.693L545.103 254.652C533.179 253.294 482.138 254.577 467.377 251.007C448.55 246.453 431.686 240.933 419.114 235.518Z" fill="#7B1481"/>
<path d="M417.006 234.937L403.07 275.241L381 339.073L375.9 353.824L377.427 352.297L346.413 360.809L286.506 377.25L247.482 387.96C242.6 389.193 237.581 389.805 232.545 389.781L208.178 390.241L157.223 391.203L156.266 391.221C155.687 391.225 155.133 391.457 154.724 391.866C154.315 392.275 154.083 392.829 154.079 393.407L155.603 409.284L159.262 447.416L163.689 493.554L167.518 533.452C168.138 539.92 168.682 546.401 169.38 552.861C169.39 552.953 169.398 553.045 169.407 553.137C169.413 553.472 169.496 553.8 169.647 554.099C169.799 554.397 170.016 554.657 170.282 554.86C170.548 555.062 170.856 555.202 171.184 555.269C171.512 555.336 171.85 555.328 172.174 555.246L193.713 549.787L246.09 536.513L310.95 520.076L369.936 505.128L404.691 496.32C410.525 494.841 416.356 493.374 422.071 491.466C437.102 486.557 451.185 479.118 463.712 469.468C484.423 453.302 498.658 430.97 508.824 407.025C511.127 401.602 513.264 396.113 515.293 390.583C516.576 387.088 518.12 383.541 519.053 379.937C520.221 375.428 521.11 370.827 522.135 366.285L535.691 306.255L546.623 257.84L547.212 255.233C547.293 254.909 547.3 254.57 547.233 254.243C547.166 253.916 547.026 253.608 546.823 253.342C546.621 253.076 546.361 252.859 546.063 252.707C545.765 252.555 545.437 252.473 545.103 252.465C539.632 251.858 534.063 251.895 528.566 251.799C520.34 251.654 512.113 251.579 503.888 251.405C495.838 251.235 487.777 251.021 479.746 250.422C476.785 250.201 473.815 249.948 470.883 249.472C466.219 248.589 461.604 247.462 457.058 246.097C444.504 242.8 432.194 238.634 420.218 233.63C417.659 232.532 415.429 236.298 418.011 237.406C428.532 241.848 439.318 245.634 450.306 248.744C458.814 251.204 467.307 253.642 476.142 254.49C492.399 256.05 508.835 255.866 525.149 256.116C531.775 256.217 538.507 256.106 545.103 256.838L542.995 254.07L534.942 289.732L520.68 352.895L515.868 374.206C514.623 379.314 513.045 384.335 511.144 389.236C502.659 412.385 491.977 435.085 474.96 453.263C465.13 463.726 453.567 472.414 440.781 478.943C429.754 484.6 418.074 488.446 406.081 491.456C397.137 493.702 388.204 495.987 379.265 498.252L324.451 512.143L259.498 528.604L202.733 542.99L172.387 550.68L171.012 551.028L173.78 553.137L172.256 537.26L168.597 499.128L164.17 452.99L160.342 413.092L159.079 399.936C159.034 397.84 158.834 395.75 158.479 393.683C158.463 393.592 158.455 393.499 158.453 393.407L156.266 395.594L187.093 395.012L231.211 394.179C236.747 394.075 242.153 393.923 247.571 392.472C249.525 391.948 251.474 391.401 253.425 390.865L289.419 380.987L337.266 367.855L372.981 358.053C374.877 357.641 376.75 357.127 378.591 356.513C380.634 355.701 381.29 351.597 381.926 349.756L394.296 313.981L410.454 267.248L420.713 237.577L421.224 236.099C422.144 233.434 417.922 232.289 417.006 234.937Z" fill="black"/>
<path d="M513.864 233.943L508.022 258.426C529.33 260.851 544.133 259.655 545.376 254.518C546.62 249.375 533.967 241.532 513.864 233.943Z" fill="black"/>
<path d="M511.755 233.362L506.64 254.801L505.914 257.844C505.832 258.169 505.825 258.507 505.892 258.834C505.959 259.162 506.099 259.47 506.302 259.736C506.504 260.002 506.764 260.219 507.062 260.37C507.36 260.522 507.688 260.605 508.022 260.612C515.339 261.539 522.713 261.923 530.086 261.762C534.673 261.597 539.861 261.319 544.001 259.106C547.152 257.421 548.479 254.219 546.907 250.927C545.064 247.067 540.648 244.38 537.132 242.269C529.895 238.124 522.303 234.632 514.445 231.835C513.886 231.685 513.291 231.762 512.787 232.048C512.284 232.333 511.913 232.805 511.755 233.362C511.614 233.921 511.694 234.513 511.978 235.014C512.263 235.515 512.73 235.887 513.282 236.052C519.805 238.436 526.153 241.269 532.283 244.533C534.571 245.757 536.774 247.133 538.877 248.653C539.522 249.13 540.143 249.64 540.736 250.182C541.055 250.473 541.366 250.772 541.663 251.085C541.801 251.23 541.937 251.377 542.069 251.528C542.129 251.597 542.627 252.225 542.317 251.81C542.521 252.08 542.708 252.362 542.879 252.655C542.956 252.79 543.024 252.93 543.099 253.067C543.343 253.514 542.966 252.614 543.107 253.083C543.189 253.341 543.256 253.602 543.311 253.866C543.187 253.223 543.277 253.616 543.273 253.789C543.262 254.404 543.321 253.426 543.293 253.818C543.277 254.058 542.96 254.539 543.288 253.981C543.184 254.158 542.717 254.771 543.16 254.276C542.976 254.481 542.785 254.668 542.583 254.855C542.218 255.191 542.989 254.599 542.553 254.872C542.373 254.984 542.198 255.103 542.013 255.209C541.71 255.381 541.398 255.537 541.078 255.676C541.549 255.469 540.956 255.718 540.895 255.74C540.704 255.806 540.515 255.876 540.324 255.939C539.46 256.218 538.58 256.444 537.688 256.618C535.401 257.045 533.084 257.294 530.758 257.362C523.162 257.581 515.56 257.206 508.022 256.24L510.13 259.007L515.245 237.569L515.972 234.525C516.625 231.789 512.409 230.621 511.755 233.362Z" fill="black"/>
<path d="M191.131 974.815L168.577 639.458L283.828 588.081C283.828 588.081 296.794 667.655 301.173 727.379C303.301 756.396 298.749 870.635 293.17 974.815" fill="#7B1481"/>
<path d="M193.317 974.815L192.712 965.824L191.067 941.358L188.645 905.339L185.691 861.417L182.442 813.115L179.163 764.356L176.117 719.069L173.533 680.646L171.682 653.118C171.392 648.814 171.474 644.283 170.801 640.018C170.772 639.836 170.776 639.643 170.763 639.458L169.68 641.346L208.731 623.938L270.724 596.302L284.932 589.969L281.72 588.662C284.042 602.92 286.13 617.219 288.138 631.524C292.148 660.091 295.751 688.741 298.201 717.488C299.773 735.939 299.615 754.368 299.271 772.872C298.738 801.499 297.684 830.118 296.515 858.725C295.106 893.193 293.487 927.652 291.656 962.101C291.434 966.339 291.21 970.577 290.983 974.815C290.833 977.628 295.206 977.619 295.356 974.815C297.211 940.156 298.887 905.488 300.384 870.81C301.653 840.975 302.797 811.13 303.47 781.274C303.874 763.379 304.64 745.257 303.36 727.379C301.263 698.091 297.626 668.9 293.662 639.814C291.318 622.607 288.822 605.416 286.061 588.27C286.02 588.013 285.978 587.756 285.937 587.499C285.687 585.967 283.869 585.683 282.725 586.193L243.674 603.601L181.681 631.236L167.473 637.57C167.139 637.757 166.861 638.032 166.67 638.364C166.48 638.697 166.383 639.075 166.39 639.458L166.995 648.449L168.64 672.915L171.063 708.934L174.017 752.857L177.265 801.159L180.544 849.917L183.59 895.205L186.174 933.628L188.025 961.156C188.319 965.521 188.559 969.894 188.906 974.256C188.921 974.442 188.931 974.629 188.944 974.816C189.132 977.609 193.506 977.629 193.317 974.815Z" fill="black"/>
<path d="M79.9368 652.037C79.9368 652.037 40.9639 659.532 36.4668 682.017C31.9697 704.501 88.9304 709.747 88.9304 709.747" fill="black"/>
<path d="M79.3554 649.929C72.9935 651.236 66.7863 653.206 60.8354 655.808C51.1025 659.941 40.5731 666.224 36.0654 676.273C34.1997 680.433 33.2341 685.121 34.9804 689.488C36.5569 693.43 39.6537 696.408 43.1004 698.77C50.9291 704.136 60.6525 706.823 69.8163 708.847C73.7818 709.723 77.7763 710.452 81.7996 711.034C84.0496 711.364 86.3427 711.771 88.6169 711.903C88.7214 711.909 88.8259 711.924 88.9302 711.934C89.5088 711.93 90.0625 711.698 90.4716 711.289C90.8808 710.88 91.1125 710.326 91.1167 709.747C91.1048 709.171 90.8706 708.622 90.4631 708.214C90.0556 707.807 89.5064 707.573 88.9302 707.561C87.5415 707.432 86.157 707.254 84.7743 707.074C84.183 706.997 85.0834 707.117 84.6981 707.064C84.5368 707.041 84.3753 707.019 84.214 706.997C83.822 706.942 83.4302 706.886 83.0385 706.829C82.1945 706.705 81.3514 706.576 80.5092 706.44C78.5811 706.13 76.6585 705.787 74.7415 705.413C70.27 704.556 65.8444 703.474 61.4815 702.172C57.1114 700.935 52.8809 699.25 48.8574 697.143C47.9362 696.647 47.0313 696.12 46.1511 695.554C45.727 695.281 45.309 695 44.8973 694.708C44.709 694.575 44.5231 694.438 44.3373 694.302C44.1942 694.209 44.0592 694.105 43.9338 693.989C43.2057 693.402 42.5118 692.773 41.8556 692.106C41.5434 691.785 41.2426 691.452 40.9533 691.11C40.8804 691.023 40.5406 690.597 40.6844 690.784C40.8022 690.936 40.4261 690.425 40.3444 690.307C39.8673 689.612 39.453 688.876 39.1064 688.108C39.3292 688.601 39.0651 688.001 39.0173 687.863C38.9545 687.68 38.8901 687.499 38.8332 687.314C38.7057 686.892 38.5997 686.463 38.5155 686.029C38.4714 685.811 38.4307 685.423 38.48 685.867C38.4551 685.643 38.4336 685.419 38.42 685.194C38.3931 684.733 38.3931 684.272 38.42 683.812C38.4319 683.605 38.4519 683.399 38.4717 683.192C38.5033 682.862 38.4127 683.566 38.4633 683.235C38.4771 683.144 38.4895 683.053 38.5068 682.963C38.6257 682.344 38.7577 681.729 38.9247 681.121C40.238 676.338 43.2976 672.38 47.0854 669.052C51.0491 665.721 55.4596 662.961 60.1885 660.853C66.6206 658.005 73.312 655.782 80.17 654.217C80.2846 654.188 80.4023 654.168 80.5183 654.146C83.2783 653.613 82.1097 649.397 79.3554 649.929Z" fill="black"/>
<path d="M213.257 720.185C213.257 720.185 194.568 824.994 194.125 864.009C196.883 764.927 198.053 709.747 198.053 709.747C198.053 709.747 213.154 694.05 213.257 720.185Z" fill="black" stroke="black" stroke-width="1.4577" stroke-miterlimit="10"/>
<path d="M191.299 975L199.877 638.086L72.3626 588.081C72.3626 588.081 59.3967 667.655 55.0175 727.379C52.8901 756.396 59.4601 870.635 65.0393 974.815" fill="#7B1481"/>
<path d="M193.485 975L193.716 965.939L194.337 941.53L195.263 905.162L196.389 860.953L197.622 812.535L198.866 763.66L200.027 718.083L201.011 679.423L201.713 651.831C201.825 647.441 202.049 643.037 202.049 638.645C202.049 638.459 202.059 638.272 202.063 638.085C202.053 637.609 201.892 637.149 201.603 636.77C201.315 636.391 200.914 636.113 200.458 635.977L187.813 631.018L157.432 619.104L120.472 604.61L88.6642 592.137L78.1311 588.007C76.4972 587.366 74.8516 586.566 73.1691 586.061C73.0926 586.038 73.0181 586.002 72.9436 585.972C72.3844 585.819 71.7873 585.894 71.2831 586.18C70.7789 586.467 70.4087 586.941 70.2536 587.5C67.9314 601.758 65.8436 616.057 63.8354 630.362C59.7988 659.12 56.1517 687.96 53.6673 716.897C52.0781 735.407 52.3955 753.835 52.9555 772.393C53.8242 801.184 55.2334 829.959 56.6855 858.726C58.4249 893.189 60.3148 927.644 62.1698 962.102C62.3979 966.34 62.6255 970.578 62.8526 974.815C63.0026 977.615 67.3766 977.632 67.2257 974.815C65.3685 940.148 63.5181 905.479 61.6747 870.811C60.1475 841.145 58.664 811.472 57.6341 781.784C57.2541 770.832 56.9295 759.877 56.8234 748.919C56.7546 741.812 56.6968 734.672 57.1895 727.576C59.2006 698.615 62.8263 669.734 66.745 640.976C69.0897 623.769 71.585 606.578 74.3462 589.432C74.3876 589.176 74.4291 588.919 74.4707 588.662L71.7807 590.189L84.4259 595.148L114.807 607.062L151.767 621.556L183.574 634.029L194.107 638.16C195.716 638.919 197.373 639.569 199.069 640.105C199.146 640.13 199.222 640.159 199.295 640.194L197.689 638.085L197.459 647.147L196.837 671.555L195.911 707.923L194.786 752.132L193.553 800.55L192.31 849.425L191.15 895.003L190.166 933.663L189.463 961.255C189.351 965.644 189.115 970.05 189.127 974.441C189.128 974.627 189.117 974.814 189.113 975.001C189.041 977.816 193.415 977.814 193.486 975.001L193.485 975Z" fill="black"/>
<path d="M227.209 392.026H110.902C95.9776 392.026 88.1808 398.197 81.775 420.099C81.775 420.099 17.1204 759.984 10.375 832.689C57.7504 823.214 111.629 793.407 206.436 709.513C247.252 779.483 334.714 803.535 334.714 803.535L260.371 446.398" fill="#7B1481"/>
<path d="M227.21 389.839H120.392C115.43 389.839 110.289 389.543 105.357 390.183C99.5915 390.784 94.2339 393.436 90.2594 397.655C85.0865 403.315 82.2932 410.881 80.0914 418.097C78.2341 424.183 77.5333 430.776 76.3567 437.014C73.4021 452.681 70.4645 468.35 67.544 484.022C63.3896 506.307 59.2671 528.597 55.1765 550.894C50.4656 576.58 45.8076 602.275 41.2024 627.98C36.5748 653.849 32.0307 679.733 27.5702 705.632C23.655 728.464 19.8213 751.313 16.2277 774.198C13.6077 790.887 11.0329 807.601 9.07176 824.383C8.74856 827.148 8.44746 829.917 8.18916 832.689C8.04816 834.203 9.69226 835.052 10.957 834.798C32.3136 830.507 52.6619 822.379 71.8818 812.231C99.9941 797.387 125.949 778.627 150.888 759.013C170.427 743.646 189.365 727.526 207.983 711.059L204.549 710.617C219.541 736.197 241.393 757.023 265.98 773.322C283.715 785.035 302.769 794.62 322.746 801.876C326.496 803.243 330.283 804.582 334.134 805.644C334.506 805.739 334.896 805.735 335.266 805.633C335.636 805.532 335.973 805.336 336.244 805.064C336.516 804.793 336.712 804.456 336.813 804.086C336.915 803.716 336.918 803.326 336.824 802.954L334.828 793.369L329.428 767.425L321.41 728.907L311.668 682.107L300.998 630.854L290.183 578.899L280.1 530.462L271.615 489.701L265.51 460.37C264.544 455.728 263.735 451.017 262.605 446.412C262.556 446.216 262.522 446.015 262.481 445.817C261.907 443.063 257.691 444.229 258.264 446.979L260.259 456.564L265.659 482.508L273.677 521.026L283.419 567.826L294.088 619.08L304.903 671.034L314.986 719.472L323.471 760.233L329.577 789.564C330.532 794.151 331.124 799.033 332.482 803.522C332.54 803.714 332.565 803.921 332.606 804.117L335.296 801.427C324.51 798.455 313.991 794.053 303.857 789.372C280.794 778.72 258.917 765 240.249 747.697C227.742 736.235 216.985 722.998 208.325 708.41C208.152 708.126 207.917 707.884 207.638 707.703C207.36 707.522 207.044 707.406 206.714 707.364C206.384 707.321 206.049 707.353 205.733 707.458C205.418 707.562 205.13 707.737 204.891 707.968C174.758 734.618 143.811 760.617 110.611 783.4C89.1231 798.146 66.4687 811.745 42.0762 821.13C31.6009 825.184 20.8017 828.346 9.79376 830.581L12.5616 832.689C13.9174 818.137 16.0983 803.809 18.2851 789.352C21.5435 767.811 25.0887 746.314 28.7161 724.833C32.9879 699.535 37.3762 674.258 41.8812 649.001C46.4759 623.098 51.1381 597.208 55.8679 571.329C60.1279 547.976 64.4264 524.63 68.7634 501.292C72.041 483.644 75.3383 466.001 78.6553 448.361C80.3075 439.576 81.9661 430.792 83.631 422.01C83.7144 421.57 83.781 421.123 83.8822 420.687C85.4436 413.973 88.4446 406.304 93.0621 401.07C98.368 395.054 105.63 394.212 113.19 394.212H227.21C230.023 394.212 230.028 389.839 227.21 389.839Z" fill="black"/>
<path d="M145.353 373.257C154.21 375.008 163.329 374.96 172.168 373.116C174.913 372.501 173.751 368.284 171.005 368.899C165.501 370.028 159.864 370.373 154.262 369.924C153.184 369.857 152.108 369.768 151.033 369.659C150.575 369.612 150.116 369.561 149.658 369.507C149.496 369.488 148.532 369.364 148.837 369.406C148.061 369.3 147.285 369.186 146.515 369.04C145.957 368.902 145.366 368.983 144.865 369.267C144.365 369.551 143.992 370.017 143.825 370.568C143.676 371.127 143.753 371.722 144.039 372.225C144.324 372.728 144.796 373.099 145.353 373.257Z" fill="black"/>
<path d="M118.35 449.07L231.286 561.254L494.429 513.475L507.24 596.332L260.484 661.279C216.648 668.561 189.484 681.853 138.22 625.326L68.5778 550.971C54.5196 535.962 45.3694 517.024 42.3468 496.683C39.3242 476.341 42.5727 455.561 51.6594 437.112L58.6438 422.932C63.2467 413.587 70.3743 405.717 79.2193 400.214C88.0644 394.711 98.2736 391.794 108.691 391.794H164.023" fill="#7B1481"/>
<path d="M116.804 450.617L136.111 469.795L177.463 510.872L216.513 549.662L227.591 560.666C229.05 562.115 230.092 563.659 232.351 563.274C239.742 562.016 247.109 560.594 254.486 559.255L301.42 550.734L360.75 539.961L420.604 529.094L469.117 520.285L493.897 515.786L495.01 515.584L492.32 514.057L496.643 542.021L503.54 586.628L505.13 596.913L506.657 594.223L475.178 602.509L402.792 621.561L322.575 642.675L267.775 657.099C264.47 657.969 261.195 658.942 257.827 659.522C243.341 662.014 228.843 665.742 214.067 665.86C198.316 665.986 183.841 660.755 170.882 651.957C158.205 643.35 147.712 632.265 137.295 621.142L87.9032 568.408C82.1488 562.264 76.3946 556.121 70.6404 549.977C58.139 536.71 49.4865 520.289 45.6114 502.476C41.049 481.01 43.7297 458.637 53.2341 438.856C55.5218 434.126 57.8717 429.424 60.1981 424.712C64.1692 416.43 70.1534 409.276 77.6033 403.905C86.1276 397.865 96.2223 394.429 106.662 394.016C110.018 393.895 113.391 393.98 116.748 393.98H164.022C166.836 393.98 166.841 389.606 164.022 389.606H115.466C111.422 389.606 107.338 389.476 103.31 389.866C93.4198 390.849 83.942 394.33 75.7677 399.984C67.5933 405.637 60.9908 413.276 56.5808 422.183C54.3046 426.782 52.0371 431.386 49.7785 435.994C42.5501 450.622 38.8843 466.752 39.0807 483.067C39.2771 499.382 43.33 515.419 50.9085 529.868C56.4272 540.403 63.9625 549.241 72.019 557.842L124.116 613.465C143.105 633.739 161.957 656.627 188.911 666.165C202.758 671.066 217.241 670.817 231.584 668.657C239.061 667.531 246.471 666.007 253.907 664.644C256.687 664.135 259.508 663.798 262.243 663.078L304.256 652.02L381.582 631.667L460.432 610.913L505.686 599.002L507.82 598.441C508.371 598.273 508.836 597.9 509.12 597.4C509.404 596.899 509.485 596.309 509.348 595.751L505.024 567.786L498.127 523.179L496.537 512.894C496.345 511.656 494.896 511.176 493.847 511.367L467.674 516.119L404.819 527.531L328.781 541.338L263.057 553.271L241.406 557.202C238.065 557.809 234.404 558.083 231.146 559.065C231 559.1 230.853 559.127 230.705 559.145L232.832 559.707L221.598 548.548L194.621 521.751L161.986 489.334L133.779 461.315C129.259 456.825 124.924 451.895 120.1 447.727C120.028 447.665 119.964 447.592 119.896 447.524C117.897 445.539 114.803 448.63 116.804 450.617Z" fill="black"/>
<path d="M139.014 391.012V364.311C131.995 361.148 126.727 356.951 124.339 351.755C112.573 326.155 124.339 232.684 124.339 232.684H234.386C234.386 232.684 250.997 324.81 234.386 351.755C228.758 360.885 215.657 366.762 200.34 369.553V402.281" fill="#FC7272"/>
<path d="M141.201 391.012V364.311C141.204 363.928 141.106 363.552 140.916 363.22C140.725 362.888 140.45 362.613 140.118 362.423C136.509 360.896 133.18 358.78 130.267 356.16C129.064 355.043 128.015 353.771 127.147 352.378C126.772 351.754 126.434 351.109 126.134 350.446C126.044 350.25 125.914 349.935 126.081 350.337C126.001 350.143 125.922 349.949 125.845 349.754C124.546 346.232 123.624 342.583 123.095 338.866C122.723 336.579 122.519 334.921 122.274 332.484C122.026 330.018 121.841 327.547 121.699 325.073C121.391 319.672 121.287 314.261 121.296 308.852C121.317 297.507 121.833 286.165 122.588 274.848C123.221 265.368 124.024 255.901 124.996 246.447C125.309 243.374 125.639 240.302 125.987 237.232C126.151 235.795 126.439 234.324 126.501 232.878C126.504 232.814 126.517 232.748 126.525 232.684L124.339 234.871H229.887C231.299 234.871 232.788 235.006 234.195 234.871C234.258 234.865 234.323 234.871 234.385 234.871L232.277 233.265C233.04 237.5 233.688 241.758 234.313 246.015C235.012 250.775 235.534 254.646 236.117 259.386C236.807 265.001 237.411 270.626 237.93 276.261C239.128 288.446 239.668 300.687 239.548 312.931C239.37 323.502 238.818 333.968 235.497 344.01C235.16 345.03 234.791 346.04 234.374 347.031C234.539 346.639 234.318 347.155 234.261 347.281C234.16 347.504 234.059 347.727 233.954 347.949C233.737 348.407 233.509 348.86 233.27 349.307C231.915 351.791 230.125 354.012 227.984 355.863C222.004 361.133 214.075 364.038 206.464 365.985C204.247 366.552 202.009 367.029 199.759 367.445C199.299 367.574 198.893 367.85 198.604 368.23C198.314 368.611 198.156 369.075 198.154 369.553V402.281C198.154 405.095 202.527 405.099 202.527 402.281V369.553L200.921 371.662C214.944 369.076 231.822 363.517 238.075 349.404C242.28 339.912 243.269 329.093 243.739 318.836C244.192 306.4 243.864 293.947 242.757 281.552C241.871 270.465 240.59 259.41 239.04 248.397C238.528 244.759 237.981 241.126 237.4 237.498C237.125 235.787 236.94 234.011 236.533 232.324C236.516 232.251 236.507 232.176 236.494 232.104C236.364 231.643 236.089 231.238 235.708 230.948C235.328 230.658 234.864 230.5 234.385 230.498H137.902C133.456 230.498 128.973 230.329 124.529 230.498C124.466 230.501 124.402 230.498 124.339 230.498C123.764 230.514 123.218 230.75 122.811 231.157C122.404 231.563 122.169 232.11 122.152 232.685C121.678 236.454 121.271 240.232 120.875 244.01C119.913 253.194 119.101 262.392 118.44 271.603C117.624 283.061 117.046 294.542 116.94 306.03C116.692 316.631 117.226 327.236 118.537 337.759C119.019 341.701 119.867 345.59 121.07 349.376C121.75 351.565 122.739 353.646 124.007 355.556C126.263 358.658 129.116 361.28 132.398 363.266C134.167 364.367 136.009 365.347 137.911 366.199L136.828 364.311V391.012C136.828 393.826 141.201 393.83 141.201 391.012Z" fill="black"/>
<path d="M91.9492 229.778C101.485 230.645 111.887 230.645 111.887 230.645C111.887 230.645 98.884 243.648 95.4168 270.52C92.99 289.328 102.897 320.691 110.702 341.042C112.981 346.99 116.764 352.246 121.682 356.294C126.6 360.343 132.484 363.046 138.759 364.139L142.081 324.264C136.387 319.814 128.211 302.812 128.211 293.058C128.211 278.321 136.122 274.854 146.415 274.854C156.708 274.854 168.086 294.299 168.086 308.661L168.953 264.452C168.953 264.452 241.618 274.392 247.115 242.781C247.115 242.781 253.183 193.371 198.572 190.77C143.96 188.169 103.218 211.574 91.9492 229.778Z" fill="black"/>
<path d="M91.9494 231.964C98.5701 232.556 105.239 232.828 111.887 232.831L110.341 229.099C107.114 232.578 104.413 236.509 102.322 240.769C96.9489 250.892 93.7578 262.03 92.9551 273.463C92.248 285.066 94.8118 296.934 97.7001 308.101C99.2867 314.235 101.119 320.305 103.116 326.318C104.934 331.794 106.788 337.311 109.002 342.642C111.508 348.7 115.49 354.034 120.586 358.158C125.683 362.281 131.731 365.063 138.178 366.248C138.502 366.329 138.84 366.336 139.167 366.268C139.494 366.201 139.802 366.061 140.068 365.858C140.334 365.656 140.55 365.396 140.702 365.099C140.854 364.801 140.938 364.474 140.946 364.14L142.483 345.69L143.607 332.199C143.818 329.66 144.153 327.098 144.244 324.551C144.305 322.821 142.474 321.766 141.437 320.547C139.715 318.418 138.214 316.118 136.959 313.684C133.817 308.18 131.665 302.168 130.601 295.921C129.891 290.913 130.563 284.389 134.127 280.776C135.601 279.331 137.44 278.313 139.448 277.831C141.792 277.202 144.218 276.936 146.643 277.044C147.614 277.101 148.568 277.329 149.459 277.718C150.494 278.196 151.473 278.789 152.376 279.484C154.64 281.304 156.604 283.468 158.196 285.897C161.991 291.422 164.513 297.72 165.58 304.337C165.792 305.769 165.899 307.214 165.9 308.661C165.916 311.477 170.217 311.476 170.273 308.661L170.564 293.79L171.032 269.926L171.14 264.451L168.372 266.56C172.71 267.152 177.085 267.506 181.454 267.762C190.693 268.373 199.966 268.241 209.184 267.368C218.714 266.39 228.717 264.566 237.07 259.618C243.288 255.935 248.595 249.888 249.337 242.441C249.69 238.094 249.507 233.72 248.792 229.418C247.738 221.693 244.84 214.334 240.341 207.965C234.044 199.347 224.831 193.727 214.596 190.963C207.156 188.953 199.437 188.458 191.762 188.39C182.72 188.315 173.687 188.952 164.745 190.294C149.522 192.486 134.733 197.04 120.914 203.791C110.987 208.719 101.118 215.052 93.8586 223.551C92.4666 225.161 91.1971 226.874 90.0606 228.674C88.5681 231.069 92.3499 233.267 93.8367 230.881C94.8245 229.263 95.9585 227.738 97.2243 226.326C98.7302 224.606 100.338 222.978 102.04 221.452C106.061 217.875 110.422 214.7 115.06 211.971C127.105 204.906 140.189 199.784 153.829 196.794C161.842 194.96 169.985 193.752 178.185 193.179C186.81 192.461 195.483 192.534 204.095 193.398C214.799 194.622 225.403 198.448 232.931 205.971C233.713 206.753 234.461 207.566 235.175 208.412C235.8 209.131 236.383 209.885 236.923 210.67C238.085 212.317 239.127 214.045 240.04 215.842C240.486 216.717 240.902 217.606 241.288 218.509C241.105 218.082 241.383 218.741 241.426 218.847C241.507 219.047 241.587 219.248 241.665 219.449C241.841 219.903 242.01 220.36 242.173 220.819C242.764 222.496 243.267 224.203 243.678 225.933C244.063 227.543 244.366 229.169 244.608 230.806C244.621 230.893 244.701 231.474 244.652 231.109C244.606 230.769 244.676 231.301 244.689 231.404C244.735 231.784 244.779 232.165 244.819 232.546C244.891 233.241 244.951 233.937 244.998 234.635C245.143 236.715 245.168 238.802 245.071 240.885C245.045 241.404 245.008 241.922 244.963 242.44C244.954 242.544 244.943 242.649 244.931 242.753C244.928 242.781 245.069 242.138 244.933 242.595C244.783 243.097 244.712 243.629 244.572 244.136C244.443 244.602 244.297 245.063 244.134 245.519C244.048 245.759 243.957 245.996 243.862 246.232C243.769 246.466 243.888 246.177 243.9 246.147C243.838 246.292 243.774 246.436 243.707 246.578C243.299 247.454 242.828 248.3 242.298 249.109C241.874 249.799 241.378 250.444 240.82 251.031C240.168 251.762 239.47 252.451 238.732 253.094C238.078 253.69 237.376 254.232 236.634 254.714C235.776 255.302 234.888 255.844 233.979 256.348C232.202 257.341 230.345 258.183 228.428 258.868C223.991 260.443 219.412 261.585 214.754 262.275C205.576 263.584 196.297 264.042 187.034 263.642C181.292 263.458 175.543 263.07 169.838 262.377C169.528 262.339 168.308 262.176 169.533 262.343C169.209 262.262 168.871 262.255 168.544 262.322C168.216 262.389 167.908 262.529 167.643 262.732C167.377 262.934 167.16 263.194 167.008 263.492C166.856 263.789 166.773 264.117 166.765 264.451L166.474 279.322L166.006 303.186L165.9 308.661H170.273C170.223 300.149 167.067 291.473 162.443 284.397C158.55 278.44 152.917 272.478 145.28 272.682C138.828 272.853 132.174 274.75 128.754 280.685C124.755 287.625 125.669 296.463 128.001 303.775C129.459 308.336 131.383 312.735 133.742 316.902C135.539 320.078 137.644 323.504 140.534 325.81L139.894 324.264L136.983 359.202L136.572 364.139L139.34 362.03C134.014 361.104 128.976 358.957 124.619 355.758C120.262 352.56 116.704 348.396 114.224 343.593C111.713 338.707 110.082 333.238 108.308 328.051C106.359 322.352 104.553 316.603 102.949 310.798C99.9123 299.808 97.2428 288.361 97.229 276.899C97.3216 271.167 98.1357 265.47 99.652 259.941C100.905 254.953 102.646 250.1 104.85 245.453C106.54 241.885 108.557 238.48 110.873 235.282C111.084 234.994 111.299 234.707 111.517 234.423C111.122 234.942 111.646 234.262 111.754 234.127C112.049 233.759 112.351 233.396 112.659 233.039C112.91 232.751 113.163 232.462 113.433 232.191C113.728 231.881 113.926 231.492 114.004 231.072C114.082 230.651 114.036 230.217 113.873 229.822C113.709 229.427 113.434 229.088 113.082 228.846C112.73 228.604 112.314 228.469 111.887 228.458C105.239 228.455 98.5701 228.183 91.9494 227.591C91.3708 227.596 90.8172 227.827 90.4081 228.237C89.999 228.646 89.7673 229.199 89.7629 229.778C89.7746 230.354 90.0088 230.903 90.4163 231.311C90.8238 231.719 91.3732 231.953 91.9494 231.964Z" fill="black"/>
<path d="M202.911 284.235C200.692 282.857 198.234 281.91 195.665 281.443C190.022 280.322 184.163 281.316 179.205 284.235C176.768 285.64 178.968 289.42 181.413 288.011C185.501 285.576 190.358 284.775 195.012 285.768C195.858 285.959 196.692 286.199 197.511 286.487C197.861 286.61 198.207 286.742 198.551 286.883C198.108 286.702 198.923 287.053 199.056 287.117C199.626 287.376 200.176 287.675 200.703 288.011C203.057 289.568 205.25 285.783 202.911 284.235Z" fill="black"/>
<path d="M200.141 296.641C195.689 295.333 190.946 295.396 186.531 296.822C186.254 296.899 185.995 297.029 185.769 297.205C185.542 297.382 185.352 297.601 185.21 297.851C184.924 298.355 184.85 298.953 185.004 299.512C185.158 300.071 185.528 300.546 186.033 300.833C186.537 301.119 187.135 301.193 187.694 301.039C188.805 300.674 189.943 300.398 191.098 300.213L191.172 300.202C191.316 300.185 191.459 300.169 191.603 300.155C191.886 300.127 192.169 300.106 192.453 300.09C192.967 300.062 193.48 300.054 193.994 300.065C194.484 300.076 194.973 300.103 195.461 300.148C195.711 300.171 195.96 300.199 196.21 300.231C195.67 300.161 196.333 300.256 196.441 300.274C197.297 300.419 198.144 300.614 198.978 300.858C199.537 301.012 200.135 300.937 200.639 300.651C201.144 300.365 201.514 299.89 201.668 299.33C201.822 298.771 201.748 298.174 201.461 297.669C201.175 297.165 200.7 296.795 200.141 296.641Z" fill="black"/>
<path d="M238.291 295.368C233.771 294.324 229.041 294.67 224.72 296.358C224.169 296.525 223.703 296.897 223.418 297.398C223.134 297.899 223.053 298.49 223.193 299.048C223.352 299.604 223.723 300.076 224.226 300.361C224.729 300.647 225.324 300.724 225.883 300.575C226.966 300.135 228.084 299.785 229.226 299.529C229.512 299.466 229.799 299.41 230.088 299.359C230.167 299.346 231.011 299.229 230.564 299.282C231.074 299.222 231.586 299.179 232.1 299.156C233.054 299.115 234.01 299.139 234.961 299.228C235.168 299.248 235.375 299.272 235.582 299.295C234.989 299.23 235.743 299.321 235.854 299.339C236.281 299.409 236.706 299.492 237.129 299.585C237.688 299.739 238.286 299.665 238.79 299.379C239.294 299.092 239.664 298.617 239.818 298.058C239.973 297.499 239.898 296.901 239.612 296.397C239.326 295.892 238.85 295.523 238.291 295.368Z" fill="black"/>
<path d="M182.888 396.114L217.805 393.701C219.29 393.521 220.798 393.685 222.21 394.181C223.622 394.676 224.901 395.49 225.948 396.559C228.632 399.404 228.945 403.176 227.738 406.737L221.4 425.435L218.559 433.819C218.332 434.306 218.177 434.824 218.097 435.356C218.173 436.084 218.336 436.799 218.582 437.488C220.026 443.445 221.51 449.395 222.915 455.361C223.938 459.796 223.674 464.43 222.157 468.721C221.664 470.169 221.171 471.616 220.677 473.063L214.342 491.643L202.237 527.146L202.001 527.838C201.546 529.173 203.657 529.746 204.11 528.419L214.852 496.911L221.814 476.492C223.32 472.075 225.259 467.521 225.661 462.841C225.989 459.011 225.175 455.404 224.284 451.729L221.609 440.696L220.526 436.228C220.475 435.897 220.396 435.571 220.29 435.253C220.084 434.792 220.063 435.809 220.286 435.524C220.614 434.869 220.85 434.172 220.988 433.453L222.423 429.218L229.339 408.815C230.238 406.162 231.004 403.652 230.47 400.784C229.959 398.214 228.595 395.892 226.6 394.194C224.604 392.497 222.094 391.522 219.475 391.429C217.868 391.399 216.23 391.623 214.628 391.734L203.986 392.469L184.108 393.843L182.888 393.927C181.491 394.024 181.481 396.211 182.888 396.114Z" fill="black"/>
<path d="M178.047 393.927L160.339 393.004L132.144 391.535C130.059 391.426 127.889 391.13 125.799 391.204C123.507 391.285 121.026 392.884 119.48 394.484C118.399 395.604 117.553 396.93 116.991 398.382C116.429 399.834 116.162 401.383 116.206 402.94C116.332 406.38 118.222 409.132 119.879 412L126.976 424.287L132.676 434.157C132.789 434.401 132.923 434.634 133.079 434.854C132.892 434.875 133.059 434.069 132.933 434.46C132.901 434.657 132.892 434.858 132.908 435.058L132.688 440.451L132.148 453.666C132.012 456.087 132.182 458.517 132.653 460.897C133.094 462.949 133.791 464.939 134.726 466.819C135.001 467.467 135.358 468.076 135.79 468.632C136.735 469.704 137.862 470.659 138.883 471.658L145.68 478.307L165.601 497.792L186.353 518.09L198.474 529.947L199.056 530.516C200.062 531.5 201.61 529.956 200.602 528.969L192.263 520.813L173.207 502.173L152.377 481.799L138.716 468.437C138.304 468.034 137.839 467.649 137.464 467.211C136.208 465.746 135.556 463.408 135.061 461.565C133.919 457.315 134.364 452.94 134.541 448.604L135.081 435.39C135.186 434.745 135.094 434.084 134.818 433.492C134.235 432.422 133.597 431.379 132.988 430.324L120.226 408.229C119.516 407.12 118.976 405.911 118.624 404.642C118.281 403.12 118.321 401.536 118.741 400.034C119.16 398.531 119.945 397.155 121.026 396.03C122.311 394.595 124.063 393.663 125.971 393.4C126.78 393.369 127.622 393.486 128.43 393.528L153.622 394.841L176.755 396.047L178.047 396.114C179.453 396.187 179.449 394 178.047 393.927Z" fill="black"/>
<path d="M241.139 283.368C238.74 282.337 236.197 281.682 233.599 281.425C229.209 280.881 224.535 281.084 220.717 283.548C219.042 284.62 217.595 286.012 216.46 287.645C215.324 289.277 214.523 291.118 214.101 293.061C213.504 296.799 213.975 300.63 215.459 304.112C217.461 309.126 220.426 313.7 224.186 317.576L223.623 316.611C223.756 317.168 223.742 317.751 223.581 318.301C223.756 317.77 223.195 318.903 223.506 318.436C223.459 318.507 223.029 318.838 223.384 318.585C223.246 318.68 223.103 318.765 222.954 318.841C222.636 319.008 223.422 318.695 222.778 318.914C222.591 318.978 222.399 319.03 222.206 319.076C221.818 319.173 221.42 319.227 221.02 319.238C219.698 319.289 218.374 319.224 217.063 319.044C216.484 319.047 215.93 319.279 215.52 319.688C215.111 320.097 214.88 320.652 214.876 321.23C214.89 321.806 215.124 322.355 215.532 322.762C215.939 323.169 216.487 323.404 217.063 323.417C220.836 323.866 226.39 323.929 227.798 319.464C228.033 318.672 228.122 317.844 228.059 317.02C228.042 316.49 227.968 315.963 227.84 315.448C227.434 314.593 226.851 313.835 226.128 313.224C224.234 311.092 222.586 308.753 221.216 306.252C219.283 302.689 217.444 298.006 218.388 293.897C218.863 291.826 219.943 289.942 221.49 288.484C223.037 287.027 224.983 286.062 227.079 285.712C229.897 285.341 232.758 285.489 235.523 286.149C236.476 286.353 237.416 286.614 238.337 286.931C238.6 287.022 238.857 287.14 239.122 287.224C239.468 287.333 238.566 286.976 238.931 287.144C239.435 287.421 240.026 287.493 240.583 287.347C241.139 287.201 241.618 286.848 241.922 286.36C242.21 285.858 242.29 285.263 242.143 284.703C241.996 284.144 241.636 283.664 241.139 283.368Z" fill="black"/>
<path d="M159.36 309.38C158.72 306.992 157.927 304.648 156.985 302.362C155.429 298.525 153.531 294.244 150.267 291.539C149.39 290.732 148.336 290.141 147.191 289.812C146.045 289.484 144.839 289.428 143.667 289.649C143.39 289.725 143.131 289.855 142.905 290.032C142.678 290.208 142.489 290.428 142.347 290.677C142.205 290.927 142.114 291.202 142.078 291.487C142.043 291.772 142.064 292.062 142.14 292.338C142.217 292.615 142.347 292.875 142.523 293.101C142.7 293.328 142.919 293.517 143.169 293.659C143.418 293.801 143.694 293.892 143.979 293.928C144.264 293.963 144.553 293.942 144.83 293.866C145.408 293.746 144.552 293.829 144.903 293.848C145.071 293.857 145.25 293.844 145.418 293.842C145.984 293.835 145.149 293.739 145.468 293.841C145.669 293.904 145.883 293.945 146.086 294.005C146.586 294.153 145.932 293.889 146.168 294.032C146.321 294.124 146.488 294.194 146.642 294.285C146.801 294.378 146.952 294.482 147.106 294.584C147.574 294.897 146.942 294.411 147.286 294.724C147.921 295.296 148.508 295.919 149.043 296.586C148.713 296.17 149.116 296.694 149.199 296.81C149.331 296.994 149.459 297.181 149.585 297.37C149.876 297.805 150.153 298.249 150.415 298.702C150.911 299.551 151.364 300.425 151.787 301.312C151.979 301.714 152.165 302.118 152.345 302.526C152.44 302.74 152.532 302.955 152.625 303.17C152.417 302.685 152.745 303.464 152.8 303.603C153.409 305.112 153.959 306.643 154.45 308.197C154.697 308.973 154.937 309.753 155.143 310.542C155.855 313.262 160.074 312.109 159.36 309.38Z" fill="black"/>
<path d="M118.822 224.577C118.822 224.577 102.439 227.555 88.9991 245.937C88.8428 246.151 88.7629 246.412 88.7722 246.678C88.7816 246.943 88.8796 247.197 89.0506 247.4C89.2216 247.604 89.4558 247.743 89.7157 247.798C89.9756 247.852 90.2462 247.818 90.4842 247.7C95.5622 245.388 101.111 244.297 106.686 244.514" fill="black"/>
<path d="M118.822 224.577C118.822 224.577 102.439 227.555 88.9991 245.937C88.8428 246.151 88.7629 246.412 88.7722 246.678C88.7816 246.943 88.8796 247.197 89.0506 247.4C89.2216 247.604 89.4558 247.743 89.7157 247.798C89.9756 247.852 90.2462 247.818 90.4842 247.7C95.5622 245.388 101.111 244.297 106.686 244.514" stroke="black" stroke-width="1.4577" stroke-miterlimit="10"/>
<path d="M216.776 321.689C216.776 321.689 198.572 319.272 189.903 339.811C204.64 344.644 216.776 328.938 216.776 328.938C216.776 328.938 233.246 345.852 242.781 338.603C237.142 328.415 237.926 322.13 216.776 321.689Z" fill="black"/>
<path d="M216.776 319.502C214.311 319.273 211.825 319.443 209.415 320.006C203.974 321.139 198.993 323.864 195.105 327.836C192.088 330.989 189.684 334.675 188.016 338.708C187.855 338.999 187.762 339.322 187.742 339.654C187.723 339.986 187.777 340.318 187.903 340.625C188.028 340.933 188.22 341.209 188.466 341.433C188.712 341.657 189.004 341.823 189.322 341.92C199.495 345.151 209.627 339.757 216.558 332.487C217.18 331.85 217.769 331.181 218.322 330.484H215.23C217.307 332.562 219.544 334.472 221.922 336.198C226.013 339.239 230.749 341.994 235.909 342.523C238.728 342.856 241.57 342.132 243.885 340.491C244.374 340.187 244.728 339.708 244.874 339.152C245.019 338.595 244.946 338.004 244.67 337.5C242.81 334.121 241.466 330.372 239.16 327.257C236.506 323.83 232.688 321.496 228.428 320.698C224.593 319.913 220.69 319.512 216.776 319.502C213.96 319.437 213.962 323.811 216.776 323.875C219.96 323.886 223.138 324.165 226.276 324.708C227.463 324.931 228.633 325.234 229.778 325.617C230.619 325.88 231.426 326.242 232.181 326.696C232.552 326.909 232.907 327.143 233.26 327.384C233.378 327.464 233.712 327.731 233.421 327.497C233.588 327.632 233.753 327.771 233.913 327.914C234.206 328.176 234.486 328.45 234.753 328.738C234.875 328.869 234.994 329.003 235.111 329.139C235.195 329.236 235.607 329.758 235.33 329.393C236.301 330.734 237.144 332.164 237.848 333.663C238.855 335.683 239.804 337.728 240.893 339.707L241.678 336.715C240.938 337.299 240.09 337.73 239.182 337.983C238.275 338.237 237.326 338.308 236.391 338.193C234.317 337.937 232.303 337.317 230.444 336.362C226.776 334.496 223.385 332.128 220.37 329.326C219.671 328.7 218.978 328.063 218.322 327.392C217.911 326.984 217.355 326.755 216.776 326.755C216.197 326.755 215.641 326.984 215.23 327.392C209.608 334.639 199.907 340.696 190.485 337.703L191.792 340.915C194.339 334.959 198.24 329.659 203.995 326.562C205.889 325.539 207.919 324.792 210.023 324.342C210.474 324.241 210.927 324.151 211.382 324.074C211.61 324.035 211.839 324.001 212.067 323.966C212.324 323.927 211.91 323.987 211.899 323.988C212.058 323.968 212.218 323.948 212.378 323.932C213.091 323.859 213.806 323.807 214.524 323.793C215.275 323.764 216.028 323.792 216.776 323.875C217.355 323.873 217.909 323.641 218.319 323.232C218.728 322.822 218.96 322.268 218.962 321.689C218.948 321.113 218.713 320.565 218.306 320.158C217.899 319.751 217.351 319.516 216.776 319.502Z" fill="black"/>
<path d="M204.05 366.567C203.628 366.66 203.202 366.732 202.776 366.803C202.246 366.891 201.715 366.968 201.184 367.044C200.673 367.118 201.337 367.025 201.121 367.053C200.916 367.079 200.71 367.105 200.505 367.131C200.114 367.178 199.722 367.224 199.331 367.266C194.183 367.797 189.01 368.048 183.835 368.021C181.021 368.024 181.016 372.397 183.835 372.394C189.079 372.423 194.321 372.164 199.537 371.617C201.442 371.439 203.336 371.161 205.212 370.784C207.96 370.181 206.797 365.964 204.05 366.567Z" fill="black"/>
<path d="M192.568 392.026L190.148 501.507L134.484 391.794L192.568 392.026Z" fill="white"/>
<path d="M190.381 392.026L190.141 402.921L189.562 429.084L188.865 460.608L188.258 488.072L188.06 497.046C188.029 498.447 187.868 499.916 187.966 501.316C187.97 501.379 187.963 501.444 187.961 501.507L192.036 500.404L186.483 489.46L173.209 463.296L157.1 431.545L143.224 404.195L138.648 395.175C137.933 393.766 137.312 392.222 136.47 390.882C136.432 390.822 136.404 390.753 136.372 390.69L134.484 393.98L154.071 394.058L185.333 394.183L192.568 394.212C195.382 394.223 195.386 389.85 192.568 389.839L172.981 389.761L141.719 389.636L134.484 389.607C134.102 389.614 133.729 389.72 133.4 389.915C133.071 390.109 132.798 390.386 132.608 390.717C132.418 391.048 132.317 391.423 132.315 391.805C132.313 392.187 132.41 392.563 132.596 392.897L138.149 403.841L151.423 430.004L167.532 461.755L181.408 489.105C183.648 493.521 185.69 498.127 188.162 502.419C188.198 502.481 188.227 502.547 188.26 502.611C189.279 504.62 192.289 503.571 192.334 501.507L192.575 490.612L193.153 464.449L193.85 432.925L194.457 405.461C194.555 401.062 194.848 396.617 194.75 392.217C194.749 392.153 194.753 392.089 194.754 392.026C194.817 389.211 190.444 389.211 190.381 392.026Z" fill="black"/>
<path d="M147.533 416.307L174.013 409.512V395.196L147.533 388.401C146.188 387.938 144.751 387.802 143.343 388.006C141.935 388.21 140.596 388.747 139.437 389.573C138.279 390.4 137.335 391.491 136.683 392.756C136.031 394.02 135.691 395.423 135.691 396.846V407.863C135.691 409.286 136.031 410.688 136.683 411.953C137.335 413.218 138.279 414.309 139.437 415.135C140.596 415.961 141.935 416.498 143.343 416.702C144.751 416.906 146.188 416.771 147.533 416.307Z" fill="black"/>
<path d="M148.115 418.416L171.28 412.471L174.595 411.621C175.053 411.488 175.457 411.212 175.746 410.832C176.035 410.452 176.194 409.99 176.2 409.512V395.196C176.194 394.719 176.034 394.256 175.745 393.877C175.456 393.497 175.053 393.22 174.595 393.088L150.212 386.831C148.785 386.397 147.331 386.056 145.859 385.809C143.877 385.596 141.875 385.915 140.057 386.734C138.24 387.553 136.674 388.842 135.521 390.468C133.834 392.796 133.505 395.478 133.505 398.255V405.905C133.505 408.995 133.768 411.918 135.715 414.495C137.119 416.355 139.067 417.732 141.289 418.434C143.511 419.137 145.896 419.131 148.115 418.416C150.781 417.553 149.641 413.329 146.952 414.199C145.533 414.704 143.987 414.727 142.554 414.264C141.121 413.801 139.88 412.879 139.025 411.639C137.842 409.846 137.878 407.945 137.878 405.905V398.804C137.878 396.763 137.839 394.863 139.025 393.07C140.823 390.352 143.98 389.684 146.952 390.51C147.79 390.743 148.638 390.942 149.48 391.158L162.943 394.613L173.433 397.305L171.827 395.196V409.513L173.433 407.404L150.267 413.349L146.952 414.199C144.228 414.897 145.383 419.117 148.115 418.416Z" fill="black"/>
<path d="M202.507 416.307L176.027 409.512V395.196L202.507 388.401C203.853 387.938 205.289 387.802 206.697 388.006C208.106 388.21 209.445 388.747 210.603 389.573C211.762 390.4 212.706 391.491 213.358 392.756C214.009 394.02 214.349 395.423 214.349 396.846V407.863C214.349 409.286 214.009 410.688 213.358 411.953C212.706 413.218 211.762 414.309 210.603 415.135C209.445 415.961 208.106 416.498 206.697 416.702C205.289 416.906 203.853 416.771 202.507 416.307Z" fill="black"/>
<path d="M203.089 414.199L179.923 408.254L176.609 407.404L178.214 409.513V395.196L176.609 397.305L199.262 391.492C202.666 390.618 206.376 389.072 209.53 391.483C210.419 392.204 211.122 393.127 211.58 394.176C212.038 395.224 212.238 396.367 212.163 397.509V404.173C212.163 406.255 212.461 408.675 211.594 410.623C210.874 412.169 209.604 413.392 208.032 414.053C206.46 414.714 204.697 414.766 203.089 414.199C200.405 413.33 199.255 417.552 201.926 418.416C203.849 419.038 205.904 419.13 207.875 418.683C209.846 418.236 211.66 417.266 213.127 415.876C214.258 414.752 215.145 413.407 215.732 411.924C216.319 410.442 216.592 408.854 216.536 407.26V399.962C216.536 397.665 216.691 395.311 215.89 393.114C215.204 391.225 214.023 389.555 212.471 388.28C210.918 387.004 209.051 386.169 207.066 385.862C204.968 385.673 202.855 385.913 200.853 386.569L187.364 390.03L175.446 393.088C174.988 393.221 174.584 393.497 174.295 393.877C174.006 394.257 173.847 394.719 173.841 395.197V409.513C173.847 409.99 174.006 410.452 174.295 410.832C174.584 411.212 174.988 411.488 175.446 411.621L198.612 417.566L201.926 418.416C204.654 419.116 205.817 414.899 203.089 414.199Z" fill="black"/>
<path d="M182.887 394.617C182.887 390.83 179.817 387.76 176.03 387.76C172.243 387.76 169.173 390.83 169.173 394.617V409.945C169.173 413.732 172.243 416.802 176.03 416.802C179.817 416.802 182.887 413.732 182.887 409.945V394.617Z" fill="black" stroke="black" stroke-width="1.4577" stroke-miterlimit="10"/>
<path d="M174.325 417.383L176.015 428.003L180.052 453.379L184.954 484.193L189.177 510.733L190.57 519.495C190.79 520.879 190.916 522.324 191.238 523.689C191.252 523.748 191.257 523.81 191.267 523.87C191.424 524.427 191.795 524.899 192.298 525.185C192.802 525.471 193.397 525.547 193.957 525.397C194.508 525.231 194.975 524.859 195.259 524.358C195.543 523.857 195.624 523.266 195.484 522.707L193.794 512.087L189.757 486.711L184.854 455.897L180.632 429.357L179.238 420.596C179.018 419.211 178.893 417.767 178.571 416.401C178.557 416.343 178.552 416.28 178.542 416.221C178.385 415.664 178.014 415.191 177.51 414.906C177.007 414.62 176.411 414.544 175.852 414.694C175.301 414.86 174.834 415.232 174.55 415.733C174.265 416.234 174.185 416.824 174.325 417.383Z" fill="black"/>
<path d="M924.284 93.955V418.701H639.193V25H924.164L924.284 93.955Z" fill="white"/>
<path d="M922.097 93.9552V405.47C922.097 409.647 921.753 413.99 922.097 418.157C922.112 418.335 922.097 418.521 922.097 418.701L924.283 416.515H650.783C647.141 416.515 643.305 416.169 639.673 416.515C639.516 416.53 639.35 416.515 639.192 416.515L641.378 418.701V40.9815C641.378 35.9161 641.705 30.7273 641.378 25.6694C641.364 25.4483 641.378 25.2219 641.378 25L639.192 27.1866H912.557C916.204 27.1866 920.046 27.5337 923.682 27.1866C923.839 27.1715 924.005 27.1866 924.164 27.1866L921.977 25L922.017 48.2575L922.082 85.3736L922.097 93.9552C922.102 96.7689 926.474 96.774 926.47 93.9552L926.43 70.6977L926.365 33.5817L926.35 25C926.342 24.4227 926.109 23.8713 925.701 23.463C925.292 23.0547 924.741 22.8217 924.164 22.8134H650.799C647.096 22.8134 643.376 22.7095 639.675 22.8134C639.515 22.8179 639.353 22.8134 639.192 22.8134C638.615 22.8216 638.064 23.0546 637.655 23.4629C637.247 23.8712 637.014 24.4226 637.006 25V402.72C637.006 407.821 636.908 412.932 637.006 418.032C637.01 418.255 637.006 418.478 637.006 418.702C637.014 419.279 637.247 419.831 637.655 420.239C638.064 420.647 638.615 420.88 639.192 420.889H912.692C916.39 420.889 920.105 420.992 923.802 420.889C923.962 420.884 924.124 420.889 924.284 420.889C924.861 420.88 925.413 420.647 925.821 420.239C926.229 419.831 926.462 419.279 926.47 418.702V107.186C926.47 102.962 926.574 98.7231 926.47 94.4998C926.466 94.3185 926.47 94.1366 926.47 93.9552C926.469 91.1413 922.097 91.1367 922.097 93.9552Z" fill="black"/>
<path d="M895.13 122.38V447.127H610.038V53.425H895.01L895.13 122.38Z" fill="white"/>
<path d="M892.943 122.381V433.895C892.943 438.072 892.6 442.415 892.943 446.582C892.958 446.761 892.943 446.947 892.943 447.126L895.13 444.94H621.63C617.987 444.94 614.151 444.594 610.52 444.94C610.363 444.955 610.197 444.94 610.039 444.94L612.225 447.126V69.4067C612.225 64.3414 612.551 59.1526 612.225 54.0947C612.211 53.8735 612.225 53.6471 612.225 53.4247L610.039 55.6113H883.403C887.05 55.6113 890.892 55.9585 894.528 55.6113C894.685 55.5962 894.851 55.6113 895.01 55.6113L892.823 53.4247L892.863 76.6823L892.928 113.798L892.943 122.381C892.948 125.194 897.321 125.199 897.316 122.38L897.276 99.1224L897.211 62.0064L897.197 53.4247C897.188 52.8474 896.955 52.296 896.547 51.8877C896.139 51.4795 895.587 51.2465 895.01 51.2382H621.645C617.942 51.2382 614.223 51.1342 610.521 51.2382C610.36 51.2427 610.199 51.2382 610.039 51.2382C609.461 51.2464 608.91 51.4794 608.502 51.8877C608.093 52.296 607.86 52.8474 607.852 53.4247V431.145C607.852 436.245 607.754 441.357 607.852 446.457C607.856 446.68 607.852 446.903 607.852 447.126C607.86 447.703 608.093 448.255 608.501 448.663C608.91 449.071 609.461 449.304 610.039 449.313H883.539C887.236 449.313 890.951 449.416 894.649 449.313C894.809 449.308 894.97 449.313 895.13 449.313C895.707 449.305 896.259 449.072 896.667 448.663C897.075 448.255 897.308 447.703 897.317 447.126V135.611C897.317 131.387 897.42 127.148 897.317 122.925C897.312 122.744 897.317 122.562 897.317 122.381C897.316 119.567 892.943 119.562 892.943 122.381Z" fill="black"/>
<path d="M507.187 596.7L571.037 580.412C581.071 577.852 591.521 577.361 601.751 578.969C627.418 583.002 666.111 580.566 697.573 546.684L709.778 515.51C711.274 513.95 712.269 511.979 712.634 509.849C712.999 507.719 712.718 505.528 711.827 503.56C710.935 501.591 709.475 499.935 707.633 498.804C705.792 497.673 703.654 497.119 701.495 497.214L663.011 498.914C656.737 499.191 650.565 500.6 644.793 503.075L611.52 517.337L603.815 512.393C590.582 503.901 574.68 500.594 559.159 503.107L494.28 513.608L478.952 560.398L507.187 596.7Z" fill="#FC7272"/>
<path d="M507.769 598.808L538.002 591.096C549.118 588.26 560.235 585.424 571.351 582.588C576.482 581.268 581.739 580.496 587.034 580.284C590.841 580.141 594.653 580.283 598.439 580.708C600.914 580.987 603.368 581.424 605.84 581.726C615.028 582.868 624.319 582.906 633.516 581.839C657.085 579.205 679.042 568.579 695.733 551.729C697.141 550.333 699.044 548.86 699.787 546.994C700.083 546.251 700.371 545.503 700.663 544.758L704.118 535.932L711.444 517.222L711.887 516.09L711.324 517.055C713.154 515.162 714.366 512.757 714.799 510.16C715.233 507.563 714.868 504.895 713.752 502.51C712.637 500.125 710.824 498.135 708.553 496.802C706.282 495.47 703.66 494.858 701.034 495.048C693.536 495.369 686.039 495.7 678.542 496.041L666.487 496.573C662.993 496.66 659.507 496.964 656.051 497.482C647.596 498.911 639.738 502.88 631.912 506.235C624.898 509.241 617.76 512.054 610.839 515.268C610.7 515.332 610.557 515.389 610.417 515.449H612.624C610.056 513.801 607.488 512.153 604.919 510.505C598.312 506.281 591.006 503.267 583.343 501.603C575.553 499.94 567.528 499.68 559.646 500.834C558.243 501.037 556.844 501.278 555.444 501.505L534.791 504.848L508.76 509.062L498.876 510.662C497.236 510.927 495.544 511.099 493.922 511.464C493.849 511.48 493.773 511.488 493.699 511.5C493.334 511.599 493 511.792 492.732 512.06C492.464 512.328 492.271 512.661 492.172 513.027L487.213 528.166L479.067 553.032C478.365 555.174 477.596 557.306 476.958 559.468C476.817 559.909 476.793 560.379 476.886 560.833C476.98 561.287 477.19 561.708 477.495 562.057C477.927 562.614 478.36 563.17 478.793 563.726L493.285 582.358L501.115 592.425C502.548 594.268 503.914 596.201 505.432 597.975C505.506 598.062 505.572 598.156 505.642 598.246C506.054 598.653 506.609 598.882 507.188 598.882C507.767 598.882 508.323 598.653 508.734 598.246C509.131 597.829 509.353 597.275 509.353 596.7C509.353 596.124 509.131 595.571 508.734 595.154L499.22 582.922L484.027 563.387L480.499 558.851L481.061 560.979L486.241 545.166L494.496 519.967L496.389 514.189L494.861 515.716L511.427 513.035L542.407 508.021C548.178 507.087 553.947 506.138 559.721 505.218C568.243 503.874 576.951 504.334 585.284 506.568C592.341 508.602 599.036 511.727 605.126 515.83C606.862 516.944 608.57 518.23 610.387 519.206C611.615 519.865 612.833 519.136 613.98 518.644L625.4 513.749L639.539 507.688C642.184 506.554 644.811 505.342 647.504 504.325C653.048 502.309 658.879 501.194 664.776 501.022L677.086 500.478C685.191 500.12 693.298 499.692 701.406 499.405C702.626 499.339 703.846 499.53 704.988 499.964C706.13 500.399 707.168 501.068 708.036 501.928C708.904 502.787 709.582 503.819 710.027 504.957C710.472 506.095 710.674 507.313 710.62 508.533C710.555 509.831 710.183 511.095 709.535 512.221C708.837 513.111 708.202 514.048 707.632 515.024C707.235 516.01 706.857 517.004 706.47 517.993L696.294 543.983L695.464 546.102L696.027 545.137C682.889 559.233 666.398 569.737 647.725 574.721C633.317 578.448 618.308 579.24 603.588 577.051C598.117 576.164 592.575 575.782 587.033 575.911C581.437 576.127 575.88 576.929 570.451 578.305C568.325 578.842 566.201 579.389 564.077 579.931L531.449 588.254C523.31 590.33 515.106 592.241 507.012 594.488C506.877 594.525 506.742 594.557 506.606 594.591C503.881 595.286 505.036 599.505 507.769 598.808Z" fill="black"/>
<path d="M108.69 391.794C98.2731 391.794 88.064 394.71 79.2189 400.214C70.3739 405.717 63.2464 413.586 58.6436 422.932L51.6592 437.112C33.0531 474.888 34.1447 529.112 62.9304 559.845L132.573 634.2C183.837 690.727 220.53 690.3 264.365 683.018L481.372 642.682C470.078 628.161 459.279 582.677 457.665 568.089C455.814 552.305 455.135 536.404 455.632 520.519L231.286 561.254L118.35 449.07" fill="#7B1481"/>
<path d="M108.69 389.607C99.7142 389.657 90.8695 391.769 82.8387 395.779C74.808 399.789 67.8059 405.591 62.3727 412.736C58.7256 417.559 56.199 422.958 53.5437 428.349C51.0681 433.376 48.5154 438.365 46.3937 443.555C33.3318 475.508 32.8492 515.543 50.149 546.053C54.379 553.513 59.8944 559.801 65.7055 566.005L85.5049 587.144L128.408 632.95C137.155 642.289 145.917 651.553 155.809 659.713C168.651 670.308 183.012 679.248 199.015 684.153C220.84 690.843 244.11 689 266.248 684.885L303.807 677.904L371.973 665.234L440.4 652.515L480.092 645.137L481.954 644.791C482.276 644.701 482.573 644.538 482.823 644.315C483.072 644.092 483.267 643.815 483.393 643.505C483.52 643.195 483.573 642.86 483.55 642.527C483.527 642.193 483.428 641.869 483.261 641.579C479.354 636.49 476.771 630.376 474.475 624.432C471.564 616.75 469.042 608.927 466.92 600.99C462.828 586.555 460.099 571.768 458.767 556.824C457.711 544.753 457.394 532.629 457.819 520.519C457.813 520.184 457.732 519.855 457.58 519.556C457.429 519.258 457.212 518.997 456.946 518.794C456.679 518.591 456.371 518.451 456.042 518.385C455.714 518.318 455.375 518.327 455.051 518.411L432.711 522.467L379.072 532.206L314.41 543.947L258.323 554.131L239.888 557.478C237.035 557.996 233.854 558.205 231.082 559.077C230.958 559.107 230.832 559.13 230.705 559.145L232.832 559.708L221.609 548.558L194.652 521.781L162.032 489.38L133.822 461.358C129.285 456.851 124.932 451.908 120.092 447.72C120.023 447.66 119.961 447.589 119.896 447.525C117.897 445.539 114.803 448.63 116.803 450.617L132.988 466.693L169.313 502.777L207.314 540.524L228.994 562.059C229.859 562.919 230.448 563.507 231.877 563.36C232.319 563.315 232.765 563.199 233.202 563.12L241.974 561.527L278.631 554.871L330.751 545.408L385.823 535.409L431.43 527.128L455.155 522.82L456.213 522.628L453.446 520.519C453.055 531.406 453.278 542.307 454.114 553.169C454.595 561.321 455.539 569.44 456.944 577.485C459.818 593.186 464.02 608.615 469.505 623.606C472.089 630.554 474.933 637.856 479.485 643.786L480.792 640.574L453.503 645.646L390.576 657.343L320.421 670.383L271.45 679.485C255.797 682.395 239.945 684.918 223.971 684.086C209.796 683.34 195.946 679.568 183.35 673.023C166.364 664.225 151.779 651.387 138.688 637.583C126.938 625.193 115.363 612.628 103.689 600.165L65.2084 559.081C43.9784 536.414 38.269 503.145 42.8238 473.213C44.1148 464.631 46.2856 456.204 49.302 448.066C51.4272 442.68 53.823 437.405 56.4804 432.261C58.9381 427.271 61.2129 422.106 64.3304 417.483C69.2452 410.243 75.8574 404.316 83.5898 400.219C91.3222 396.122 99.9398 393.98 108.69 393.98C111.503 393.964 111.51 389.591 108.69 389.607Z" fill="black"/>
<path d="M464.254 607.646C469.278 629.177 475.579 643.213 480.93 642.621C486.588 641.994 489.705 625.183 489.559 600.985L464.254 607.646Z" fill="black"/>
<path d="M462.146 608.227C463.854 616.082 466.197 623.786 469.152 631.262C470.952 635.607 473.096 640.799 477.082 643.618C480.268 645.872 483.71 644.578 485.81 641.61C488.549 637.737 489.424 632.397 490.128 627.823C491.372 618.933 491.913 609.96 491.745 600.985C491.74 600.65 491.659 600.321 491.509 600.021C491.358 599.722 491.141 599.461 490.874 599.258C490.607 599.055 490.298 598.915 489.97 598.849C489.641 598.783 489.302 598.793 488.977 598.877L466.885 604.692L463.673 605.537C460.954 606.253 462.107 610.472 464.836 609.754L486.928 603.939L490.14 603.094L487.372 600.985C487.481 608.558 487.128 616.129 486.316 623.659C486.01 626.382 485.552 629.085 484.946 631.758C484.681 632.897 484.381 634.029 484.021 635.142C483.868 635.616 483.705 636.086 483.527 636.551C483.41 636.896 483.266 637.232 483.097 637.556C482.771 638.247 482.384 638.909 481.94 639.532C482.26 639.088 481.702 639.786 481.56 639.933C481.45 640.047 481.327 640.146 481.209 640.251C481.496 639.996 481.434 640.104 481.188 640.244C481.066 640.312 480.936 640.375 480.818 640.447C481.043 640.31 481.225 640.325 480.907 640.396C480.794 640.418 480.684 640.446 480.574 640.479C480.968 640.346 480.888 640.371 480.572 640.452C480.288 640.526 480.341 640.405 480.672 640.488C480.532 640.452 480.388 640.421 480.247 640.388C480.163 640.368 479.755 640.202 480.08 640.34C480.413 640.482 479.862 640.217 479.787 640.17C479.661 640.091 479.539 640.01 479.414 639.931C479.055 639.701 479.459 639.979 479.358 639.892C479.05 639.629 478.757 639.351 478.478 639.058C477.904 638.472 477.4 637.821 476.978 637.118C475.663 635.056 474.531 632.885 473.593 630.627C470.337 623.098 468.23 615.031 466.363 607.065C465.721 604.326 461.503 605.485 462.146 608.227Z" fill="black"/>
<path d="M494.428 513.475L478.482 516.37L455.632 520.519C455.135 536.404 455.814 552.305 457.665 568.089C459.089 581.392 461.289 594.6 464.254 607.646L489.558 600.985L507.239 596.332L500.576 570.04C497.998 559.871 496.41 549.476 495.833 539.001L494.428 513.475Z" fill="white"/>
<path d="M493.847 511.367L462.166 517.119L455.051 518.411C454.591 518.542 454.187 518.818 453.897 519.198C453.608 519.578 453.449 520.042 453.445 520.519C452.481 543.651 454.658 567.058 458.494 589.857C459.53 596.015 460.731 602.145 462.146 608.227C462.307 608.782 462.678 609.252 463.18 609.537C463.683 609.822 464.277 609.9 464.836 609.754L483.436 604.859L498.018 601.021L507.821 598.44C508.375 598.278 508.844 597.907 509.129 597.405C509.414 596.903 509.493 596.309 509.348 595.75L502.823 570.008C500.385 560.478 498.817 550.747 498.138 540.934C497.849 536.617 497.651 532.293 497.413 527.974L496.615 513.475C496.461 510.677 492.087 510.659 492.242 513.475C492.709 521.962 493.176 530.449 493.643 538.936C494.236 549.644 495.856 560.27 498.479 570.668C499.532 574.834 500.588 578.999 501.646 583.163L505.131 596.913L506.658 594.223L489.129 598.836L471.708 603.422L463.673 605.537L466.363 607.064C461.159 584.307 458.264 561.082 457.721 537.744C457.571 532.003 457.58 526.257 457.819 520.519L456.214 522.627L486.305 517.164L495.01 515.584C495.567 515.425 496.039 515.054 496.324 514.551C496.61 514.048 496.687 513.453 496.537 512.894C496.373 512.341 496.001 511.874 495.499 511.589C494.998 511.305 494.406 511.225 493.847 511.367Z" fill="black"/>
<path d="M712.901 553.137C834.087 553.137 932.328 531.647 932.328 505.137C932.328 478.628 834.087 457.138 712.901 457.138C591.715 457.138 493.474 478.628 493.474 505.137C493.474 531.647 591.715 553.137 712.901 553.137Z" fill="#FFC41F"/>
<path d="M930.141 505.137C930.046 507.627 929.116 510.012 927.501 511.909C925.293 514.526 922.687 516.78 919.78 518.589C910.699 524.486 900.184 528.138 889.879 531.236C856.696 541.215 821.666 545.415 787.231 548.126C742.783 551.584 698.148 551.936 653.651 549.18C617.3 546.957 580.525 543.058 545.208 533.836C533.731 530.839 522.142 527.314 511.587 521.811C507.95 520.015 504.545 517.785 501.446 515.169C499.218 513.2 497.116 510.739 496.292 508.447C495.844 507.367 495.619 506.208 495.631 505.038C495.643 503.869 495.891 502.715 496.361 501.644C497.225 499.388 499.386 496.896 501.644 494.931C508.781 488.721 518.229 485.021 527.035 481.924C540.747 477.284 554.785 473.67 569.033 471.113C587.085 467.657 605.329 465.248 623.618 463.464C667.687 459.284 711.995 458.213 756.215 460.259C794.313 461.926 832.722 465.443 869.98 473.861C882.688 476.732 895.461 480.136 907.463 485.278C914.565 488.321 923.112 492.445 927.634 498.544C928.381 499.564 929.01 500.666 929.509 501.828C929.951 502.874 930.166 504.002 930.141 505.137C930.166 507.95 934.539 507.957 934.514 505.138C934.452 498.005 928.819 492.633 923.369 488.838C914.405 482.597 903.697 478.762 893.35 475.529C878.326 470.997 863.013 467.486 847.515 465.022C828.179 461.755 808.671 459.51 789.129 457.927C743.533 454.279 697.733 453.909 652.083 456.819C615.122 459.145 577.62 463.151 541.774 472.824C530.119 475.97 518.316 479.722 507.706 485.585C501.416 489.061 494.321 493.862 491.947 501.032C489.846 507.381 493.186 513.475 497.776 517.739C504.9 524.358 514.394 528.35 523.39 531.673C537.024 536.709 551.258 540.111 565.498 542.918C583.86 546.538 602.442 549.05 621.058 550.93C666.371 555.371 711.947 556.509 757.426 554.335C796.233 552.585 835.427 548.943 873.332 540.129C886.248 537.125 899.152 533.499 911.28 528.067C918.792 524.703 927.027 520.385 931.793 513.399C933.497 510.975 934.444 508.1 934.514 505.138C934.538 502.323 930.166 502.32 930.141 505.137Z" fill="black"/>
<path d="M712.9 531.961C809.136 531.961 887.151 519.003 887.151 503.02C887.151 487.036 809.136 474.079 712.9 474.079C616.664 474.079 538.649 487.036 538.649 503.02C538.649 519.003 616.664 531.961 712.9 531.961Z" fill="#FFC41F"/>
<path d="M884.965 503.02C884.963 503.211 884.946 503.399 884.932 503.59C884.99 502.828 884.947 503.501 884.883 503.689C884.821 503.874 884.768 504.066 884.707 504.252C884.597 504.585 884.778 504.093 884.79 504.067C884.734 504.2 884.67 504.331 884.601 504.458C884.385 504.819 884.178 505.172 883.931 505.513C884.318 504.978 883.845 505.612 883.734 505.731C883.527 505.953 883.323 506.175 883.105 506.387C882.382 507.131 881.56 507.775 880.664 508.299C879.471 509.067 878.234 509.763 876.958 510.383C869.702 513.96 861.332 516.09 853.326 517.919C826.701 523.999 799.183 526.441 771.974 528.069C736.667 530.158 701.275 530.372 665.946 528.712C637.192 527.379 608.215 525.101 579.939 519.504C570.81 517.697 561.606 515.587 552.924 512.177C550.144 511.129 547.48 509.794 544.976 508.193C544.095 507.668 543.29 507.023 542.585 506.278C542.407 506.1 542.239 505.915 542.067 505.731C541.97 505.627 541.481 504.975 541.87 505.513C541.605 505.139 541.362 504.749 541.143 504.346C540.842 503.808 541.183 504.525 541.094 504.252C541.034 504.066 540.98 503.874 540.917 503.689C540.849 503.486 540.813 502.843 540.869 503.59C540.852 503.361 540.845 503.136 540.838 502.906C540.834 502.788 540.906 502.206 540.846 502.628C540.785 503.059 540.904 502.404 540.933 502.296C540.979 502.124 541.039 501.958 541.094 501.789C541.234 501.364 540.86 502.268 541.062 501.862C541.117 501.751 541.165 501.634 541.23 501.527C541.34 501.342 541.45 501.156 541.56 500.971C541.645 500.827 542.103 500.242 541.697 500.75C542.007 500.364 542.34 499.998 542.695 499.654C543.09 499.273 543.505 498.912 543.937 498.573C543.536 498.89 544.245 498.351 544.355 498.273C544.612 498.091 544.873 497.914 545.137 497.742C551.181 493.796 558.35 491.753 565.337 489.884C590.28 483.211 616.434 480.652 642.109 478.754C677.136 476.236 712.273 475.594 747.369 476.832C777.425 477.834 807.649 479.892 837.321 484.966C847.506 486.564 857.562 488.89 867.415 491.924C870.757 492.954 874.016 494.237 877.164 495.761C878.454 496.395 879.703 497.11 880.904 497.901C881.137 498.057 881.365 498.218 881.594 498.379C881.741 498.483 881.885 498.591 882.028 498.7C881.968 498.655 881.688 498.428 881.998 498.68C882.462 499.052 882.905 499.45 883.324 499.872C883.481 500.032 883.628 500.201 883.781 500.365C884.041 500.643 884.143 500.826 883.971 500.583C884.209 500.924 884.428 501.276 884.629 501.639C884.937 502.184 884.658 501.642 884.706 501.789C884.768 501.975 884.82 502.167 884.883 502.352C884.943 502.529 885.037 503.233 884.931 502.451C884.954 502.64 884.965 502.831 884.964 503.021C884.997 505.833 889.37 505.841 889.338 503.021C889.278 497.936 884.288 494.572 880.274 492.449C872.842 488.517 864.479 486.269 856.343 484.338C829.286 477.916 801.194 475.398 773.499 473.692C737.267 471.487 700.942 471.261 664.685 473.016C635.29 474.419 605.62 476.798 576.749 482.729C567.707 484.586 558.586 486.763 550.051 490.344C545.395 492.298 539.406 494.97 537.186 499.88C535.043 504.62 538.273 508.751 541.998 511.438C547.859 515.666 555.314 517.897 562.183 519.828C573.237 522.804 584.467 525.082 595.806 526.65C610.58 528.858 625.452 530.394 640.345 531.528C676.279 534.186 712.333 534.861 748.342 533.55C779.056 532.496 809.948 530.32 840.246 524.987C850.486 523.353 860.583 520.921 870.444 517.713C876.078 515.777 882.82 513.401 886.874 508.769C888.362 507.213 889.237 505.172 889.338 503.021C889.37 500.205 884.998 500.203 884.965 503.02Z" fill="black"/>
<path d="M866.177 503.927L902.479 480.533C902.479 480.533 855.893 466.512 816.16 466.012C798.813 476.305 866.177 503.927 866.177 503.927Z" fill="black" stroke="black" stroke-width="1.4577" stroke-miterlimit="10"/>
<path d="M866.177 153.935V504.047H558.818V79.594H793.473L866.177 153.935Z" fill="white"/>
<path d="M863.99 153.935V489.782C863.99 494.279 863.598 498.976 863.99 503.46C864.007 503.652 863.99 503.853 863.99 504.047L866.176 501.86H571.314C567.395 501.86 563.241 501.465 559.336 501.86C559.167 501.878 558.988 501.86 558.817 501.86L561.004 504.047V96.8237C561.004 91.3676 561.375 85.7629 561.004 80.3157C560.988 80.0775 561.004 79.8331 561.004 79.594L558.817 81.7806H783.894C786.858 81.7806 790.125 82.1706 793.07 81.7806C793.204 81.772 793.338 81.772 793.472 81.7806L791.926 81.1401L816.611 106.381L855.614 146.262L864.63 155.482C866.602 157.497 869.693 154.404 867.723 152.39L850.22 134.492L816.781 100.3C809.669 93.0278 802.719 85.5417 795.419 78.4569C794.329 77.3994 793.321 77.4069 791.929 77.4069H578.045C571.908 77.4069 565.765 77.3207 559.629 77.4069C559.359 77.4107 559.088 77.4069 558.817 77.4069C558.24 77.4151 557.689 77.6481 557.28 78.0564C556.872 78.4647 556.639 79.0161 556.631 79.5935V486.817C556.631 492.316 556.526 497.827 556.631 503.325C556.635 503.565 556.631 503.806 556.631 504.047C556.639 504.624 556.872 505.176 557.28 505.584C557.689 505.992 558.24 506.225 558.817 506.233H853.68C857.666 506.233 861.672 506.346 865.657 506.233C865.83 506.229 866.003 506.233 866.176 506.233C866.754 506.225 867.305 505.992 867.713 505.584C868.122 505.176 868.355 504.624 868.363 504.047V168.2C868.363 163.646 868.474 159.076 868.363 154.523C868.358 154.327 868.363 154.131 868.363 153.936C868.363 151.121 863.99 151.117 863.99 153.935Z" fill="black"/>
<path d="M536.1 74.7538C536.1 74.7538 564.973 102.712 521.467 124.666C496.706 134.409 494.576 93.1951 517.216 79.6613" fill="#FC7272"/>
<path d="M534.555 76.3C535.367 77.1239 536.131 77.9948 536.841 78.9083C537.045 79.1591 536.932 79.0264 536.781 78.8283C536.865 78.9398 536.951 79.0504 537.035 79.1627C537.225 79.4177 537.414 79.6727 537.599 79.9319C537.978 80.4629 538.343 81.0034 538.695 81.5533C539.514 82.831 540.251 84.16 540.9 85.532C541.06 85.87 541.213 86.2106 541.361 86.5539C541.159 86.0853 541.4 86.6513 541.443 86.7621C541.53 86.9831 541.617 87.2038 541.7 87.4263C542.009 88.2533 542.281 89.0938 542.511 89.9463C542.742 90.7976 542.929 91.6602 543.072 92.5307C543.088 92.6307 543.174 93.2373 543.144 93.0035C543.114 92.772 543.187 93.4068 543.194 93.4858C543.239 93.9436 543.27 94.4025 543.288 94.8624C543.45 98.8532 542.44 102.804 540.382 106.227C537.45 111.269 532.878 115.199 528.052 118.369C525.143 120.28 522.01 122.365 518.638 123.323C516.784 123.934 514.814 124.117 512.878 123.859C513.346 123.919 512.711 123.825 512.6 123.8C512.384 123.754 512.168 123.71 511.953 123.655C511.507 123.539 511.067 123.397 510.637 123.229C510.403 123.138 510.717 123.264 510.742 123.275C510.632 123.226 510.521 123.178 510.415 123.123C510.255 123.041 510.094 122.963 509.936 122.877C509.547 122.66 509.17 122.423 508.806 122.165C508.402 121.884 508.9 122.261 508.616 122.017C508.458 121.881 508.3 121.746 508.147 121.605C507.839 121.319 507.546 121.017 507.27 120.701C507.13 120.541 506.994 120.378 506.862 120.211C507.125 120.545 506.79 120.105 506.71 119.989C506.445 119.601 506.193 119.207 505.961 118.798C505.756 118.435 505.569 118.063 505.389 117.687C505.338 117.579 505.105 117.036 505.255 117.4C505.154 117.154 505.059 116.905 504.969 116.655C504.643 115.747 504.38 114.818 504.179 113.875C504.073 113.385 503.985 112.892 503.908 112.397C503.906 112.386 503.856 112.031 503.886 112.255C503.92 112.505 503.862 112.053 503.856 112.001C503.824 111.706 503.794 111.411 503.769 111.116C503.684 110.053 503.654 108.987 503.681 107.921C503.791 103.252 504.897 98.6615 506.924 94.455C508.951 90.2484 511.853 86.523 515.436 83.528C516.353 82.8079 517.316 82.1472 518.318 81.5499C520.724 80.0961 518.528 76.3131 516.111 77.7738C506.692 83.4656 500.926 93.7184 499.569 104.491C498.555 112.543 500.3 123.381 508.616 127.086C513.148 129.105 518.604 128.492 522.987 126.342C529.607 123.096 536.176 118.669 540.93 112.968C544.314 109.106 546.553 104.377 547.397 99.3117C547.969 95.179 547.555 90.9696 546.189 87.0273C544.48 81.9075 541.622 77.2462 537.836 73.3995C537.771 73.3368 537.71 73.2708 537.646 73.2082C535.626 71.2469 532.53 74.3358 534.553 76.3004L534.555 76.3Z" fill="black"/>
<path d="M513.864 230.39L525.733 182.23L516.499 118.413C516.499 118.413 488.895 80.3415 526.361 68.7039C543.456 63.3939 534.975 55.1739 518.377 51.6277C512.19 50.3418 505.877 49.7699 499.56 49.9233C476.59 50.4375 450.674 60.3983 447.936 91.1519C446.625 105.883 451.441 123.303 450.389 132.801C449.039 145.008 446.319 157.025 442.283 168.624L436.351 185.665" fill="#FC7272"/>
<path d="M515.972 230.971L523.006 202.43L527.049 186.027C527.309 184.973 527.622 183.917 527.831 182.852C527.907 181.969 527.84 181.079 527.634 180.217L522.92 147.639L520.193 128.795C519.685 125.283 519.303 121.725 518.665 118.233C518.56 117.703 518.337 117.203 518.012 116.77C517.239 115.637 516.518 114.467 515.83 113.28C514.679 111.302 513.632 109.265 512.694 107.178C512.566 106.893 512.44 106.606 512.317 106.319C512.066 105.739 512.483 106.728 512.24 106.138C512.191 106.02 512.142 105.901 512.093 105.782C511.821 105.113 511.562 104.44 511.316 103.761C510.83 102.418 510.397 101.055 510.033 99.6743C509.658 98.2602 509.362 96.8262 509.146 95.3791C509.082 94.9391 509.127 95.2427 509.139 95.336C509.113 95.1276 509.088 94.9189 509.066 94.7099C509.028 94.3617 508.996 94.0129 508.97 93.6635C508.913 92.8954 508.885 92.125 508.89 91.3547C508.876 88.6666 509.393 86.0021 510.41 83.5137C513.481 76.5707 520.235 72.9908 527.386 70.6716C531.174 69.4432 536.571 67.463 537.734 63.117C538.72 59.4293 535.657 56.4407 532.846 54.6395C528.483 51.8424 523.187 50.3663 518.155 49.3523C511.942 48.112 505.609 47.5723 499.275 47.7433C483.167 48.1584 465.615 53.1003 455.201 66.1994C449.153 73.8072 446.198 83.1477 445.629 92.7837C444.967 104.009 447.47 115.024 448.221 126.169C448.414 131.491 447.968 136.817 446.893 142.033C445.771 148.543 444.257 154.979 442.357 161.306C440.499 167.491 438.251 173.567 436.129 179.664L434.242 185.083C433.315 187.747 437.538 188.891 438.459 186.246C441.827 176.572 445.503 166.934 448.108 157.019C449.466 151.849 450.57 146.621 451.419 141.334C452.272 136.988 452.7 132.569 452.698 128.139C452.383 119.248 450.544 110.469 450.043 101.584C449.577 93.332 450.176 84.8241 453.588 77.1832C456.264 71.149 460.492 65.9324 465.842 62.0655C476.98 54.0634 491.346 51.6289 504.797 52.1534C509.682 52.322 514.54 52.9659 519.3 54.076C523.295 54.8809 527.128 56.3478 530.639 58.416C531.188 58.7512 531.703 59.1387 532.177 59.5731C532.401 59.7808 532.614 59.9987 532.821 60.2243C532.857 60.2643 533.093 60.5469 532.884 60.2762C532.986 60.4098 533.081 60.5484 533.168 60.6915C533.23 60.7903 533.519 61.3769 533.445 61.1837C533.37 60.9887 533.557 61.6265 533.578 61.7653C533.503 61.2721 533.544 61.8438 533.528 62.0294C533.581 61.4087 533.363 62.4173 533.452 62.1994C533.277 62.5649 533.031 62.8918 532.728 63.1608C532.247 63.6253 531.708 64.0253 531.125 64.3508C529.267 65.3744 527.3 66.183 525.259 66.7608C518.866 68.8221 512.769 72.1519 508.742 77.6634C505.803 81.8847 504.321 86.9502 504.522 92.0903C504.699 100.72 508.236 109.19 512.646 116.489C513.169 117.355 513.711 118.211 514.283 119.046C514.33 119.116 514.509 119.48 514.598 119.5C514.329 119.44 514.424 118.696 514.426 119.24C514.489 120.066 514.608 120.887 514.782 121.697L515.459 126.376L519.88 156.931L523.434 181.499L523.624 182.812V181.649L519.629 197.86L513.223 223.851L511.755 229.809C511.082 232.541 515.298 233.706 515.972 230.971Z" fill="black"/>
<path d="M499.879 82.2649C519.687 41.2249 575.686 55.6464 575.686 55.6464C593.765 54.5446 588.947 77.4581 567.829 77.6264C546.71 77.7947 527.619 78.5856 520.152 102.903C512.686 127.221 543.036 125.038 562.517 122.009C582.893 118.841 585.319 136.217 563.388 144.452C560.765 145.436 558.199 146.569 555.704 147.843C541.947 154.969 531.456 167.111 526.404 181.757L513.864 230.389" fill="#FC7272"/>
<path d="M501.767 83.3685C505.046 76.428 509.992 70.4075 516.165 65.8446C521.697 61.9291 527.931 59.1152 534.527 57.5564C540.616 56.0667 546.865 55.3347 553.134 55.3771C555.891 55.365 558.645 55.4674 561.398 55.6842C562.605 55.7775 563.81 55.8919 565.014 56.0273C565.512 56.0831 566.009 56.1425 566.506 56.2055C566.635 56.2218 567.532 56.3426 566.87 56.2514C567.146 56.2894 567.422 56.3281 567.698 56.3675C570.129 56.7181 572.518 57.2075 574.919 57.7088C575.637 57.8093 576.363 57.8382 577.087 57.7952C578.541 57.756 579.987 58.0172 581.336 58.5624C580.974 58.4179 581.687 58.7377 581.8 58.7988C582.05 58.9327 582.286 59.0838 582.525 59.2346C583.026 59.5512 582.511 59.1446 582.931 59.5546C583.18 59.7972 583.421 60.0352 583.647 60.3001C583.327 59.9258 583.757 60.464 583.846 60.6065C583.979 60.8187 584.092 61.0395 584.209 61.2603C584.468 61.7486 584.069 60.8248 584.249 61.3472C584.285 61.4516 584.328 61.5543 584.358 61.6607C584.443 61.9569 584.511 62.2518 584.585 62.5507C584.7 63.0135 584.606 62.3141 584.628 62.8933C584.639 63.1819 584.655 63.4681 584.647 63.7572C584.639 64.0514 584.617 64.3462 584.58 64.6382C584.648 64.0961 584.481 65.0599 584.442 65.2193C584.376 65.4923 584.298 65.7623 584.21 66.0293C584.167 66.1602 583.845 66.9767 584.015 66.5866C583.744 67.2024 583.424 67.7957 583.059 68.361C582.87 68.656 582.671 68.9465 582.458 69.2251C582.671 68.9451 582.385 69.3101 582.331 69.3744C582.214 69.5144 582.095 69.6532 581.973 69.7895C581.464 70.3519 580.919 70.88 580.341 71.3705C579.122 72.3481 577.779 73.1589 576.346 73.7814C572.779 75.3326 568.822 75.418 564.904 75.4698C560.722 75.5251 556.534 75.6398 552.369 76.0559C544.795 76.8121 537.011 78.5317 530.772 83.1295C523.751 88.3037 519.106 96.5272 517.347 105.012C516.518 108.322 516.637 111.798 517.691 115.044C518.76 117.83 520.692 120.201 523.204 121.811C528.749 125.478 536.137 126.006 542.589 126.005C546.323 125.984 550.052 125.767 553.763 125.355C557.449 124.965 561.111 124.234 564.801 123.919C566.647 123.73 568.509 123.777 570.343 124.059C571.761 124.26 573.121 124.758 574.333 125.521C574.502 125.629 574.669 125.741 574.828 125.861C574.757 125.807 574.534 125.611 574.843 125.882C575.08 126.09 575.297 126.311 575.52 126.533C575.605 126.618 575.684 126.717 575.76 126.809C575.474 126.468 575.732 126.77 575.797 126.869C575.975 127.139 576.139 127.418 576.287 127.705C576.547 128.203 576.189 127.418 576.309 127.744C576.359 127.88 576.407 128.017 576.449 128.156C576.532 128.436 576.598 128.72 576.645 129.008C576.558 128.493 576.65 129.228 576.654 129.403C576.66 129.74 576.644 130.077 576.604 130.412C576.664 129.91 576.508 130.821 576.471 130.964C576.396 131.257 576.303 131.544 576.203 131.83C576.153 132.024 576.074 132.209 575.969 132.38C575.765 132.783 575.551 133.177 575.311 133.56C574.4 134.943 573.281 136.177 571.995 137.22C568.181 140.452 563.463 141.961 558.952 143.908C549.354 147.995 540.934 154.423 534.464 162.606C531.291 166.627 528.618 171.018 526.502 175.682C525.504 177.755 524.685 179.909 524.052 182.121L520.858 194.506L512.328 227.584L511.755 229.808C511.052 232.535 515.269 233.698 515.972 230.971L522.895 204.122L527.224 187.335L528.362 182.921C529.155 180.219 530.239 177.611 531.596 175.143C536.15 166.142 542.96 158.477 551.362 152.895C553.561 151.46 555.851 150.169 558.217 149.03C561.005 147.68 563.917 146.666 566.748 145.424C570.823 143.775 574.476 141.232 577.438 137.984C579.48 135.577 581.13 132.561 581.025 129.312C580.96 127.814 580.534 126.353 579.782 125.054C579.031 123.756 577.977 122.659 576.71 121.855C570.299 117.539 561.756 120.081 554.866 120.861C547.773 121.664 540.048 122.185 533.234 120.902C530.386 120.499 527.659 119.482 525.243 117.922C524.787 117.626 524.365 117.28 523.986 116.891C522.669 115.665 521.774 114.053 521.43 112.287C521.279 111.717 521.201 111.129 521.2 110.539C521.157 109.623 521.188 108.705 521.292 107.794C521.576 105.822 522.06 103.884 522.738 102.011C524.043 97.9247 526.115 94.1249 528.843 90.8147C533.847 85.0035 540.816 82.2285 548.227 80.9758C552.158 80.3675 556.125 80.0241 560.103 79.9479C564.498 79.8032 568.986 80.1054 573.321 79.2509C579.893 77.9558 586.425 73.6629 588.485 67.0119C589.341 64.3927 589.162 61.545 587.985 59.0535C587.293 57.7786 586.338 56.6647 585.184 55.7854C584.03 54.906 582.703 54.2811 581.29 53.9517C579.561 53.475 577.762 53.3034 575.974 53.4446C576.372 53.4038 576.243 53.5219 575.891 53.4465C574.949 53.2444 574.011 53.031 573.064 52.8507C562.947 50.8594 552.581 50.4695 542.343 51.6952C527.953 53.5334 513.923 59.3452 504.58 70.8282C501.993 74.0075 499.782 77.4749 497.991 81.1617C496.765 83.6817 500.535 85.9014 501.767 83.3685Z" fill="black"/>
<path d="M436.197 185.274L426.597 213.878L419.115 235.518C431.687 240.933 448.55 246.452 467.377 251.006C480.763 254.3 494.336 256.778 508.022 258.425L513.864 233.943L520.095 206.248C506.587 205.64 493.121 204.294 479.76 202.215C460.398 198.988 436.197 185.274 436.197 185.274Z" fill="white"/>
<path d="M434.088 184.693L426.723 206.637C424.803 212.358 422.852 218.066 420.869 223.764L417.006 234.937C416.878 235.402 416.907 235.896 417.089 236.342C417.271 236.789 417.595 237.163 418.011 237.406C428.49 241.834 439.233 245.608 450.179 248.708C462.686 252.336 475.37 255.322 488.182 257.654C494.762 258.849 501.378 259.85 508.022 260.612C508.501 260.612 508.966 260.455 509.347 260.165C509.728 259.875 510.003 259.468 510.131 259.007L515.518 236.429C517.044 230.033 518.43 223.603 519.873 217.189L522.204 206.83C522.287 206.506 522.295 206.167 522.229 205.839C522.162 205.511 522.022 205.202 521.819 204.936C521.617 204.67 521.356 204.453 521.058 204.301C520.759 204.15 520.43 204.068 520.095 204.062C508.698 203.618 497.331 202.591 486.038 200.984C478.661 199.979 471.404 198.226 464.382 195.751C458.273 193.54 452.289 190.996 446.458 188.129C443.369 186.627 440.291 185.079 437.3 183.386C434.848 181.998 432.641 185.774 435.093 187.162C443.27 191.746 451.784 195.7 460.561 198.99C467.455 201.656 474.611 203.591 481.909 204.762C490.112 206.028 498.372 206.922 506.645 207.585C511.121 207.945 515.607 208.261 520.095 208.435L517.987 205.667L512.823 228.617C511.455 234.695 509.993 240.75 508.547 246.809L505.914 257.844L508.022 256.239C496.156 254.82 484.378 252.745 472.742 250.024C460.532 247.263 448.473 243.871 436.614 239.862C431.081 237.975 425.591 235.938 420.219 233.63L421.224 236.099L428.519 214.999C430.77 208.488 432.909 201.937 435.1 195.406L438.306 185.855C439.203 183.181 434.98 182.034 434.088 184.693Z" fill="black"/>
<path d="M866.177 154.619H793.572V79.594L866.177 154.619Z" fill="#FFC41F"/>
<path d="M866.177 152.432H793.572L795.759 154.619V79.594L792.026 81.14L799.258 88.6125L816.62 106.553L837.531 128.162L855.687 146.923C858.617 149.951 861.448 153.14 864.508 156.038C864.551 156.078 864.59 156.123 864.631 156.165C866.591 158.191 869.682 155.097 867.723 153.073L860.492 145.6L843.129 127.659L822.218 106.051L804.062 87.29C801.132 84.2621 798.301 81.0728 795.241 78.1749C795.199 78.1349 795.159 78.0903 795.118 78.0482C794.808 77.7534 794.42 77.5548 793.999 77.4766C793.579 77.3984 793.144 77.4439 792.749 77.6076C792.354 77.7713 792.015 78.0461 791.773 78.3988C791.531 78.7514 791.396 79.1667 791.386 79.5943V154.619C791.394 155.196 791.627 155.748 792.035 156.156C792.444 156.564 792.995 156.797 793.572 156.806H866.177C868.991 156.805 868.995 152.432 866.177 152.432Z" fill="black"/>
<path d="M203.157 683.275L205.39 706.568L205.708 709.877C205.841 711.266 208.029 711.28 207.894 709.877L205.661 686.585L205.343 683.275C205.21 681.886 203.022 681.872 203.157 683.275Z" fill="black"/>
<path d="M644.477 173.443H826.294C828.747 173.443 831.211 173.51 833.663 173.443C833.768 173.44 833.873 173.443 833.978 173.443C834.262 173.432 834.53 173.313 834.727 173.109C834.923 172.905 835.033 172.633 835.033 172.349C835.033 172.066 834.923 171.794 834.727 171.59C834.53 171.386 834.262 171.266 833.978 171.256H652.161C649.708 171.256 647.244 171.188 644.792 171.256C644.687 171.259 644.582 171.256 644.477 171.256C644.194 171.266 643.925 171.386 643.729 171.59C643.532 171.794 643.422 172.066 643.422 172.349C643.422 172.633 643.532 172.905 643.729 173.109C643.925 173.313 644.194 173.432 644.477 173.443Z" fill="black"/>
<path d="M582.524 204.054H823.771C827.029 204.054 830.294 204.116 833.551 204.054C833.694 204.052 833.836 204.054 833.979 204.054C834.262 204.044 834.53 203.925 834.727 203.721C834.924 203.517 835.034 203.244 835.034 202.961C835.034 202.678 834.924 202.405 834.727 202.201C834.53 201.997 834.262 201.878 833.979 201.868H592.732C589.474 201.868 586.209 201.806 582.952 201.868C582.809 201.87 582.667 201.868 582.524 201.868C582.241 201.878 581.973 201.997 581.776 202.201C581.579 202.405 581.469 202.678 581.469 202.961C581.469 203.244 581.579 203.517 581.776 203.721C581.973 203.925 582.241 204.044 582.524 204.054Z" fill="black"/>
<path d="M582.524 234.666H823.771C827.029 234.666 830.294 234.728 833.551 234.666C833.694 234.663 833.836 234.666 833.979 234.666C834.262 234.656 834.53 234.536 834.727 234.332C834.924 234.128 835.034 233.856 835.034 233.573C835.034 233.289 834.924 233.017 834.727 232.813C834.53 232.609 834.262 232.49 833.979 232.48H592.732C589.474 232.48 586.209 232.418 582.952 232.48C582.809 232.482 582.667 232.48 582.524 232.48C582.241 232.49 581.973 232.609 581.776 232.813C581.579 233.017 581.469 233.289 581.469 233.573C581.469 233.856 581.579 234.128 581.776 234.332C581.973 234.536 582.241 234.656 582.524 234.666Z" fill="black"/>
<path d="M582.524 265.278H823.771C827.029 265.278 830.294 265.339 833.551 265.278C833.694 265.275 833.836 265.278 833.979 265.278C834.262 265.268 834.53 265.148 834.727 264.944C834.924 264.74 835.034 264.468 835.034 264.185C835.034 263.901 834.924 263.629 834.727 263.425C834.53 263.221 834.262 263.101 833.979 263.091H592.732C589.474 263.091 586.209 263.03 582.952 263.091C582.809 263.094 582.667 263.091 582.524 263.091C582.241 263.101 581.973 263.221 581.776 263.425C581.579 263.629 581.469 263.901 581.469 264.185C581.469 264.468 581.579 264.74 581.776 264.944C581.973 265.148 582.241 265.268 582.524 265.278Z" fill="black"/>
<path d="M582.524 295.89H823.771C827.029 295.89 830.294 295.952 833.551 295.89C833.694 295.887 833.836 295.89 833.979 295.89C834.262 295.88 834.53 295.76 834.727 295.556C834.924 295.352 835.034 295.08 835.034 294.797C835.034 294.513 834.924 294.241 834.727 294.037C834.53 293.833 834.262 293.714 833.979 293.703H592.732C589.474 293.703 586.209 293.642 582.952 293.703C582.809 293.706 582.667 293.703 582.524 293.703C582.241 293.714 581.973 293.833 581.776 294.037C581.579 294.241 581.469 294.513 581.469 294.797C581.469 295.08 581.579 295.352 581.776 295.556C581.973 295.76 582.241 295.88 582.524 295.89Z" fill="black"/>
<path d="M582.524 326.501H823.771C827.029 326.501 830.294 326.563 833.551 326.501C833.694 326.499 833.836 326.501 833.979 326.501C834.262 326.491 834.53 326.372 834.727 326.168C834.924 325.964 835.034 325.692 835.034 325.408C835.034 325.125 834.924 324.853 834.727 324.649C834.53 324.445 834.262 324.325 833.979 324.315H592.732C589.474 324.315 586.209 324.253 582.952 324.315C582.809 324.318 582.667 324.315 582.524 324.315C582.241 324.325 581.973 324.445 581.776 324.649C581.579 324.853 581.469 325.125 581.469 325.408C581.469 325.692 581.579 325.964 581.776 326.168C581.973 326.372 582.241 326.491 582.524 326.501Z" fill="black"/>
<path d="M582.524 357.113H823.771C827.029 357.113 830.294 357.175 833.551 357.113C833.694 357.111 833.836 357.113 833.979 357.113C834.262 357.103 834.53 356.984 834.727 356.78C834.924 356.576 835.034 356.303 835.034 356.02C835.034 355.737 834.924 355.464 834.727 355.26C834.53 355.056 834.262 354.937 833.979 354.927H592.732C589.474 354.927 586.209 354.865 582.952 354.927C582.809 354.929 582.667 354.927 582.524 354.927C582.241 354.937 581.973 355.056 581.776 355.26C581.579 355.464 581.469 355.737 581.469 356.02C581.469 356.303 581.579 356.576 581.776 356.78C581.973 356.984 582.241 357.103 582.524 357.113Z" fill="black"/>
<path d="M582.524 387.725H823.771C827.029 387.725 830.294 387.787 833.551 387.725C833.694 387.722 833.836 387.725 833.979 387.725C834.262 387.715 834.53 387.595 834.727 387.391C834.924 387.187 835.034 386.915 835.034 386.632C835.034 386.348 834.924 386.076 834.727 385.872C834.53 385.668 834.262 385.549 833.979 385.539H592.732C589.474 385.539 586.209 385.477 582.952 385.539C582.809 385.541 582.667 385.539 582.524 385.539C582.241 385.549 581.973 385.668 581.776 385.872C581.579 386.076 581.469 386.348 581.469 386.632C581.469 386.915 581.579 387.187 581.776 387.391C581.973 387.595 582.241 387.715 582.524 387.725Z" fill="black"/>
<path d="M582.524 418.337H823.771C827.029 418.337 830.293 418.398 833.551 418.337C833.693 418.334 833.836 418.337 833.979 418.337C834.262 418.327 834.531 418.208 834.728 418.004C834.925 417.8 835.035 417.527 835.035 417.244C835.035 416.96 834.925 416.687 834.728 416.483C834.531 416.28 834.262 416.16 833.979 416.15H592.731C589.474 416.15 586.209 416.089 582.951 416.15C582.809 416.153 582.666 416.15 582.524 416.15C582.241 416.16 581.972 416.28 581.775 416.483C581.578 416.687 581.468 416.96 581.468 417.244C581.468 417.527 581.578 417.8 581.775 418.004C581.972 418.208 582.241 418.327 582.524 418.337Z" fill="black"/>
<path d="M582.524 448.949H762.223C764.652 448.949 767.092 449.013 769.52 448.949C769.627 448.946 769.733 448.949 769.839 448.949C770.123 448.939 770.391 448.819 770.589 448.615C770.786 448.411 770.896 448.139 770.896 447.855C770.896 447.572 770.786 447.299 770.589 447.095C770.391 446.891 770.123 446.772 769.839 446.762H590.141C587.712 446.762 585.272 446.697 582.844 446.762C582.737 446.765 582.631 446.762 582.524 446.762C582.241 446.772 581.972 446.891 581.775 447.095C581.578 447.299 581.468 447.572 581.468 447.855C581.468 448.139 581.578 448.411 581.775 448.615C581.972 448.819 582.241 448.939 582.524 448.949Z" fill="black"/>
<path d="M712.26 408.497C769.017 408.497 815.028 362.486 815.028 305.729C815.028 248.972 769.017 202.961 712.26 202.961C655.503 202.961 609.492 248.972 609.492 305.729C609.492 362.486 655.503 408.497 712.26 408.497Z" fill="#389B48"/>
<path d="M812.842 305.729C812.782 331.587 802.71 356.418 784.738 375.01C766.766 393.601 742.292 404.51 716.45 405.446C690.609 406.382 665.409 397.273 646.14 380.03C626.87 362.787 615.027 338.751 613.097 312.964C611.167 287.178 619.3 261.647 635.788 241.727C652.276 221.808 675.839 209.049 701.532 206.128C727.225 203.207 753.05 210.35 773.589 226.06C794.129 241.769 807.785 264.823 811.693 290.385C812.465 295.463 812.849 300.593 812.842 305.729C812.846 308.543 817.22 308.548 817.215 305.729C817.214 278.598 806.706 252.521 787.896 232.969C769.085 213.417 743.433 201.91 716.322 200.862C689.211 199.813 662.747 209.305 642.482 227.346C622.218 245.387 609.728 270.575 607.632 297.625C605.536 324.675 613.998 351.486 631.242 372.433C648.486 393.38 673.172 406.834 700.121 409.974C727.071 413.114 754.189 405.695 775.786 389.274C797.384 372.853 811.783 348.705 815.962 321.897C816.782 316.547 817.201 311.142 817.215 305.729C817.22 302.915 812.846 302.911 812.842 305.729Z" fill="black"/>
<path d="M808.624 215.196C804.464 211.21 798.925 208.984 793.163 208.984C787.401 208.984 781.862 211.21 777.701 215.196C754.467 236.465 733.741 260.973 715.142 286.314C712.995 289.239 710.89 292.193 708.827 295.177C702.92 288.747 696.828 282.495 690.55 276.42C682.332 268.45 667.7 267.626 659.627 276.42C651.716 285.038 650.855 298.835 659.627 307.342C664.043 311.625 668.347 316.028 672.596 320.477C676.445 324.507 680.225 328.603 683.937 332.763C685.98 335.066 687.991 337.398 689.968 339.759C690.872 340.843 691.766 341.934 692.65 343.033C693.081 343.569 693.503 344.113 693.934 344.65C694.313 345.121 694.274 345.058 694.041 344.748C698.553 350.164 703.91 353.833 711.531 353.833C715.348 353.828 719.098 352.825 722.409 350.926C725.721 349.027 728.479 346.296 730.411 343.003C736.411 332.405 742.982 322.141 750.096 312.255C751.714 309.996 753.355 307.753 755.019 305.527C755.84 304.428 756.666 303.333 757.498 302.242L757.539 302.188C757.735 301.936 757.904 301.718 757.982 301.62C761.312 297.375 764.714 293.188 768.188 289.058C778.852 276.365 790.105 264.143 801.931 252.524C804.133 250.36 806.346 248.203 808.623 246.118C817.083 238.375 817.064 222.944 808.624 215.196Z" fill="white"/>
<path d="M810.17 213.65C807.196 210.86 803.587 208.837 799.654 207.758C795.722 206.678 791.586 206.575 787.604 207.456C783.519 208.464 779.742 210.454 776.6 213.253C772.956 216.437 769.493 219.86 766.047 223.255C752.146 237.058 739.113 251.709 727.024 267.124C720.078 275.912 713.318 284.864 706.939 294.074L710.373 293.631C706.323 289.227 702.187 284.905 697.965 280.664C694.487 277.171 691.098 273.272 686.68 270.944C679.236 267.021 669.683 266.776 662.428 271.294C655.097 275.86 650.781 284.896 651.207 293.446C651.387 297.852 652.833 302.112 655.373 305.717C656.929 307.706 658.647 309.562 660.511 311.267C662.642 313.373 664.751 315.5 666.837 317.65C671.413 322.354 675.926 327.121 680.32 331.995C682.533 334.449 684.712 336.932 686.857 339.446C688.834 341.773 690.664 344.239 692.671 346.538C694.294 348.397 697.479 345.96 696.105 343.888C696.051 343.804 695.992 343.722 695.929 343.645L692.495 346.295C696.3 350.82 701.203 354.551 707.14 355.613C713.455 356.75 719.963 355.35 725.253 351.719C727.824 349.951 730.021 347.693 731.718 345.075C733.708 341.97 735.415 338.663 737.329 335.508C741.347 328.883 745.592 322.403 750.063 316.068C758.933 303.586 768.496 291.611 778.705 280.198C783.833 274.401 789.088 268.718 794.469 263.151C797.104 260.427 799.77 257.732 802.466 255.068C805.226 252.34 808.159 249.762 810.868 246.989C819.513 238.143 819.21 222.105 810.17 213.65C808.116 211.729 805.017 214.815 807.078 216.742C814.043 223.257 814.793 235.602 808.643 242.942C806.508 245.491 803.806 247.63 801.43 249.954C798.824 252.504 796.244 255.08 793.691 257.682C788.494 262.985 783.414 268.398 778.451 273.922C768.746 284.72 759.38 295.863 750.798 307.578C746.424 313.548 742.226 319.642 738.205 325.86C736.193 328.984 734.235 332.142 732.331 335.333C730.61 338.219 729.152 341.44 727.086 344.098C725.138 346.543 722.645 348.497 719.806 349.806C716.967 351.115 713.862 351.74 710.737 351.633C704.436 351.411 699.521 347.88 695.587 343.202C694.009 341.325 690.665 343.853 692.153 345.852C692.216 345.93 692.275 346.011 692.329 346.095L695.763 343.445C692.316 339.497 689.125 335.327 685.644 331.399C681.999 327.285 678.275 323.244 674.472 319.276C670.675 315.293 666.836 311.35 662.911 307.492C661.283 306.041 659.821 304.412 658.552 302.637C657.499 301.015 656.707 299.238 656.206 297.371C655.293 293.695 655.386 289.841 656.475 286.214C657.563 282.586 659.608 279.318 662.394 276.753C667.877 271.791 676.233 271.192 682.883 273.961C687.474 275.872 690.743 279.625 694.187 283.07C698.646 287.53 703.011 292.081 707.281 296.723C707.52 296.955 707.808 297.129 708.124 297.234C708.44 297.339 708.775 297.371 709.105 297.329C709.435 297.286 709.751 297.17 710.03 296.989C710.308 296.807 710.543 296.565 710.715 296.281C721.488 280.784 733.092 265.883 745.477 251.641C751.641 244.53 758.018 237.611 764.607 230.884C767.87 227.566 771.191 224.305 774.568 221.101C777.652 218.179 780.628 215.079 784.484 213.18C788.173 211.44 792.3 210.849 796.329 211.485C800.358 212.12 804.103 213.952 807.078 216.742C809.161 218.626 812.263 215.542 810.17 213.65Z" fill="black"/>
<path d="M127.146 773.535L127.248 778.616L127.528 792.444L127.945 813.004L128.451 837.982L129.005 865.337L129.564 892.949L130.085 918.698L130.526 940.462L130.843 956.122C130.893 958.602 130.885 961.091 130.994 963.569C130.998 963.673 130.998 963.778 131 963.883C131.01 964.166 131.13 964.434 131.334 964.631C131.538 964.828 131.81 964.938 132.093 964.938C132.377 964.938 132.649 964.828 132.853 964.631C133.057 964.434 133.177 964.166 133.187 963.883L133.084 958.802L132.804 944.974L132.388 924.414L131.882 899.436L131.328 872.081L130.769 844.469L130.247 818.72L129.806 796.956L129.489 781.296C129.439 778.816 129.447 776.327 129.339 773.849C129.334 773.745 129.334 773.64 129.332 773.535C129.322 773.252 129.202 772.984 128.999 772.787C128.795 772.59 128.522 772.481 128.239 772.481C127.956 772.481 127.683 772.59 127.479 772.787C127.275 772.984 127.156 773.252 127.146 773.535Z" fill="black"/>
<path d="M253.113 762.273L252.927 767.494L252.421 781.703L251.675 802.612L250.762 828.233L249.761 856.303L248.75 884.64L247.808 911.061L247.015 933.299L246.442 949.373C246.352 951.908 246.176 954.457 246.17 956.994C246.17 957.103 246.162 957.213 246.159 957.323C246.109 958.73 248.295 958.728 248.345 957.323L248.531 952.101L249.038 937.893L249.783 916.983L250.697 891.362L251.698 863.292L252.708 834.955L253.65 808.534L254.443 786.296L255.016 770.222C255.106 767.687 255.282 765.138 255.288 762.601C255.288 762.492 255.295 762.382 255.299 762.273C255.349 760.865 253.164 760.867 253.113 762.273Z" fill="black"/>
</svg>
